G04 EAGLE Gerber RS-274X export*
G75*
%MOMM*%
%FSLAX34Y34*%
%LPD*%
%AMOC8*
5,1,8,0,0,1.08239X$1,22.5*%
G01*
%ADD10R,1.651000X1.651000*%
%ADD11C,1.651000*%
%ADD12R,0.635000X1.270000*%
%ADD13C,0.203200*%
%ADD14R,1.270000X0.635000*%
%ADD15C,1.208000*%
%ADD16C,0.609600*%
%ADD17C,0.304800*%

G36*
X132880Y5212D02*
X132880Y5212D01*
X132910Y5209D01*
X133021Y5232D01*
X133133Y5248D01*
X133160Y5260D01*
X133188Y5265D01*
X133289Y5318D01*
X133392Y5364D01*
X133415Y5383D01*
X133441Y5396D01*
X133523Y5474D01*
X133609Y5547D01*
X133626Y5572D01*
X133647Y5592D01*
X133704Y5690D01*
X133767Y5784D01*
X133776Y5812D01*
X133791Y5837D01*
X133818Y5947D01*
X133853Y6055D01*
X133853Y6085D01*
X133861Y6113D01*
X133857Y6226D01*
X133860Y6339D01*
X133853Y6368D01*
X133852Y6397D01*
X133817Y6505D01*
X133788Y6614D01*
X133773Y6640D01*
X133764Y6668D01*
X133719Y6731D01*
X133643Y6859D01*
X133597Y6902D01*
X133569Y6941D01*
X131194Y9316D01*
X129666Y13004D01*
X129666Y16996D01*
X131194Y20684D01*
X134016Y23506D01*
X137704Y25034D01*
X141696Y25034D01*
X145384Y23506D01*
X148206Y20684D01*
X149734Y16996D01*
X149734Y13004D01*
X148206Y9316D01*
X145831Y6941D01*
X145813Y6917D01*
X145791Y6898D01*
X145728Y6804D01*
X145660Y6714D01*
X145649Y6686D01*
X145633Y6662D01*
X145599Y6554D01*
X145559Y6448D01*
X145556Y6419D01*
X145547Y6391D01*
X145544Y6277D01*
X145535Y6165D01*
X145541Y6136D01*
X145540Y6107D01*
X145569Y5997D01*
X145591Y5886D01*
X145604Y5860D01*
X145612Y5832D01*
X145670Y5734D01*
X145722Y5634D01*
X145742Y5612D01*
X145757Y5587D01*
X145840Y5510D01*
X145918Y5428D01*
X145943Y5413D01*
X145964Y5393D01*
X146065Y5341D01*
X146163Y5284D01*
X146191Y5277D01*
X146218Y5263D01*
X146295Y5250D01*
X146438Y5214D01*
X146501Y5216D01*
X146549Y5208D01*
X157174Y5208D01*
X157203Y5212D01*
X157232Y5209D01*
X157343Y5232D01*
X157455Y5248D01*
X157482Y5260D01*
X157511Y5265D01*
X157611Y5318D01*
X157715Y5364D01*
X157737Y5383D01*
X157763Y5396D01*
X157845Y5474D01*
X157932Y5547D01*
X157948Y5572D01*
X157969Y5592D01*
X158026Y5690D01*
X158089Y5784D01*
X158098Y5812D01*
X158113Y5837D01*
X158141Y5947D01*
X158175Y6055D01*
X158176Y6085D01*
X158183Y6113D01*
X158179Y6226D01*
X158182Y6339D01*
X158175Y6368D01*
X158174Y6397D01*
X158139Y6505D01*
X158111Y6614D01*
X158096Y6640D01*
X158087Y6668D01*
X158041Y6732D01*
X157965Y6859D01*
X157920Y6902D01*
X157892Y6941D01*
X156865Y7967D01*
X155867Y9342D01*
X155095Y10856D01*
X154570Y12472D01*
X154491Y12969D01*
X164084Y12969D01*
X164142Y12977D01*
X164200Y12975D01*
X164282Y12997D01*
X164365Y13009D01*
X164419Y13033D01*
X164475Y13047D01*
X164548Y13090D01*
X164625Y13125D01*
X164669Y13163D01*
X164720Y13193D01*
X164777Y13254D01*
X164842Y13309D01*
X164874Y13357D01*
X164914Y13400D01*
X164953Y13475D01*
X164999Y13545D01*
X165017Y13601D01*
X165044Y13653D01*
X165055Y13721D01*
X165085Y13816D01*
X165088Y13916D01*
X165099Y13984D01*
X165099Y15001D01*
X165101Y15001D01*
X165101Y13984D01*
X165109Y13926D01*
X165108Y13868D01*
X165129Y13786D01*
X165141Y13703D01*
X165165Y13649D01*
X165179Y13593D01*
X165222Y13520D01*
X165257Y13443D01*
X165295Y13398D01*
X165325Y13348D01*
X165386Y13290D01*
X165441Y13226D01*
X165489Y13194D01*
X165532Y13154D01*
X165607Y13115D01*
X165677Y13069D01*
X165733Y13051D01*
X165785Y13024D01*
X165853Y13013D01*
X165948Y12983D01*
X166048Y12980D01*
X166116Y12969D01*
X175709Y12969D01*
X175630Y12472D01*
X175105Y10856D01*
X174333Y9342D01*
X173335Y7967D01*
X172308Y6941D01*
X172291Y6917D01*
X172268Y6898D01*
X172206Y6804D01*
X172137Y6714D01*
X172127Y6686D01*
X172111Y6662D01*
X172077Y6554D01*
X172036Y6448D01*
X172034Y6419D01*
X172025Y6391D01*
X172022Y6277D01*
X172013Y6165D01*
X172018Y6136D01*
X172018Y6107D01*
X172046Y5997D01*
X172069Y5886D01*
X172082Y5860D01*
X172089Y5832D01*
X172147Y5734D01*
X172200Y5634D01*
X172220Y5612D01*
X172235Y5587D01*
X172317Y5510D01*
X172395Y5428D01*
X172421Y5413D01*
X172442Y5393D01*
X172543Y5341D01*
X172641Y5284D01*
X172669Y5277D01*
X172695Y5263D01*
X172773Y5250D01*
X172916Y5214D01*
X172979Y5216D01*
X173026Y5208D01*
X219771Y5208D01*
X219856Y5220D01*
X219942Y5222D01*
X219996Y5240D01*
X220053Y5248D01*
X220131Y5283D01*
X220213Y5309D01*
X220260Y5341D01*
X220312Y5364D01*
X220377Y5419D01*
X220449Y5467D01*
X220485Y5511D01*
X220529Y5547D01*
X220577Y5619D01*
X220632Y5685D01*
X220655Y5737D01*
X220687Y5784D01*
X220712Y5866D01*
X220747Y5945D01*
X220755Y6001D01*
X220772Y6055D01*
X220774Y6141D01*
X220786Y6226D01*
X220778Y6282D01*
X220780Y6339D01*
X220758Y6422D01*
X220746Y6508D01*
X220722Y6559D01*
X220708Y6614D01*
X220664Y6688D01*
X220628Y6767D01*
X220592Y6810D01*
X220563Y6859D01*
X220500Y6918D01*
X220444Y6983D01*
X220402Y7009D01*
X220355Y7053D01*
X220226Y7119D01*
X220160Y7161D01*
X217225Y8376D01*
X211576Y14025D01*
X208519Y21406D01*
X208519Y29394D01*
X211576Y36775D01*
X217225Y42424D01*
X224606Y45481D01*
X232594Y45481D01*
X239975Y42424D01*
X245624Y36775D01*
X246839Y33840D01*
X246883Y33767D01*
X246918Y33688D01*
X246955Y33645D01*
X246984Y33596D01*
X247046Y33537D01*
X247102Y33471D01*
X247149Y33440D01*
X247190Y33400D01*
X247267Y33361D01*
X247338Y33313D01*
X247392Y33296D01*
X247443Y33270D01*
X247527Y33254D01*
X247609Y33228D01*
X247666Y33226D01*
X247722Y33215D01*
X247807Y33223D01*
X247893Y33220D01*
X247948Y33235D01*
X248005Y33240D01*
X248085Y33271D01*
X248168Y33292D01*
X248217Y33321D01*
X248270Y33342D01*
X248339Y33394D01*
X248413Y33437D01*
X248452Y33479D01*
X248497Y33513D01*
X248549Y33582D01*
X248607Y33645D01*
X248633Y33696D01*
X248667Y33741D01*
X248698Y33821D01*
X248737Y33898D01*
X248745Y33947D01*
X248768Y34007D01*
X248779Y34152D01*
X248792Y34229D01*
X248792Y193777D01*
X248784Y193835D01*
X248786Y193893D01*
X248764Y193975D01*
X248752Y194059D01*
X248729Y194112D01*
X248714Y194168D01*
X248671Y194241D01*
X248636Y194318D01*
X248598Y194363D01*
X248569Y194413D01*
X248507Y194471D01*
X248453Y194535D01*
X248404Y194567D01*
X248361Y194607D01*
X248286Y194646D01*
X248216Y194693D01*
X248160Y194710D01*
X248108Y194737D01*
X248040Y194748D01*
X247945Y194778D01*
X247845Y194781D01*
X247777Y194792D01*
X159249Y194792D01*
X159220Y194788D01*
X159190Y194791D01*
X159079Y194768D01*
X158967Y194752D01*
X158940Y194740D01*
X158912Y194735D01*
X158811Y194682D01*
X158708Y194636D01*
X158685Y194617D01*
X158659Y194604D01*
X158577Y194526D01*
X158491Y194453D01*
X158474Y194428D01*
X158453Y194408D01*
X158396Y194310D01*
X158333Y194216D01*
X158324Y194188D01*
X158309Y194163D01*
X158282Y194053D01*
X158247Y193945D01*
X158247Y193915D01*
X158239Y193887D01*
X158243Y193774D01*
X158240Y193661D01*
X158247Y193632D01*
X158248Y193603D01*
X158283Y193495D01*
X158312Y193386D01*
X158327Y193360D01*
X158336Y193332D01*
X158381Y193269D01*
X158457Y193141D01*
X158503Y193098D01*
X158531Y193059D01*
X160906Y190684D01*
X162434Y186996D01*
X162434Y183004D01*
X161497Y180742D01*
X161496Y180740D01*
X161496Y180739D01*
X161461Y180605D01*
X161426Y180467D01*
X161426Y180465D01*
X161425Y180464D01*
X161430Y180323D01*
X161434Y180183D01*
X161434Y180181D01*
X161434Y180179D01*
X161477Y180047D01*
X161521Y179912D01*
X161521Y179910D01*
X161522Y179909D01*
X161530Y179897D01*
X161679Y179676D01*
X161702Y179656D01*
X161717Y179636D01*
X186945Y154408D01*
X186945Y133230D01*
X186957Y133143D01*
X186960Y133056D01*
X186977Y133003D01*
X186985Y132948D01*
X187020Y132869D01*
X187047Y132785D01*
X187075Y132746D01*
X187101Y132689D01*
X187197Y132576D01*
X187242Y132512D01*
X188977Y130777D01*
X188977Y126779D01*
X186149Y123951D01*
X182151Y123951D01*
X179323Y126779D01*
X179323Y130777D01*
X181058Y132512D01*
X181110Y132582D01*
X181170Y132646D01*
X181196Y132695D01*
X181229Y132739D01*
X181260Y132821D01*
X181300Y132899D01*
X181308Y132946D01*
X181330Y133005D01*
X181342Y133152D01*
X181355Y133230D01*
X181355Y151672D01*
X181343Y151758D01*
X181340Y151846D01*
X181323Y151899D01*
X181315Y151953D01*
X181280Y152033D01*
X181253Y152116D01*
X181225Y152156D01*
X181199Y152213D01*
X181103Y152326D01*
X181058Y152390D01*
X157764Y175683D01*
X157763Y175684D01*
X157762Y175685D01*
X157649Y175770D01*
X157537Y175854D01*
X157536Y175855D01*
X157534Y175856D01*
X157403Y175905D01*
X157272Y175955D01*
X157270Y175955D01*
X157269Y175956D01*
X157124Y175968D01*
X156988Y175979D01*
X156987Y175979D01*
X156985Y175979D01*
X156970Y175975D01*
X156710Y175923D01*
X156682Y175909D01*
X156658Y175903D01*
X154396Y174966D01*
X150404Y174966D01*
X146716Y176494D01*
X143894Y179316D01*
X142366Y183004D01*
X142366Y186996D01*
X143894Y190684D01*
X146269Y193059D01*
X146287Y193083D01*
X146309Y193102D01*
X146372Y193196D01*
X146440Y193286D01*
X146451Y193314D01*
X146467Y193338D01*
X146501Y193446D01*
X146541Y193552D01*
X146544Y193581D01*
X146553Y193609D01*
X146556Y193723D01*
X146565Y193835D01*
X146559Y193864D01*
X146560Y193893D01*
X146531Y194003D01*
X146509Y194114D01*
X146496Y194140D01*
X146488Y194168D01*
X146430Y194266D01*
X146378Y194366D01*
X146358Y194388D01*
X146343Y194413D01*
X146260Y194490D01*
X146182Y194572D01*
X146157Y194587D01*
X146136Y194607D01*
X146035Y194659D01*
X145937Y194716D01*
X145909Y194723D01*
X145882Y194737D01*
X145805Y194750D01*
X145662Y194786D01*
X145599Y194784D01*
X145551Y194792D01*
X133849Y194792D01*
X133820Y194788D01*
X133790Y194791D01*
X133679Y194768D01*
X133567Y194752D01*
X133540Y194740D01*
X133512Y194735D01*
X133411Y194682D01*
X133308Y194636D01*
X133285Y194617D01*
X133259Y194604D01*
X133177Y194526D01*
X133091Y194453D01*
X133074Y194428D01*
X133053Y194408D01*
X132996Y194310D01*
X132933Y194216D01*
X132924Y194188D01*
X132909Y194163D01*
X132882Y194053D01*
X132847Y193945D01*
X132847Y193915D01*
X132839Y193887D01*
X132843Y193774D01*
X132840Y193661D01*
X132847Y193632D01*
X132848Y193603D01*
X132883Y193495D01*
X132912Y193386D01*
X132927Y193360D01*
X132936Y193332D01*
X132981Y193269D01*
X133057Y193141D01*
X133103Y193098D01*
X133131Y193059D01*
X135506Y190684D01*
X137034Y186996D01*
X137034Y183004D01*
X135506Y179316D01*
X132684Y176494D01*
X130421Y175557D01*
X130420Y175556D01*
X130419Y175556D01*
X130300Y175485D01*
X130177Y175412D01*
X130176Y175411D01*
X130174Y175410D01*
X130076Y175306D01*
X129981Y175206D01*
X129981Y175204D01*
X129980Y175203D01*
X129914Y175075D01*
X129851Y174953D01*
X129851Y174951D01*
X129850Y174950D01*
X129848Y174935D01*
X129796Y174674D01*
X129799Y174643D01*
X129795Y174619D01*
X129795Y151384D01*
X129802Y151329D01*
X129801Y151287D01*
X129802Y151286D01*
X129801Y151268D01*
X129823Y151186D01*
X129835Y151102D01*
X129858Y151049D01*
X129873Y150993D01*
X129916Y150920D01*
X129951Y150843D01*
X129989Y150798D01*
X130018Y150748D01*
X130080Y150690D01*
X130134Y150626D01*
X130183Y150594D01*
X130226Y150554D01*
X130301Y150515D01*
X130371Y150468D01*
X130427Y150451D01*
X130479Y150424D01*
X130547Y150413D01*
X130642Y150383D01*
X130742Y150380D01*
X130810Y150369D01*
X134841Y150369D01*
X137669Y147541D01*
X137669Y145088D01*
X137681Y145002D01*
X137684Y144914D01*
X137701Y144861D01*
X137709Y144807D01*
X137744Y144727D01*
X137771Y144644D01*
X137799Y144604D01*
X137825Y144547D01*
X137921Y144434D01*
X137966Y144370D01*
X139955Y142382D01*
X139955Y137988D01*
X139963Y137930D01*
X139961Y137872D01*
X139983Y137790D01*
X139995Y137706D01*
X140018Y137653D01*
X140033Y137597D01*
X140076Y137524D01*
X140111Y137447D01*
X140149Y137402D01*
X140178Y137352D01*
X140240Y137294D01*
X140294Y137230D01*
X140343Y137198D01*
X140386Y137158D01*
X140461Y137119D01*
X140531Y137072D01*
X140587Y137055D01*
X140639Y137028D01*
X140707Y137017D01*
X140802Y136987D01*
X140902Y136984D01*
X140970Y136973D01*
X141028Y136981D01*
X141086Y136979D01*
X141168Y137001D01*
X141252Y137013D01*
X141305Y137036D01*
X141361Y137051D01*
X141434Y137094D01*
X141511Y137129D01*
X141556Y137167D01*
X141606Y137196D01*
X141664Y137258D01*
X141728Y137312D01*
X141760Y137361D01*
X141800Y137404D01*
X141839Y137479D01*
X141886Y137549D01*
X141903Y137605D01*
X141930Y137657D01*
X141941Y137725D01*
X141971Y137820D01*
X141974Y137920D01*
X141985Y137988D01*
X141985Y159632D01*
X141973Y159719D01*
X141970Y159806D01*
X141953Y159859D01*
X141945Y159914D01*
X141910Y159993D01*
X141883Y160077D01*
X141855Y160116D01*
X141829Y160173D01*
X141733Y160286D01*
X141688Y160350D01*
X140461Y161577D01*
X140461Y165575D01*
X143289Y168403D01*
X147287Y168403D01*
X150115Y165575D01*
X150115Y161577D01*
X148888Y160350D01*
X148836Y160280D01*
X148776Y160216D01*
X148750Y160167D01*
X148717Y160123D01*
X148686Y160041D01*
X148646Y159963D01*
X148638Y159916D01*
X148616Y159857D01*
X148604Y159710D01*
X148591Y159632D01*
X148591Y137988D01*
X148599Y137930D01*
X148597Y137872D01*
X148619Y137790D01*
X148631Y137706D01*
X148654Y137653D01*
X148669Y137597D01*
X148712Y137524D01*
X148747Y137447D01*
X148785Y137402D01*
X148814Y137352D01*
X148876Y137294D01*
X148930Y137230D01*
X148979Y137198D01*
X149022Y137158D01*
X149097Y137119D01*
X149167Y137072D01*
X149223Y137055D01*
X149275Y137028D01*
X149343Y137017D01*
X149438Y136987D01*
X149538Y136984D01*
X149606Y136973D01*
X149664Y136981D01*
X149722Y136979D01*
X149804Y137001D01*
X149888Y137013D01*
X149941Y137036D01*
X149997Y137051D01*
X150070Y137094D01*
X150147Y137129D01*
X150192Y137167D01*
X150242Y137196D01*
X150300Y137258D01*
X150364Y137312D01*
X150396Y137361D01*
X150436Y137404D01*
X150475Y137479D01*
X150522Y137549D01*
X150539Y137605D01*
X150566Y137657D01*
X150577Y137725D01*
X150607Y137820D01*
X150610Y137920D01*
X150621Y137988D01*
X150621Y139334D01*
X156674Y145386D01*
X156726Y145456D01*
X156786Y145520D01*
X156812Y145569D01*
X156845Y145613D01*
X156876Y145695D01*
X156916Y145773D01*
X156924Y145821D01*
X156946Y145879D01*
X156958Y146027D01*
X156971Y146104D01*
X156971Y148557D01*
X159799Y151385D01*
X163797Y151385D01*
X166625Y148557D01*
X166625Y144559D01*
X163797Y141731D01*
X161344Y141731D01*
X161258Y141719D01*
X161170Y141716D01*
X161117Y141699D01*
X161063Y141691D01*
X160983Y141656D01*
X160900Y141629D01*
X160860Y141601D01*
X160803Y141575D01*
X160690Y141479D01*
X160626Y141434D01*
X157464Y138272D01*
X157429Y138225D01*
X157387Y138185D01*
X157344Y138112D01*
X157293Y138045D01*
X157273Y137990D01*
X157243Y137940D01*
X157222Y137858D01*
X157192Y137779D01*
X157187Y137721D01*
X157173Y137664D01*
X157176Y137580D01*
X157169Y137496D01*
X157180Y137439D01*
X157182Y137380D01*
X157208Y137300D01*
X157225Y137217D01*
X157251Y137165D01*
X157269Y137110D01*
X157310Y137053D01*
X157356Y136965D01*
X157424Y136892D01*
X157464Y136836D01*
X158370Y135931D01*
X158370Y121757D01*
X157328Y120715D01*
X133248Y120715D01*
X132206Y121757D01*
X132206Y135931D01*
X133248Y136973D01*
X133350Y136973D01*
X133408Y136981D01*
X133466Y136979D01*
X133548Y137001D01*
X133632Y137013D01*
X133685Y137036D01*
X133741Y137051D01*
X133814Y137094D01*
X133891Y137129D01*
X133936Y137167D01*
X133986Y137196D01*
X134044Y137258D01*
X134108Y137312D01*
X134140Y137361D01*
X134180Y137404D01*
X134219Y137479D01*
X134266Y137549D01*
X134283Y137605D01*
X134310Y137657D01*
X134321Y137725D01*
X134351Y137820D01*
X134354Y137920D01*
X134365Y137988D01*
X134365Y139646D01*
X134353Y139732D01*
X134350Y139820D01*
X134333Y139873D01*
X134325Y139927D01*
X134290Y140007D01*
X134263Y140090D01*
X134235Y140130D01*
X134209Y140187D01*
X134113Y140300D01*
X134068Y140364D01*
X134014Y140418D01*
X133944Y140470D01*
X133880Y140530D01*
X133831Y140556D01*
X133787Y140589D01*
X133705Y140620D01*
X133627Y140660D01*
X133579Y140668D01*
X133521Y140690D01*
X133373Y140702D01*
X133296Y140715D01*
X130810Y140715D01*
X130752Y140707D01*
X130694Y140709D01*
X130612Y140687D01*
X130528Y140675D01*
X130475Y140652D01*
X130419Y140637D01*
X130346Y140594D01*
X130269Y140559D01*
X130224Y140521D01*
X130174Y140492D01*
X130116Y140430D01*
X130052Y140376D01*
X130020Y140327D01*
X129980Y140284D01*
X129941Y140209D01*
X129894Y140139D01*
X129877Y140083D01*
X129850Y140031D01*
X129839Y139963D01*
X129809Y139868D01*
X129806Y139768D01*
X129795Y139700D01*
X129795Y108434D01*
X129799Y108405D01*
X129796Y108376D01*
X129819Y108265D01*
X129835Y108153D01*
X129847Y108126D01*
X129852Y108097D01*
X129905Y107996D01*
X129951Y107893D01*
X129970Y107871D01*
X129983Y107845D01*
X130061Y107763D01*
X130134Y107676D01*
X130159Y107660D01*
X130179Y107639D01*
X130277Y107582D01*
X130371Y107519D01*
X130399Y107510D01*
X130424Y107495D01*
X130534Y107467D01*
X130642Y107433D01*
X130672Y107432D01*
X130700Y107425D01*
X130813Y107428D01*
X130926Y107426D01*
X130955Y107433D01*
X130984Y107434D01*
X131092Y107469D01*
X131201Y107497D01*
X131227Y107512D01*
X131255Y107521D01*
X131319Y107567D01*
X131446Y107643D01*
X131489Y107688D01*
X131528Y107716D01*
X132876Y109064D01*
X132892Y109086D01*
X132912Y109103D01*
X132944Y109151D01*
X132988Y109198D01*
X133014Y109247D01*
X133047Y109291D01*
X133059Y109323D01*
X133070Y109340D01*
X133085Y109386D01*
X133118Y109451D01*
X133126Y109499D01*
X133148Y109557D01*
X133151Y109597D01*
X133156Y109611D01*
X133157Y109666D01*
X133160Y109705D01*
X133173Y109782D01*
X133173Y112235D01*
X136001Y115063D01*
X138454Y115063D01*
X138540Y115075D01*
X138628Y115078D01*
X138681Y115095D01*
X138735Y115103D01*
X138815Y115138D01*
X138898Y115165D01*
X138938Y115193D01*
X138995Y115219D01*
X139108Y115315D01*
X139172Y115360D01*
X141160Y117349D01*
X178809Y117349D01*
X178896Y117361D01*
X178983Y117364D01*
X179036Y117381D01*
X179091Y117389D01*
X179170Y117424D01*
X179254Y117451D01*
X179293Y117479D01*
X179350Y117505D01*
X179463Y117601D01*
X179527Y117646D01*
X181262Y119381D01*
X185260Y119381D01*
X188088Y116553D01*
X188088Y112555D01*
X185260Y109727D01*
X184284Y109727D01*
X184255Y109723D01*
X184225Y109726D01*
X184114Y109703D01*
X184002Y109687D01*
X183976Y109675D01*
X183947Y109670D01*
X183846Y109617D01*
X183743Y109571D01*
X183720Y109552D01*
X183694Y109539D01*
X183612Y109461D01*
X183526Y109388D01*
X183510Y109363D01*
X183488Y109343D01*
X183431Y109245D01*
X183368Y109151D01*
X183359Y109123D01*
X183345Y109098D01*
X183317Y108988D01*
X183282Y108880D01*
X183282Y108850D01*
X183275Y108822D01*
X183278Y108709D01*
X183275Y108596D01*
X183283Y108567D01*
X183284Y108538D01*
X183318Y108430D01*
X183347Y108321D01*
X183362Y108295D01*
X183371Y108267D01*
X183417Y108203D01*
X183492Y108076D01*
X183538Y108033D01*
X183566Y107994D01*
X184659Y106901D01*
X184659Y102903D01*
X181831Y100075D01*
X177833Y100075D01*
X176098Y101810D01*
X176028Y101862D01*
X175964Y101922D01*
X175915Y101948D01*
X175871Y101981D01*
X175789Y102012D01*
X175711Y102052D01*
X175664Y102060D01*
X175605Y102082D01*
X175458Y102094D01*
X175380Y102107D01*
X157360Y102107D01*
X157273Y102095D01*
X157186Y102092D01*
X157133Y102075D01*
X157078Y102067D01*
X156999Y102032D01*
X156915Y102005D01*
X156876Y101977D01*
X156819Y101951D01*
X156706Y101855D01*
X156642Y101810D01*
X154907Y100075D01*
X152454Y100075D01*
X152368Y100063D01*
X152280Y100060D01*
X152227Y100043D01*
X152173Y100035D01*
X152093Y100000D01*
X152010Y99973D01*
X151970Y99945D01*
X151913Y99919D01*
X151800Y99823D01*
X151736Y99778D01*
X117392Y65434D01*
X117340Y65364D01*
X117280Y65300D01*
X117254Y65251D01*
X117221Y65207D01*
X117190Y65125D01*
X117150Y65047D01*
X117142Y64999D01*
X117120Y64941D01*
X117108Y64793D01*
X117095Y64716D01*
X117095Y25381D01*
X117095Y25380D01*
X117095Y25378D01*
X117115Y25237D01*
X117135Y25100D01*
X117135Y25098D01*
X117135Y25097D01*
X117194Y24967D01*
X117251Y24840D01*
X117252Y24839D01*
X117253Y24838D01*
X117344Y24730D01*
X117434Y24623D01*
X117436Y24622D01*
X117437Y24621D01*
X117450Y24613D01*
X117671Y24466D01*
X117700Y24456D01*
X117721Y24443D01*
X119984Y23506D01*
X122806Y20684D01*
X124334Y16996D01*
X124334Y13004D01*
X122806Y9316D01*
X120431Y6941D01*
X120413Y6917D01*
X120391Y6898D01*
X120328Y6804D01*
X120260Y6714D01*
X120249Y6686D01*
X120233Y6662D01*
X120199Y6554D01*
X120159Y6448D01*
X120156Y6419D01*
X120147Y6391D01*
X120144Y6277D01*
X120135Y6165D01*
X120141Y6136D01*
X120140Y6107D01*
X120169Y5997D01*
X120191Y5886D01*
X120204Y5860D01*
X120212Y5832D01*
X120270Y5734D01*
X120322Y5634D01*
X120342Y5612D01*
X120357Y5587D01*
X120440Y5510D01*
X120518Y5428D01*
X120543Y5413D01*
X120564Y5393D01*
X120665Y5341D01*
X120763Y5284D01*
X120791Y5277D01*
X120818Y5263D01*
X120895Y5250D01*
X121038Y5214D01*
X121101Y5216D01*
X121149Y5208D01*
X132851Y5208D01*
X132880Y5212D01*
G37*
G36*
X77909Y5216D02*
X77909Y5216D01*
X77967Y5214D01*
X78049Y5236D01*
X78133Y5248D01*
X78186Y5271D01*
X78242Y5286D01*
X78315Y5329D01*
X78392Y5364D01*
X78437Y5402D01*
X78487Y5431D01*
X78545Y5493D01*
X78609Y5547D01*
X78641Y5596D01*
X78681Y5639D01*
X78720Y5714D01*
X78767Y5784D01*
X78784Y5840D01*
X78811Y5892D01*
X78822Y5960D01*
X78852Y6055D01*
X78855Y6155D01*
X78866Y6223D01*
X78866Y23992D01*
X79908Y25034D01*
X85090Y25034D01*
X85148Y25042D01*
X85206Y25040D01*
X85288Y25062D01*
X85372Y25074D01*
X85425Y25097D01*
X85481Y25112D01*
X85554Y25155D01*
X85631Y25190D01*
X85676Y25228D01*
X85726Y25257D01*
X85784Y25319D01*
X85848Y25373D01*
X85880Y25422D01*
X85920Y25465D01*
X85959Y25540D01*
X86006Y25610D01*
X86023Y25666D01*
X86050Y25718D01*
X86061Y25786D01*
X86091Y25881D01*
X86094Y25981D01*
X86105Y26049D01*
X86105Y62294D01*
X95786Y71974D01*
X95821Y72021D01*
X95863Y72061D01*
X95906Y72134D01*
X95957Y72201D01*
X95978Y72256D01*
X96007Y72307D01*
X96028Y72388D01*
X96058Y72467D01*
X96063Y72525D01*
X96077Y72582D01*
X96075Y72666D01*
X96082Y72750D01*
X96070Y72808D01*
X96068Y72866D01*
X96042Y72946D01*
X96026Y73029D01*
X95999Y73081D01*
X95981Y73137D01*
X95941Y73193D01*
X95895Y73281D01*
X95826Y73354D01*
X95786Y73410D01*
X92709Y76487D01*
X92709Y80485D01*
X95537Y83313D01*
X97990Y83313D01*
X98076Y83325D01*
X98164Y83328D01*
X98217Y83345D01*
X98271Y83353D01*
X98351Y83388D01*
X98434Y83415D01*
X98474Y83443D01*
X98531Y83469D01*
X98644Y83565D01*
X98708Y83610D01*
X123908Y108810D01*
X123960Y108880D01*
X124020Y108944D01*
X124046Y108993D01*
X124079Y109037D01*
X124110Y109119D01*
X124150Y109197D01*
X124158Y109245D01*
X124180Y109303D01*
X124192Y109451D01*
X124205Y109528D01*
X124205Y174619D01*
X124205Y174620D01*
X124205Y174622D01*
X124185Y174762D01*
X124165Y174900D01*
X124165Y174902D01*
X124165Y174903D01*
X124108Y175029D01*
X124049Y175160D01*
X124048Y175161D01*
X124047Y175162D01*
X123956Y175270D01*
X123866Y175377D01*
X123864Y175378D01*
X123863Y175379D01*
X123850Y175387D01*
X123629Y175534D01*
X123600Y175544D01*
X123579Y175557D01*
X121316Y176494D01*
X118494Y179316D01*
X116966Y183004D01*
X116966Y186996D01*
X118494Y190684D01*
X120869Y193059D01*
X120887Y193083D01*
X120909Y193102D01*
X120972Y193196D01*
X121040Y193286D01*
X121051Y193314D01*
X121067Y193338D01*
X121101Y193446D01*
X121141Y193552D01*
X121144Y193581D01*
X121153Y193609D01*
X121156Y193723D01*
X121165Y193835D01*
X121159Y193864D01*
X121160Y193893D01*
X121131Y194003D01*
X121109Y194114D01*
X121096Y194140D01*
X121088Y194168D01*
X121030Y194266D01*
X120978Y194366D01*
X120958Y194388D01*
X120943Y194413D01*
X120860Y194490D01*
X120782Y194572D01*
X120757Y194587D01*
X120736Y194607D01*
X120635Y194659D01*
X120537Y194716D01*
X120509Y194723D01*
X120482Y194737D01*
X120405Y194750D01*
X120262Y194786D01*
X120199Y194784D01*
X120151Y194792D01*
X112649Y194792D01*
X112591Y194784D01*
X112533Y194786D01*
X112451Y194764D01*
X112367Y194752D01*
X112314Y194729D01*
X112258Y194714D01*
X112185Y194671D01*
X112108Y194636D01*
X112063Y194598D01*
X112013Y194569D01*
X111955Y194507D01*
X111891Y194453D01*
X111859Y194404D01*
X111819Y194361D01*
X111780Y194286D01*
X111733Y194216D01*
X111716Y194160D01*
X111689Y194108D01*
X111678Y194040D01*
X111648Y193945D01*
X111645Y193845D01*
X111634Y193777D01*
X111634Y176008D01*
X110592Y174966D01*
X92608Y174966D01*
X91566Y176008D01*
X91566Y193777D01*
X91558Y193835D01*
X91560Y193893D01*
X91538Y193975D01*
X91526Y194059D01*
X91503Y194112D01*
X91488Y194168D01*
X91445Y194241D01*
X91410Y194318D01*
X91372Y194363D01*
X91343Y194413D01*
X91281Y194471D01*
X91227Y194535D01*
X91178Y194567D01*
X91135Y194607D01*
X91060Y194646D01*
X90990Y194693D01*
X90934Y194710D01*
X90882Y194737D01*
X90814Y194748D01*
X90719Y194778D01*
X90619Y194781D01*
X90551Y194792D01*
X6223Y194792D01*
X6165Y194784D01*
X6107Y194786D01*
X6025Y194764D01*
X5941Y194752D01*
X5888Y194729D01*
X5832Y194714D01*
X5759Y194671D01*
X5682Y194636D01*
X5637Y194598D01*
X5587Y194569D01*
X5529Y194507D01*
X5465Y194453D01*
X5433Y194404D01*
X5393Y194361D01*
X5354Y194286D01*
X5307Y194216D01*
X5290Y194160D01*
X5263Y194108D01*
X5252Y194040D01*
X5222Y193945D01*
X5219Y193845D01*
X5208Y193777D01*
X5208Y34229D01*
X5220Y34144D01*
X5222Y34058D01*
X5240Y34004D01*
X5248Y33948D01*
X5283Y33869D01*
X5309Y33787D01*
X5341Y33740D01*
X5364Y33688D01*
X5419Y33623D01*
X5467Y33551D01*
X5511Y33515D01*
X5547Y33471D01*
X5619Y33424D01*
X5685Y33368D01*
X5737Y33345D01*
X5784Y33314D01*
X5866Y33288D01*
X5945Y33253D01*
X6001Y33245D01*
X6055Y33228D01*
X6141Y33226D01*
X6226Y33214D01*
X6282Y33222D01*
X6339Y33220D01*
X6422Y33242D01*
X6507Y33254D01*
X6559Y33278D01*
X6614Y33292D01*
X6688Y33336D01*
X6767Y33372D01*
X6810Y33408D01*
X6859Y33438D01*
X6918Y33500D01*
X6983Y33556D01*
X7009Y33598D01*
X7053Y33645D01*
X7119Y33774D01*
X7161Y33841D01*
X8376Y36775D01*
X14025Y42424D01*
X21406Y45481D01*
X29394Y45481D01*
X36775Y42424D01*
X42424Y36775D01*
X45481Y29394D01*
X45481Y21406D01*
X42424Y14025D01*
X36775Y8376D01*
X33840Y7161D01*
X33767Y7117D01*
X33688Y7082D01*
X33645Y7045D01*
X33596Y7016D01*
X33537Y6954D01*
X33471Y6898D01*
X33440Y6851D01*
X33400Y6810D01*
X33361Y6733D01*
X33313Y6662D01*
X33296Y6608D01*
X33270Y6557D01*
X33254Y6473D01*
X33228Y6391D01*
X33226Y6334D01*
X33215Y6278D01*
X33223Y6193D01*
X33220Y6107D01*
X33235Y6052D01*
X33240Y5995D01*
X33271Y5915D01*
X33292Y5832D01*
X33321Y5783D01*
X33342Y5730D01*
X33394Y5661D01*
X33437Y5587D01*
X33479Y5548D01*
X33513Y5503D01*
X33582Y5451D01*
X33645Y5393D01*
X33696Y5367D01*
X33741Y5333D01*
X33821Y5302D01*
X33898Y5263D01*
X33947Y5255D01*
X34007Y5232D01*
X34152Y5221D01*
X34229Y5208D01*
X77851Y5208D01*
X77909Y5216D01*
G37*
G36*
X107480Y5212D02*
X107480Y5212D01*
X107510Y5209D01*
X107621Y5232D01*
X107733Y5248D01*
X107760Y5260D01*
X107788Y5265D01*
X107889Y5318D01*
X107992Y5364D01*
X108015Y5383D01*
X108041Y5396D01*
X108123Y5474D01*
X108209Y5547D01*
X108226Y5572D01*
X108247Y5592D01*
X108304Y5690D01*
X108367Y5784D01*
X108376Y5812D01*
X108391Y5837D01*
X108418Y5947D01*
X108453Y6055D01*
X108453Y6085D01*
X108461Y6113D01*
X108457Y6226D01*
X108460Y6339D01*
X108453Y6368D01*
X108452Y6397D01*
X108417Y6505D01*
X108388Y6614D01*
X108373Y6640D01*
X108364Y6668D01*
X108319Y6731D01*
X108243Y6859D01*
X108197Y6902D01*
X108169Y6941D01*
X105794Y9316D01*
X104266Y13004D01*
X104266Y16996D01*
X105794Y20684D01*
X108616Y23506D01*
X110879Y24443D01*
X110880Y24444D01*
X110881Y24444D01*
X111002Y24516D01*
X111123Y24588D01*
X111124Y24589D01*
X111126Y24590D01*
X111223Y24694D01*
X111319Y24794D01*
X111319Y24796D01*
X111320Y24797D01*
X111384Y24922D01*
X111449Y25047D01*
X111449Y25049D01*
X111450Y25050D01*
X111452Y25065D01*
X111504Y25326D01*
X111501Y25357D01*
X111505Y25381D01*
X111505Y67452D01*
X147784Y103730D01*
X147836Y103800D01*
X147896Y103864D01*
X147922Y103913D01*
X147955Y103957D01*
X147986Y104039D01*
X148026Y104117D01*
X148034Y104165D01*
X148056Y104223D01*
X148068Y104371D01*
X148081Y104448D01*
X148081Y106901D01*
X150909Y109729D01*
X154907Y109729D01*
X156642Y107994D01*
X156712Y107942D01*
X156776Y107882D01*
X156825Y107856D01*
X156869Y107823D01*
X156951Y107792D01*
X157029Y107752D01*
X157076Y107744D01*
X157135Y107722D01*
X157282Y107710D01*
X157360Y107697D01*
X175380Y107697D01*
X175467Y107709D01*
X175554Y107712D01*
X175607Y107729D01*
X175662Y107737D01*
X175741Y107772D01*
X175825Y107799D01*
X175864Y107827D01*
X175921Y107853D01*
X176034Y107949D01*
X176098Y107994D01*
X177833Y109729D01*
X178809Y109729D01*
X178859Y109736D01*
X178909Y109734D01*
X178999Y109756D01*
X179091Y109769D01*
X179136Y109789D01*
X179185Y109801D01*
X179266Y109847D01*
X179350Y109885D01*
X179388Y109917D01*
X179432Y109942D01*
X179496Y110009D01*
X179567Y110068D01*
X179595Y110110D01*
X179630Y110146D01*
X179673Y110228D01*
X179725Y110305D01*
X179740Y110353D01*
X179763Y110397D01*
X179783Y110488D01*
X179811Y110576D01*
X179812Y110626D01*
X179822Y110675D01*
X179815Y110768D01*
X179818Y110860D01*
X179805Y110909D01*
X179802Y110959D01*
X179769Y111046D01*
X179746Y111135D01*
X179720Y111178D01*
X179703Y111225D01*
X179648Y111300D01*
X179601Y111380D01*
X179564Y111414D01*
X179535Y111454D01*
X179475Y111498D01*
X179393Y111574D01*
X179337Y111603D01*
X179315Y111615D01*
X179263Y111652D01*
X179200Y111673D01*
X179140Y111704D01*
X179077Y111714D01*
X178994Y111742D01*
X178882Y111747D01*
X178809Y111759D01*
X143896Y111759D01*
X143810Y111747D01*
X143722Y111744D01*
X143669Y111727D01*
X143615Y111719D01*
X143535Y111684D01*
X143452Y111657D01*
X143412Y111629D01*
X143355Y111603D01*
X143242Y111507D01*
X143178Y111462D01*
X143124Y111408D01*
X143072Y111338D01*
X143012Y111274D01*
X142986Y111225D01*
X142953Y111181D01*
X142922Y111099D01*
X142882Y111021D01*
X142874Y110973D01*
X142852Y110915D01*
X142840Y110767D01*
X142827Y110690D01*
X142827Y108237D01*
X139999Y105409D01*
X137546Y105409D01*
X137460Y105397D01*
X137372Y105394D01*
X137319Y105377D01*
X137265Y105369D01*
X137185Y105334D01*
X137102Y105307D01*
X137062Y105279D01*
X137005Y105253D01*
X136892Y105157D01*
X136828Y105112D01*
X91992Y60276D01*
X91940Y60206D01*
X91880Y60142D01*
X91854Y60093D01*
X91821Y60049D01*
X91790Y59967D01*
X91750Y59889D01*
X91742Y59841D01*
X91720Y59783D01*
X91708Y59635D01*
X91695Y59558D01*
X91695Y26049D01*
X91703Y25991D01*
X91701Y25933D01*
X91723Y25851D01*
X91735Y25767D01*
X91758Y25714D01*
X91773Y25658D01*
X91816Y25585D01*
X91851Y25508D01*
X91889Y25463D01*
X91918Y25413D01*
X91980Y25355D01*
X92034Y25291D01*
X92083Y25259D01*
X92126Y25219D01*
X92201Y25180D01*
X92271Y25133D01*
X92327Y25116D01*
X92379Y25089D01*
X92447Y25078D01*
X92542Y25048D01*
X92642Y25045D01*
X92710Y25034D01*
X97892Y25034D01*
X98934Y23992D01*
X98934Y6223D01*
X98942Y6165D01*
X98940Y6107D01*
X98962Y6025D01*
X98974Y5941D01*
X98997Y5888D01*
X99012Y5832D01*
X99055Y5759D01*
X99090Y5682D01*
X99128Y5637D01*
X99157Y5587D01*
X99219Y5529D01*
X99273Y5465D01*
X99322Y5433D01*
X99365Y5393D01*
X99440Y5354D01*
X99510Y5307D01*
X99566Y5290D01*
X99618Y5263D01*
X99686Y5252D01*
X99781Y5222D01*
X99881Y5219D01*
X99949Y5208D01*
X107451Y5208D01*
X107480Y5212D01*
G37*
%LPC*%
G36*
X122207Y47751D02*
X122207Y47751D01*
X119379Y50579D01*
X119379Y54577D01*
X122207Y57405D01*
X126205Y57405D01*
X127940Y55670D01*
X128010Y55618D01*
X128074Y55558D01*
X128123Y55532D01*
X128167Y55499D01*
X128249Y55468D01*
X128327Y55428D01*
X128374Y55420D01*
X128433Y55398D01*
X128580Y55386D01*
X128658Y55373D01*
X151076Y55373D01*
X151162Y55385D01*
X151250Y55388D01*
X151303Y55405D01*
X151357Y55413D01*
X151437Y55448D01*
X151520Y55475D01*
X151560Y55503D01*
X151617Y55529D01*
X151730Y55625D01*
X151794Y55670D01*
X197086Y100962D01*
X197096Y100976D01*
X197102Y100981D01*
X197120Y101007D01*
X197138Y101032D01*
X197198Y101096D01*
X197224Y101145D01*
X197257Y101189D01*
X197288Y101271D01*
X197328Y101349D01*
X197336Y101397D01*
X197358Y101455D01*
X197370Y101603D01*
X197383Y101680D01*
X197383Y145432D01*
X197383Y145434D01*
X197383Y145435D01*
X197363Y145575D01*
X197343Y145714D01*
X197343Y145715D01*
X197343Y145717D01*
X197286Y145843D01*
X197227Y145973D01*
X197226Y145974D01*
X197225Y145976D01*
X197134Y146083D01*
X197044Y146190D01*
X197042Y146191D01*
X197041Y146192D01*
X197028Y146201D01*
X196807Y146348D01*
X196778Y146357D01*
X196757Y146370D01*
X195749Y146788D01*
X193550Y148987D01*
X192359Y151861D01*
X192359Y154971D01*
X193550Y157845D01*
X195749Y160044D01*
X198623Y161235D01*
X201733Y161235D01*
X204607Y160044D01*
X206806Y157845D01*
X207997Y154971D01*
X207997Y151861D01*
X206806Y148987D01*
X204607Y146788D01*
X203599Y146370D01*
X203598Y146369D01*
X203597Y146369D01*
X203478Y146299D01*
X203355Y146226D01*
X203354Y146225D01*
X203352Y146224D01*
X203257Y146122D01*
X203159Y146019D01*
X203159Y146018D01*
X203158Y146017D01*
X203095Y145895D01*
X203029Y145766D01*
X203029Y145765D01*
X203028Y145763D01*
X203026Y145749D01*
X202974Y145487D01*
X202977Y145457D01*
X202973Y145432D01*
X202973Y98944D01*
X153812Y49783D01*
X128658Y49783D01*
X128571Y49771D01*
X128484Y49768D01*
X128431Y49751D01*
X128376Y49743D01*
X128297Y49708D01*
X128213Y49681D01*
X128174Y49653D01*
X128117Y49627D01*
X128004Y49531D01*
X127940Y49486D01*
X126205Y47751D01*
X122207Y47751D01*
G37*
%LPD*%
%LPC*%
G36*
X102174Y95282D02*
X102174Y95282D01*
X99346Y98110D01*
X99346Y100563D01*
X99334Y100649D01*
X99331Y100737D01*
X99314Y100790D01*
X99306Y100844D01*
X99271Y100924D01*
X99244Y101007D01*
X99216Y101047D01*
X99190Y101104D01*
X99094Y101217D01*
X99049Y101281D01*
X96041Y104289D01*
X95971Y104341D01*
X95907Y104401D01*
X95858Y104427D01*
X95814Y104460D01*
X95732Y104491D01*
X95654Y104531D01*
X95606Y104539D01*
X95548Y104561D01*
X95400Y104573D01*
X95323Y104586D01*
X83845Y104586D01*
X82803Y105628D01*
X82803Y109717D01*
X82799Y109747D01*
X82802Y109776D01*
X82779Y109887D01*
X82763Y109999D01*
X82751Y110026D01*
X82746Y110054D01*
X82694Y110155D01*
X82647Y110258D01*
X82628Y110281D01*
X82615Y110307D01*
X82537Y110389D01*
X82464Y110475D01*
X82439Y110492D01*
X82419Y110513D01*
X82321Y110570D01*
X82227Y110633D01*
X82199Y110642D01*
X82174Y110657D01*
X82064Y110685D01*
X81956Y110719D01*
X81926Y110720D01*
X81898Y110727D01*
X81785Y110723D01*
X81672Y110726D01*
X81643Y110719D01*
X81614Y110718D01*
X81506Y110683D01*
X81397Y110654D01*
X81371Y110639D01*
X81343Y110630D01*
X81280Y110585D01*
X81152Y110509D01*
X81109Y110463D01*
X81070Y110435D01*
X75990Y105355D01*
X75938Y105285D01*
X75878Y105222D01*
X75852Y105172D01*
X75819Y105128D01*
X75788Y105046D01*
X75748Y104968D01*
X75740Y104921D01*
X75718Y104862D01*
X75706Y104715D01*
X75693Y104637D01*
X75693Y102903D01*
X72865Y100075D01*
X68867Y100075D01*
X66039Y102903D01*
X66039Y106901D01*
X68867Y109729D01*
X70601Y109729D01*
X70688Y109741D01*
X70775Y109744D01*
X70828Y109761D01*
X70883Y109769D01*
X70963Y109804D01*
X71046Y109831D01*
X71085Y109859D01*
X71142Y109885D01*
X71255Y109981D01*
X71319Y110026D01*
X82506Y121213D01*
X82558Y121283D01*
X82618Y121346D01*
X82644Y121396D01*
X82677Y121440D01*
X82685Y121462D01*
X83845Y122622D01*
X86614Y122622D01*
X86672Y122630D01*
X86730Y122628D01*
X86812Y122650D01*
X86896Y122662D01*
X86949Y122685D01*
X87005Y122700D01*
X87078Y122743D01*
X87155Y122778D01*
X87200Y122816D01*
X87250Y122845D01*
X87308Y122907D01*
X87372Y122961D01*
X87404Y123010D01*
X87444Y123053D01*
X87483Y123128D01*
X87530Y123198D01*
X87547Y123254D01*
X87574Y123306D01*
X87585Y123374D01*
X87615Y123469D01*
X87618Y123569D01*
X87629Y123637D01*
X87629Y126104D01*
X87617Y126191D01*
X87614Y126278D01*
X87597Y126331D01*
X87589Y126386D01*
X87554Y126465D01*
X87527Y126549D01*
X87499Y126588D01*
X87473Y126645D01*
X87377Y126758D01*
X87332Y126822D01*
X86160Y127994D01*
X86160Y131992D01*
X88988Y134820D01*
X92986Y134820D01*
X95814Y131992D01*
X95814Y127994D01*
X94532Y126712D01*
X94524Y126701D01*
X94520Y126698D01*
X94511Y126685D01*
X94480Y126642D01*
X94420Y126578D01*
X94394Y126529D01*
X94361Y126485D01*
X94330Y126403D01*
X94290Y126325D01*
X94282Y126278D01*
X94260Y126219D01*
X94248Y126072D01*
X94235Y125994D01*
X94235Y123637D01*
X94243Y123579D01*
X94241Y123521D01*
X94263Y123439D01*
X94275Y123355D01*
X94298Y123302D01*
X94313Y123246D01*
X94356Y123173D01*
X94391Y123096D01*
X94429Y123051D01*
X94458Y123001D01*
X94520Y122943D01*
X94574Y122879D01*
X94623Y122847D01*
X94666Y122807D01*
X94741Y122768D01*
X94811Y122721D01*
X94867Y122704D01*
X94919Y122677D01*
X94987Y122666D01*
X95082Y122636D01*
X95182Y122633D01*
X95250Y122622D01*
X98019Y122622D01*
X99061Y121580D01*
X99061Y109594D01*
X99073Y109508D01*
X99076Y109420D01*
X99093Y109367D01*
X99101Y109313D01*
X99136Y109233D01*
X99163Y109150D01*
X99191Y109110D01*
X99217Y109053D01*
X99313Y108940D01*
X99358Y108876D01*
X103001Y105233D01*
X103071Y105181D01*
X103135Y105121D01*
X103184Y105095D01*
X103228Y105062D01*
X103310Y105031D01*
X103388Y104991D01*
X103436Y104983D01*
X103494Y104961D01*
X103642Y104949D01*
X103719Y104936D01*
X106172Y104936D01*
X109000Y102108D01*
X109000Y98110D01*
X106172Y95282D01*
X102174Y95282D01*
G37*
%LPD*%
%LPC*%
G36*
X233623Y145597D02*
X233623Y145597D01*
X230749Y146788D01*
X228550Y148987D01*
X227359Y151861D01*
X227359Y154971D01*
X228550Y157845D01*
X230749Y160044D01*
X233623Y161235D01*
X236733Y161235D01*
X239607Y160044D01*
X241806Y157845D01*
X242997Y154971D01*
X242997Y151861D01*
X241806Y148987D01*
X239607Y146788D01*
X236733Y145597D01*
X233623Y145597D01*
G37*
%LPD*%
%LPC*%
G36*
X167131Y17031D02*
X167131Y17031D01*
X167131Y25609D01*
X167628Y25530D01*
X169244Y25005D01*
X170758Y24233D01*
X172133Y23234D01*
X173334Y22033D01*
X174333Y20658D01*
X175105Y19144D01*
X175630Y17528D01*
X175709Y17031D01*
X167131Y17031D01*
G37*
%LPD*%
%LPC*%
G36*
X154491Y17031D02*
X154491Y17031D01*
X154570Y17528D01*
X155095Y19144D01*
X155867Y20658D01*
X156866Y22033D01*
X158067Y23234D01*
X159442Y24233D01*
X160956Y25005D01*
X162572Y25530D01*
X163069Y25609D01*
X163069Y17031D01*
X154491Y17031D01*
G37*
%LPD*%
D10*
X88900Y15000D03*
D11*
X114300Y15000D03*
X139700Y15000D03*
X165100Y15000D03*
D10*
X101600Y185000D03*
D11*
X127000Y185000D03*
X152400Y185000D03*
D12*
X153416Y128844D03*
X145288Y128844D03*
X137160Y128844D03*
D13*
X145288Y128844D02*
X153670Y128844D01*
X145288Y128844D02*
X136652Y128844D01*
D14*
X90932Y109540D03*
X90932Y117668D03*
D15*
X200178Y153416D03*
X235178Y153416D03*
D16*
X129540Y92202D03*
X125222Y87376D03*
X129032Y70104D03*
X125476Y62738D03*
X102362Y8636D03*
X127000Y8636D03*
X152146Y8890D03*
X88138Y83312D03*
X14986Y87122D03*
X14986Y102362D03*
X14986Y115062D03*
X192278Y15240D03*
X183388Y15494D03*
X242570Y86106D03*
X180086Y96774D03*
X138000Y110236D03*
D13*
X140501Y112737D01*
X88900Y61136D02*
X88900Y15000D01*
X88900Y61136D02*
X138000Y110236D01*
D16*
X183261Y114554D03*
D13*
X142318Y114554D01*
X140501Y112737D01*
D16*
X152908Y104902D03*
D13*
X114300Y66294D02*
X114300Y15000D01*
X114300Y66294D02*
X152908Y104902D01*
D16*
X179832Y104902D03*
D13*
X152908Y104902D01*
D16*
X132842Y145542D03*
D13*
X137160Y141224D02*
X137160Y128844D01*
X137160Y141224D02*
X132842Y145542D01*
D16*
X161798Y146558D03*
D13*
X153416Y138176D02*
X153416Y128844D01*
X153416Y138176D02*
X161798Y146558D01*
D17*
X145288Y163576D02*
X145288Y128844D01*
D16*
X145288Y163576D03*
D17*
X90932Y129938D02*
X90932Y117668D01*
X90932Y129938D02*
X90987Y129993D01*
D16*
X90987Y129993D03*
X70866Y104902D03*
D17*
X83632Y117668D02*
X90932Y117668D01*
X83632Y117668D02*
X70866Y104902D01*
D16*
X97536Y78486D03*
D13*
X127000Y107950D01*
X127000Y185000D01*
D16*
X184150Y128778D03*
D13*
X184150Y153250D01*
X152400Y185000D01*
D16*
X104173Y100109D03*
D13*
X94742Y109540D02*
X90932Y109540D01*
X94742Y109540D02*
X104173Y100109D01*
X200178Y100102D02*
X200178Y153416D01*
X152654Y52578D02*
X124206Y52578D01*
D16*
X124206Y52578D03*
D13*
X152654Y52578D02*
X200178Y100102D01*
M02*
