G04 EAGLE Gerber RS-274X export*
G75*
%MOMM*%
%FSLAX34Y34*%
%LPD*%
%AMOC8*
5,1,8,0,0,1.08239X$1,22.5*%
G01*
%ADD10C,0.222250*%
%ADD11R,1.651000X1.651000*%
%ADD12C,1.651000*%
%ADD13R,1.350000X0.600000*%
%ADD14R,2.000000X1.200000*%
%ADD15C,1.208000*%
%ADD16R,0.700000X0.400000*%
%ADD17R,1.100000X2.450000*%
%ADD18C,0.609600*%
%ADD19C,0.203200*%
%ADD20C,0.304800*%

G36*
X157203Y5212D02*
X157203Y5212D01*
X157232Y5209D01*
X157343Y5232D01*
X157455Y5248D01*
X157482Y5260D01*
X157511Y5265D01*
X157611Y5318D01*
X157715Y5364D01*
X157737Y5383D01*
X157763Y5396D01*
X157845Y5474D01*
X157932Y5547D01*
X157948Y5572D01*
X157969Y5592D01*
X158026Y5690D01*
X158089Y5784D01*
X158098Y5812D01*
X158113Y5837D01*
X158141Y5947D01*
X158175Y6055D01*
X158176Y6085D01*
X158183Y6113D01*
X158179Y6226D01*
X158182Y6339D01*
X158175Y6368D01*
X158174Y6397D01*
X158139Y6505D01*
X158111Y6614D01*
X158096Y6640D01*
X158087Y6668D01*
X158041Y6732D01*
X157965Y6859D01*
X157920Y6902D01*
X157892Y6941D01*
X156865Y7967D01*
X155867Y9342D01*
X155095Y10856D01*
X154570Y12472D01*
X154491Y12969D01*
X164084Y12969D01*
X164142Y12977D01*
X164200Y12975D01*
X164282Y12997D01*
X164365Y13009D01*
X164419Y13033D01*
X164475Y13047D01*
X164548Y13090D01*
X164625Y13125D01*
X164669Y13163D01*
X164720Y13193D01*
X164777Y13254D01*
X164842Y13309D01*
X164874Y13357D01*
X164914Y13400D01*
X164953Y13475D01*
X164999Y13545D01*
X165017Y13601D01*
X165044Y13653D01*
X165055Y13721D01*
X165085Y13816D01*
X165088Y13916D01*
X165099Y13984D01*
X165099Y15001D01*
X165101Y15001D01*
X165101Y13984D01*
X165109Y13926D01*
X165108Y13868D01*
X165129Y13786D01*
X165141Y13703D01*
X165165Y13649D01*
X165179Y13593D01*
X165222Y13520D01*
X165257Y13443D01*
X165295Y13398D01*
X165325Y13348D01*
X165386Y13290D01*
X165441Y13226D01*
X165489Y13194D01*
X165532Y13154D01*
X165607Y13115D01*
X165677Y13069D01*
X165733Y13051D01*
X165785Y13024D01*
X165853Y13013D01*
X165948Y12983D01*
X166048Y12980D01*
X166116Y12969D01*
X175709Y12969D01*
X175630Y12472D01*
X175105Y10856D01*
X174333Y9342D01*
X173335Y7967D01*
X172308Y6941D01*
X172291Y6917D01*
X172268Y6898D01*
X172206Y6804D01*
X172137Y6714D01*
X172127Y6686D01*
X172111Y6662D01*
X172077Y6554D01*
X172036Y6448D01*
X172034Y6419D01*
X172025Y6391D01*
X172022Y6277D01*
X172013Y6165D01*
X172018Y6136D01*
X172018Y6107D01*
X172046Y5997D01*
X172069Y5886D01*
X172082Y5860D01*
X172089Y5832D01*
X172147Y5734D01*
X172200Y5634D01*
X172220Y5612D01*
X172235Y5587D01*
X172317Y5510D01*
X172395Y5428D01*
X172421Y5413D01*
X172442Y5393D01*
X172543Y5341D01*
X172641Y5284D01*
X172669Y5277D01*
X172695Y5263D01*
X172773Y5250D01*
X172916Y5214D01*
X172979Y5216D01*
X173026Y5208D01*
X219771Y5208D01*
X219856Y5220D01*
X219942Y5222D01*
X219996Y5240D01*
X220053Y5248D01*
X220131Y5283D01*
X220213Y5309D01*
X220260Y5341D01*
X220312Y5364D01*
X220377Y5419D01*
X220449Y5467D01*
X220485Y5511D01*
X220529Y5547D01*
X220577Y5619D01*
X220632Y5685D01*
X220655Y5737D01*
X220687Y5784D01*
X220712Y5866D01*
X220747Y5945D01*
X220755Y6001D01*
X220772Y6055D01*
X220774Y6141D01*
X220786Y6226D01*
X220778Y6282D01*
X220780Y6339D01*
X220758Y6422D01*
X220746Y6508D01*
X220722Y6559D01*
X220708Y6614D01*
X220664Y6688D01*
X220628Y6767D01*
X220592Y6810D01*
X220563Y6859D01*
X220500Y6918D01*
X220444Y6983D01*
X220402Y7009D01*
X220355Y7053D01*
X220226Y7119D01*
X220160Y7161D01*
X217225Y8376D01*
X211576Y14025D01*
X208519Y21406D01*
X208519Y29394D01*
X211576Y36775D01*
X217225Y42424D01*
X224606Y45481D01*
X232594Y45481D01*
X239975Y42424D01*
X245624Y36775D01*
X246839Y33840D01*
X246883Y33767D01*
X246918Y33688D01*
X246955Y33645D01*
X246984Y33596D01*
X247046Y33537D01*
X247102Y33471D01*
X247149Y33440D01*
X247190Y33400D01*
X247267Y33361D01*
X247338Y33313D01*
X247392Y33296D01*
X247443Y33270D01*
X247527Y33254D01*
X247609Y33228D01*
X247666Y33226D01*
X247722Y33215D01*
X247807Y33223D01*
X247893Y33220D01*
X247948Y33235D01*
X248005Y33240D01*
X248085Y33271D01*
X248168Y33292D01*
X248217Y33321D01*
X248270Y33342D01*
X248339Y33394D01*
X248413Y33437D01*
X248452Y33479D01*
X248497Y33513D01*
X248549Y33582D01*
X248607Y33645D01*
X248633Y33696D01*
X248667Y33741D01*
X248698Y33821D01*
X248737Y33898D01*
X248745Y33947D01*
X248768Y34007D01*
X248779Y34152D01*
X248792Y34229D01*
X248792Y62444D01*
X248784Y62502D01*
X248786Y62560D01*
X248764Y62642D01*
X248752Y62726D01*
X248729Y62779D01*
X248714Y62835D01*
X248671Y62908D01*
X248636Y62985D01*
X248598Y63030D01*
X248569Y63080D01*
X248507Y63138D01*
X248453Y63202D01*
X248404Y63234D01*
X248361Y63274D01*
X248286Y63313D01*
X248216Y63360D01*
X248160Y63377D01*
X248108Y63404D01*
X248040Y63415D01*
X247945Y63445D01*
X247845Y63448D01*
X247777Y63459D01*
X240781Y63459D01*
X240781Y70984D01*
X240773Y71042D01*
X240774Y71100D01*
X240753Y71182D01*
X240741Y71265D01*
X240717Y71319D01*
X240703Y71375D01*
X240660Y71448D01*
X240625Y71525D01*
X240587Y71569D01*
X240557Y71620D01*
X240496Y71677D01*
X240441Y71742D01*
X240393Y71774D01*
X240350Y71814D01*
X240275Y71853D01*
X240205Y71899D01*
X240149Y71917D01*
X240097Y71944D01*
X240029Y71955D01*
X239934Y71985D01*
X239834Y71988D01*
X239766Y71999D01*
X238749Y71999D01*
X238749Y72001D01*
X239766Y72001D01*
X239824Y72009D01*
X239882Y72008D01*
X239964Y72029D01*
X240047Y72041D01*
X240101Y72065D01*
X240157Y72079D01*
X240230Y72122D01*
X240307Y72157D01*
X240351Y72195D01*
X240402Y72225D01*
X240459Y72286D01*
X240524Y72341D01*
X240556Y72389D01*
X240596Y72432D01*
X240635Y72507D01*
X240681Y72577D01*
X240699Y72633D01*
X240726Y72685D01*
X240737Y72753D01*
X240767Y72848D01*
X240770Y72948D01*
X240781Y73016D01*
X240781Y80541D01*
X247777Y80541D01*
X247835Y80549D01*
X247893Y80547D01*
X247975Y80569D01*
X248059Y80581D01*
X248112Y80604D01*
X248168Y80619D01*
X248241Y80662D01*
X248318Y80697D01*
X248363Y80735D01*
X248413Y80764D01*
X248471Y80826D01*
X248535Y80880D01*
X248567Y80929D01*
X248607Y80972D01*
X248646Y81047D01*
X248693Y81117D01*
X248710Y81173D01*
X248737Y81225D01*
X248748Y81293D01*
X248778Y81388D01*
X248781Y81488D01*
X248792Y81556D01*
X248792Y118444D01*
X248784Y118502D01*
X248786Y118560D01*
X248764Y118642D01*
X248752Y118726D01*
X248729Y118779D01*
X248714Y118835D01*
X248671Y118908D01*
X248636Y118985D01*
X248598Y119030D01*
X248569Y119080D01*
X248507Y119138D01*
X248453Y119202D01*
X248404Y119234D01*
X248361Y119274D01*
X248286Y119313D01*
X248216Y119360D01*
X248160Y119377D01*
X248108Y119404D01*
X248040Y119415D01*
X247945Y119445D01*
X247845Y119448D01*
X247777Y119459D01*
X240781Y119459D01*
X240781Y126984D01*
X240773Y127042D01*
X240774Y127100D01*
X240753Y127182D01*
X240741Y127265D01*
X240717Y127319D01*
X240703Y127375D01*
X240660Y127448D01*
X240625Y127525D01*
X240587Y127569D01*
X240557Y127620D01*
X240496Y127677D01*
X240441Y127742D01*
X240393Y127774D01*
X240350Y127814D01*
X240275Y127853D01*
X240205Y127899D01*
X240149Y127917D01*
X240097Y127944D01*
X240029Y127955D01*
X239934Y127985D01*
X239834Y127988D01*
X239766Y127999D01*
X238749Y127999D01*
X238749Y128001D01*
X239766Y128001D01*
X239824Y128009D01*
X239882Y128008D01*
X239964Y128029D01*
X240047Y128041D01*
X240101Y128065D01*
X240157Y128079D01*
X240230Y128122D01*
X240307Y128157D01*
X240351Y128195D01*
X240402Y128225D01*
X240459Y128286D01*
X240524Y128341D01*
X240556Y128389D01*
X240596Y128432D01*
X240635Y128507D01*
X240681Y128577D01*
X240699Y128633D01*
X240726Y128685D01*
X240737Y128753D01*
X240767Y128848D01*
X240770Y128948D01*
X240781Y129016D01*
X240781Y136541D01*
X247777Y136541D01*
X247835Y136549D01*
X247893Y136547D01*
X247975Y136569D01*
X248059Y136581D01*
X248112Y136604D01*
X248168Y136619D01*
X248241Y136662D01*
X248318Y136697D01*
X248363Y136735D01*
X248413Y136764D01*
X248471Y136826D01*
X248535Y136880D01*
X248567Y136929D01*
X248607Y136972D01*
X248646Y137047D01*
X248693Y137117D01*
X248710Y137173D01*
X248737Y137225D01*
X248748Y137293D01*
X248778Y137388D01*
X248781Y137488D01*
X248792Y137556D01*
X248792Y193777D01*
X248784Y193835D01*
X248786Y193893D01*
X248764Y193975D01*
X248752Y194059D01*
X248729Y194112D01*
X248714Y194168D01*
X248671Y194241D01*
X248636Y194318D01*
X248598Y194363D01*
X248569Y194413D01*
X248507Y194471D01*
X248453Y194535D01*
X248404Y194567D01*
X248361Y194607D01*
X248286Y194646D01*
X248216Y194693D01*
X248160Y194710D01*
X248108Y194737D01*
X248040Y194748D01*
X247945Y194778D01*
X247845Y194781D01*
X247777Y194792D01*
X159249Y194792D01*
X159220Y194788D01*
X159190Y194791D01*
X159079Y194768D01*
X158967Y194752D01*
X158940Y194740D01*
X158912Y194735D01*
X158811Y194682D01*
X158708Y194636D01*
X158685Y194617D01*
X158659Y194604D01*
X158577Y194526D01*
X158491Y194453D01*
X158474Y194428D01*
X158453Y194408D01*
X158396Y194310D01*
X158333Y194216D01*
X158324Y194188D01*
X158309Y194163D01*
X158282Y194053D01*
X158247Y193945D01*
X158247Y193915D01*
X158239Y193887D01*
X158243Y193774D01*
X158240Y193661D01*
X158247Y193632D01*
X158248Y193603D01*
X158283Y193495D01*
X158312Y193386D01*
X158327Y193360D01*
X158336Y193332D01*
X158381Y193269D01*
X158457Y193141D01*
X158503Y193098D01*
X158531Y193059D01*
X160906Y190684D01*
X162434Y186996D01*
X162434Y183004D01*
X160906Y179316D01*
X158084Y176494D01*
X154396Y174966D01*
X150404Y174966D01*
X146716Y176494D01*
X143894Y179316D01*
X142366Y183004D01*
X142366Y186996D01*
X143894Y190684D01*
X146269Y193059D01*
X146287Y193083D01*
X146309Y193102D01*
X146372Y193196D01*
X146440Y193286D01*
X146451Y193314D01*
X146467Y193338D01*
X146501Y193446D01*
X146541Y193552D01*
X146544Y193581D01*
X146553Y193609D01*
X146556Y193723D01*
X146565Y193835D01*
X146559Y193864D01*
X146560Y193893D01*
X146531Y194003D01*
X146509Y194114D01*
X146496Y194140D01*
X146488Y194168D01*
X146430Y194266D01*
X146378Y194366D01*
X146358Y194388D01*
X146343Y194413D01*
X146260Y194490D01*
X146182Y194572D01*
X146157Y194587D01*
X146136Y194607D01*
X146035Y194659D01*
X145937Y194716D01*
X145909Y194723D01*
X145882Y194737D01*
X145805Y194750D01*
X145662Y194786D01*
X145599Y194784D01*
X145551Y194792D01*
X133849Y194792D01*
X133820Y194788D01*
X133790Y194791D01*
X133679Y194768D01*
X133567Y194752D01*
X133540Y194740D01*
X133512Y194735D01*
X133411Y194682D01*
X133308Y194636D01*
X133285Y194617D01*
X133259Y194604D01*
X133177Y194526D01*
X133091Y194453D01*
X133074Y194428D01*
X133053Y194408D01*
X132996Y194310D01*
X132933Y194216D01*
X132924Y194188D01*
X132909Y194163D01*
X132882Y194053D01*
X132847Y193945D01*
X132847Y193915D01*
X132839Y193887D01*
X132843Y193774D01*
X132840Y193661D01*
X132847Y193632D01*
X132848Y193603D01*
X132883Y193495D01*
X132912Y193386D01*
X132927Y193360D01*
X132936Y193332D01*
X132981Y193269D01*
X133057Y193141D01*
X133103Y193098D01*
X133131Y193059D01*
X135506Y190684D01*
X137034Y186996D01*
X137034Y183004D01*
X135506Y179316D01*
X132684Y176494D01*
X128996Y174966D01*
X125004Y174966D01*
X121316Y176494D01*
X118494Y179316D01*
X116966Y183004D01*
X116966Y186996D01*
X118494Y190684D01*
X120869Y193059D01*
X120887Y193083D01*
X120909Y193102D01*
X120972Y193196D01*
X121040Y193286D01*
X121051Y193314D01*
X121067Y193338D01*
X121101Y193446D01*
X121141Y193552D01*
X121144Y193581D01*
X121153Y193609D01*
X121156Y193723D01*
X121165Y193835D01*
X121159Y193864D01*
X121160Y193893D01*
X121131Y194003D01*
X121109Y194114D01*
X121096Y194140D01*
X121088Y194168D01*
X121030Y194266D01*
X120978Y194366D01*
X120958Y194388D01*
X120943Y194413D01*
X120860Y194490D01*
X120782Y194572D01*
X120757Y194587D01*
X120736Y194607D01*
X120635Y194659D01*
X120537Y194716D01*
X120509Y194723D01*
X120482Y194737D01*
X120405Y194750D01*
X120262Y194786D01*
X120199Y194784D01*
X120151Y194792D01*
X112649Y194792D01*
X112591Y194784D01*
X112533Y194786D01*
X112451Y194764D01*
X112367Y194752D01*
X112314Y194729D01*
X112258Y194714D01*
X112185Y194671D01*
X112108Y194636D01*
X112063Y194598D01*
X112013Y194569D01*
X111955Y194507D01*
X111891Y194453D01*
X111859Y194404D01*
X111819Y194361D01*
X111780Y194286D01*
X111733Y194216D01*
X111716Y194160D01*
X111689Y194108D01*
X111678Y194040D01*
X111648Y193945D01*
X111645Y193845D01*
X111634Y193777D01*
X111634Y176008D01*
X110592Y174966D01*
X95939Y174966D01*
X95853Y174954D01*
X95765Y174951D01*
X95712Y174934D01*
X95658Y174926D01*
X95578Y174891D01*
X95495Y174864D01*
X95455Y174836D01*
X95398Y174810D01*
X95285Y174714D01*
X95221Y174669D01*
X76752Y156200D01*
X76700Y156130D01*
X76640Y156066D01*
X76614Y156017D01*
X76581Y155973D01*
X76556Y155905D01*
X76554Y155904D01*
X76552Y155896D01*
X76550Y155891D01*
X76510Y155813D01*
X76502Y155765D01*
X76480Y155707D01*
X76476Y155654D01*
X76469Y155633D01*
X76467Y155553D01*
X76455Y155482D01*
X76455Y128588D01*
X76459Y128559D01*
X76456Y128530D01*
X76479Y128419D01*
X76495Y128307D01*
X76507Y128280D01*
X76512Y128251D01*
X76565Y128151D01*
X76611Y128047D01*
X76630Y128025D01*
X76643Y127999D01*
X76721Y127917D01*
X76794Y127830D01*
X76819Y127814D01*
X76839Y127793D01*
X76937Y127736D01*
X77031Y127673D01*
X77059Y127664D01*
X77084Y127649D01*
X77194Y127621D01*
X77302Y127587D01*
X77331Y127586D01*
X77360Y127579D01*
X77473Y127583D01*
X77586Y127580D01*
X77615Y127587D01*
X77644Y127588D01*
X77752Y127623D01*
X77861Y127652D01*
X77887Y127666D01*
X77915Y127676D01*
X77979Y127721D01*
X78106Y127797D01*
X78149Y127842D01*
X78188Y127870D01*
X78273Y127956D01*
X83936Y127956D01*
X84023Y127968D01*
X84111Y127971D01*
X84163Y127988D01*
X84218Y127996D01*
X84298Y128031D01*
X84381Y128058D01*
X84420Y128086D01*
X84477Y128112D01*
X84590Y128208D01*
X84654Y128253D01*
X85863Y129462D01*
X85915Y129532D01*
X85975Y129595D01*
X86001Y129645D01*
X86034Y129689D01*
X86065Y129771D01*
X86105Y129848D01*
X86113Y129896D01*
X86135Y129955D01*
X86147Y130102D01*
X86160Y130180D01*
X86160Y131992D01*
X88988Y134820D01*
X90722Y134820D01*
X90809Y134832D01*
X90896Y134835D01*
X90949Y134852D01*
X91004Y134860D01*
X91084Y134895D01*
X91167Y134922D01*
X91206Y134950D01*
X91263Y134976D01*
X91377Y135072D01*
X91440Y135117D01*
X91842Y135519D01*
X91880Y135546D01*
X91937Y135572D01*
X92051Y135668D01*
X92114Y135713D01*
X123280Y166879D01*
X141344Y166879D01*
X141431Y166891D01*
X141518Y166894D01*
X141571Y166911D01*
X141626Y166919D01*
X141705Y166954D01*
X141789Y166981D01*
X141828Y167009D01*
X141885Y167035D01*
X141998Y167131D01*
X142062Y167176D01*
X143289Y168403D01*
X147287Y168403D01*
X148514Y167176D01*
X148584Y167124D01*
X148648Y167064D01*
X148697Y167038D01*
X148741Y167005D01*
X148823Y166974D01*
X148901Y166934D01*
X148948Y166926D01*
X149007Y166904D01*
X149154Y166892D01*
X149232Y166879D01*
X166751Y166879D01*
X166809Y166887D01*
X166867Y166885D01*
X166949Y166907D01*
X167033Y166919D01*
X167086Y166942D01*
X167142Y166957D01*
X167215Y167000D01*
X167292Y167035D01*
X167337Y167073D01*
X167387Y167102D01*
X167445Y167164D01*
X167509Y167218D01*
X167541Y167267D01*
X167581Y167310D01*
X167620Y167385D01*
X167667Y167455D01*
X167684Y167511D01*
X167711Y167563D01*
X167722Y167631D01*
X167752Y167726D01*
X167755Y167826D01*
X167766Y167894D01*
X167766Y168107D01*
X169459Y169800D01*
X178521Y169800D01*
X180214Y168107D01*
X180214Y159045D01*
X178521Y157352D01*
X169459Y157352D01*
X167766Y159045D01*
X167766Y159258D01*
X167758Y159316D01*
X167760Y159374D01*
X167738Y159456D01*
X167726Y159540D01*
X167703Y159593D01*
X167688Y159649D01*
X167645Y159722D01*
X167610Y159799D01*
X167572Y159844D01*
X167543Y159894D01*
X167481Y159952D01*
X167427Y160016D01*
X167378Y160048D01*
X167335Y160088D01*
X167260Y160127D01*
X167190Y160174D01*
X167134Y160191D01*
X167082Y160218D01*
X167014Y160229D01*
X166919Y160259D01*
X166819Y160262D01*
X166751Y160273D01*
X149232Y160273D01*
X149145Y160261D01*
X149058Y160258D01*
X149005Y160241D01*
X148950Y160233D01*
X148871Y160198D01*
X148787Y160171D01*
X148748Y160143D01*
X148691Y160117D01*
X148578Y160021D01*
X148514Y159976D01*
X147287Y158749D01*
X143289Y158749D01*
X142062Y159976D01*
X141992Y160028D01*
X141928Y160088D01*
X141879Y160114D01*
X141835Y160147D01*
X141753Y160178D01*
X141675Y160218D01*
X141628Y160226D01*
X141569Y160248D01*
X141422Y160260D01*
X141344Y160273D01*
X126437Y160273D01*
X126350Y160261D01*
X126263Y160258D01*
X126210Y160241D01*
X126155Y160233D01*
X126075Y160198D01*
X125992Y160171D01*
X125953Y160143D01*
X125896Y160117D01*
X125782Y160021D01*
X125719Y159976D01*
X96111Y130368D01*
X96059Y130299D01*
X95999Y130235D01*
X95973Y130185D01*
X95940Y130141D01*
X95909Y130059D01*
X95869Y129981D01*
X95861Y129934D01*
X95839Y129875D01*
X95827Y129728D01*
X95814Y129650D01*
X95814Y127846D01*
X95806Y127802D01*
X95784Y127743D01*
X95772Y127596D01*
X95759Y127518D01*
X95759Y122748D01*
X95767Y122690D01*
X95765Y122632D01*
X95787Y122550D01*
X95799Y122467D01*
X95823Y122413D01*
X95837Y122357D01*
X95880Y122284D01*
X95915Y122207D01*
X95953Y122163D01*
X95983Y122112D01*
X96044Y122055D01*
X96099Y121990D01*
X96147Y121958D01*
X96190Y121918D01*
X96265Y121879D01*
X96335Y121833D01*
X96391Y121815D01*
X96443Y121788D01*
X96511Y121777D01*
X96606Y121747D01*
X96706Y121744D01*
X96774Y121733D01*
X97791Y121733D01*
X97791Y121731D01*
X96774Y121731D01*
X96716Y121723D01*
X96658Y121724D01*
X96576Y121703D01*
X96493Y121691D01*
X96439Y121667D01*
X96383Y121653D01*
X96310Y121610D01*
X96233Y121575D01*
X96188Y121537D01*
X96138Y121507D01*
X96080Y121446D01*
X96016Y121391D01*
X95984Y121343D01*
X95944Y121300D01*
X95905Y121225D01*
X95859Y121155D01*
X95841Y121099D01*
X95814Y121047D01*
X95803Y120979D01*
X95773Y120884D01*
X95770Y120784D01*
X95759Y120716D01*
X95759Y114746D01*
X93975Y114746D01*
X93047Y114995D01*
X92214Y115476D01*
X91534Y116156D01*
X91053Y116989D01*
X91024Y117099D01*
X91020Y117108D01*
X91018Y117118D01*
X90964Y117238D01*
X90912Y117360D01*
X90906Y117368D01*
X90902Y117377D01*
X90816Y117478D01*
X90733Y117581D01*
X90725Y117586D01*
X90718Y117594D01*
X90608Y117668D01*
X90499Y117743D01*
X90490Y117746D01*
X90482Y117752D01*
X90355Y117792D01*
X90230Y117834D01*
X90220Y117834D01*
X90211Y117837D01*
X90079Y117841D01*
X89946Y117847D01*
X89936Y117844D01*
X89927Y117845D01*
X89799Y117811D01*
X89670Y117780D01*
X89661Y117775D01*
X89652Y117773D01*
X89539Y117706D01*
X89423Y117640D01*
X89416Y117633D01*
X89407Y117628D01*
X89317Y117531D01*
X89224Y117436D01*
X89219Y117427D01*
X89213Y117420D01*
X89177Y117350D01*
X87335Y115508D01*
X80191Y115508D01*
X80162Y115504D01*
X80133Y115507D01*
X80022Y115484D01*
X79910Y115468D01*
X79883Y115456D01*
X79854Y115451D01*
X79753Y115398D01*
X79650Y115352D01*
X79628Y115333D01*
X79602Y115320D01*
X79520Y115242D01*
X79433Y115169D01*
X79417Y115144D01*
X79396Y115124D01*
X79338Y115026D01*
X79276Y114932D01*
X79267Y114904D01*
X79252Y114879D01*
X79224Y114769D01*
X79190Y114661D01*
X79189Y114631D01*
X79182Y114603D01*
X79185Y114490D01*
X79183Y114377D01*
X79190Y114348D01*
X79191Y114319D01*
X79226Y114211D01*
X79254Y114102D01*
X79269Y114076D01*
X79278Y114048D01*
X79324Y113984D01*
X79400Y113857D01*
X79445Y113814D01*
X79473Y113775D01*
X80235Y113013D01*
X80305Y112960D01*
X80369Y112901D01*
X80418Y112875D01*
X80462Y112842D01*
X80544Y112811D01*
X80622Y112771D01*
X80670Y112763D01*
X80728Y112741D01*
X80876Y112729D01*
X80953Y112716D01*
X87335Y112716D01*
X89028Y111023D01*
X89028Y104641D01*
X89035Y104593D01*
X89034Y104586D01*
X89037Y104576D01*
X89040Y104555D01*
X89043Y104467D01*
X89060Y104414D01*
X89068Y104360D01*
X89103Y104280D01*
X89130Y104197D01*
X89158Y104157D01*
X89184Y104100D01*
X89280Y103987D01*
X89325Y103923D01*
X89833Y103415D01*
X89857Y103398D01*
X89876Y103375D01*
X89970Y103312D01*
X90060Y103244D01*
X90088Y103234D01*
X90112Y103218D01*
X90220Y103183D01*
X90326Y103143D01*
X90355Y103141D01*
X90383Y103132D01*
X90496Y103129D01*
X90609Y103120D01*
X90638Y103125D01*
X90667Y103125D01*
X90777Y103153D01*
X90888Y103175D01*
X90914Y103189D01*
X90942Y103196D01*
X91040Y103254D01*
X91140Y103306D01*
X91162Y103327D01*
X91187Y103342D01*
X91264Y103424D01*
X91346Y103502D01*
X91361Y103527D01*
X91381Y103549D01*
X91433Y103650D01*
X91490Y103747D01*
X91497Y103776D01*
X91511Y103802D01*
X91524Y103879D01*
X91560Y104023D01*
X91558Y104085D01*
X91566Y104133D01*
X91566Y111023D01*
X93259Y112716D01*
X102321Y112716D01*
X104014Y111023D01*
X104014Y105951D01*
X104022Y105893D01*
X104020Y105835D01*
X104042Y105753D01*
X104054Y105669D01*
X104077Y105616D01*
X104092Y105560D01*
X104135Y105487D01*
X104170Y105410D01*
X104208Y105365D01*
X104237Y105315D01*
X104299Y105257D01*
X104353Y105193D01*
X104402Y105161D01*
X104445Y105121D01*
X104520Y105082D01*
X104590Y105035D01*
X104646Y105018D01*
X104698Y104991D01*
X104766Y104980D01*
X104861Y104950D01*
X104961Y104947D01*
X105029Y104936D01*
X106172Y104936D01*
X109000Y102108D01*
X109000Y99655D01*
X109012Y99569D01*
X109015Y99481D01*
X109032Y99428D01*
X109040Y99374D01*
X109075Y99294D01*
X109102Y99211D01*
X109130Y99171D01*
X109156Y99114D01*
X109233Y99023D01*
X109253Y98990D01*
X109273Y98971D01*
X109297Y98937D01*
X113758Y94476D01*
X113828Y94424D01*
X113892Y94364D01*
X113941Y94338D01*
X113985Y94305D01*
X114067Y94274D01*
X114145Y94234D01*
X114193Y94226D01*
X114251Y94204D01*
X114399Y94192D01*
X114476Y94179D01*
X120237Y94179D01*
X121279Y93137D01*
X121279Y63663D01*
X120126Y62510D01*
X120025Y62465D01*
X120003Y62446D01*
X119977Y62433D01*
X119895Y62355D01*
X119808Y62282D01*
X119792Y62257D01*
X119771Y62237D01*
X119713Y62139D01*
X119651Y62045D01*
X119642Y62017D01*
X119627Y61992D01*
X119599Y61882D01*
X119565Y61774D01*
X119564Y61744D01*
X119557Y61716D01*
X119560Y61603D01*
X119558Y61490D01*
X119565Y61461D01*
X119566Y61432D01*
X119601Y61324D01*
X119629Y61215D01*
X119644Y61189D01*
X119653Y61161D01*
X119699Y61098D01*
X119775Y60970D01*
X119820Y60927D01*
X119848Y60888D01*
X123034Y57702D01*
X123104Y57650D01*
X123168Y57590D01*
X123217Y57564D01*
X123261Y57531D01*
X123343Y57500D01*
X123421Y57460D01*
X123469Y57452D01*
X123527Y57430D01*
X123675Y57418D01*
X123752Y57405D01*
X126205Y57405D01*
X129033Y54577D01*
X129033Y50579D01*
X126205Y47751D01*
X122207Y47751D01*
X119379Y50579D01*
X119379Y53032D01*
X119367Y53118D01*
X119364Y53206D01*
X119347Y53259D01*
X119339Y53313D01*
X119304Y53393D01*
X119277Y53476D01*
X119249Y53516D01*
X119223Y53573D01*
X119127Y53686D01*
X119082Y53750D01*
X113205Y59626D01*
X113205Y61606D01*
X113197Y61664D01*
X113199Y61722D01*
X113177Y61804D01*
X113165Y61888D01*
X113142Y61941D01*
X113127Y61997D01*
X113084Y62070D01*
X113049Y62147D01*
X113011Y62192D01*
X112982Y62242D01*
X112920Y62300D01*
X112866Y62364D01*
X112817Y62396D01*
X112774Y62436D01*
X112699Y62475D01*
X112629Y62522D01*
X112573Y62539D01*
X112521Y62566D01*
X112453Y62577D01*
X112358Y62607D01*
X112258Y62610D01*
X112190Y62621D01*
X111763Y62621D01*
X110721Y63663D01*
X110721Y74590D01*
X110713Y74648D01*
X110715Y74706D01*
X110693Y74788D01*
X110681Y74872D01*
X110658Y74925D01*
X110643Y74981D01*
X110600Y75054D01*
X110565Y75131D01*
X110527Y75176D01*
X110498Y75226D01*
X110436Y75284D01*
X110382Y75348D01*
X110333Y75380D01*
X110290Y75420D01*
X110215Y75459D01*
X110145Y75506D01*
X110089Y75523D01*
X110037Y75550D01*
X109969Y75561D01*
X109874Y75591D01*
X109774Y75594D01*
X109706Y75605D01*
X101902Y75605D01*
X101815Y75593D01*
X101728Y75590D01*
X101675Y75573D01*
X101620Y75565D01*
X101540Y75530D01*
X101457Y75503D01*
X101418Y75475D01*
X101361Y75449D01*
X101248Y75353D01*
X101184Y75308D01*
X99535Y73659D01*
X95537Y73659D01*
X92709Y76487D01*
X92709Y80485D01*
X95537Y83313D01*
X99580Y83313D01*
X99609Y83317D01*
X99638Y83314D01*
X99749Y83337D01*
X99861Y83353D01*
X99888Y83365D01*
X99917Y83370D01*
X100017Y83422D01*
X100121Y83469D01*
X100143Y83488D01*
X100169Y83501D01*
X100251Y83579D01*
X100338Y83652D01*
X100354Y83677D01*
X100375Y83697D01*
X100433Y83795D01*
X100495Y83889D01*
X100504Y83917D01*
X100519Y83942D01*
X100547Y84052D01*
X100581Y84160D01*
X100582Y84190D01*
X100589Y84218D01*
X100586Y84331D01*
X100588Y84444D01*
X100581Y84473D01*
X100580Y84502D01*
X100545Y84610D01*
X100517Y84719D01*
X100502Y84745D01*
X100493Y84773D01*
X100447Y84836D01*
X100371Y84964D01*
X100326Y85007D01*
X100298Y85046D01*
X85373Y99971D01*
X85303Y100023D01*
X85239Y100083D01*
X85190Y100109D01*
X85146Y100142D01*
X85064Y100173D01*
X84986Y100213D01*
X84938Y100221D01*
X84880Y100243D01*
X84732Y100255D01*
X84655Y100268D01*
X78273Y100268D01*
X76384Y102158D01*
X76337Y102193D01*
X76297Y102235D01*
X76224Y102278D01*
X76156Y102329D01*
X76102Y102350D01*
X76051Y102379D01*
X75970Y102400D01*
X75891Y102430D01*
X75832Y102435D01*
X75776Y102449D01*
X75692Y102447D01*
X75607Y102454D01*
X75550Y102442D01*
X75492Y102440D01*
X75411Y102414D01*
X75329Y102398D01*
X75277Y102371D01*
X75221Y102353D01*
X75165Y102313D01*
X75076Y102267D01*
X75004Y102198D01*
X74948Y102158D01*
X74368Y101578D01*
X74315Y101508D01*
X74256Y101444D01*
X74230Y101395D01*
X74197Y101351D01*
X74166Y101269D01*
X74126Y101191D01*
X74118Y101144D01*
X74096Y101085D01*
X74084Y100938D01*
X74071Y100860D01*
X74071Y89517D01*
X74083Y89430D01*
X74086Y89343D01*
X74103Y89290D01*
X74111Y89235D01*
X74146Y89155D01*
X74173Y89072D01*
X74201Y89033D01*
X74227Y88976D01*
X74323Y88862D01*
X74324Y88861D01*
X74338Y88838D01*
X74346Y88830D01*
X74368Y88799D01*
X137836Y25331D01*
X137905Y25279D01*
X137969Y25219D01*
X138019Y25193D01*
X138063Y25160D01*
X138145Y25129D01*
X138223Y25089D01*
X138270Y25081D01*
X138329Y25059D01*
X138476Y25047D01*
X138554Y25034D01*
X140846Y25034D01*
X140933Y25046D01*
X141020Y25049D01*
X141073Y25066D01*
X141128Y25074D01*
X141208Y25109D01*
X141291Y25136D01*
X141330Y25164D01*
X141387Y25190D01*
X141501Y25286D01*
X141564Y25331D01*
X154388Y38155D01*
X154440Y38224D01*
X154500Y38288D01*
X154526Y38338D01*
X154559Y38382D01*
X154590Y38464D01*
X154630Y38542D01*
X154638Y38589D01*
X154660Y38648D01*
X154672Y38795D01*
X154685Y38873D01*
X154685Y58105D01*
X154677Y58163D01*
X154679Y58221D01*
X154657Y58303D01*
X154645Y58387D01*
X154622Y58440D01*
X154607Y58496D01*
X154564Y58569D01*
X154529Y58646D01*
X154491Y58691D01*
X154462Y58741D01*
X154400Y58799D01*
X154346Y58863D01*
X154297Y58895D01*
X154254Y58935D01*
X154179Y58974D01*
X154109Y59021D01*
X154053Y59038D01*
X154001Y59065D01*
X153933Y59076D01*
X153838Y59106D01*
X153738Y59109D01*
X153670Y59120D01*
X153457Y59120D01*
X151764Y60813D01*
X151764Y62082D01*
X151757Y62137D01*
X151758Y62178D01*
X151757Y62180D01*
X151758Y62198D01*
X151736Y62280D01*
X151724Y62364D01*
X151701Y62417D01*
X151686Y62473D01*
X151643Y62546D01*
X151608Y62623D01*
X151570Y62668D01*
X151541Y62718D01*
X151479Y62776D01*
X151425Y62840D01*
X151376Y62872D01*
X151333Y62912D01*
X151258Y62951D01*
X151188Y62998D01*
X151132Y63015D01*
X151080Y63042D01*
X151012Y63053D01*
X150917Y63083D01*
X150817Y63086D01*
X150749Y63097D01*
X143133Y63097D01*
X143047Y63085D01*
X142959Y63082D01*
X142907Y63065D01*
X142852Y63057D01*
X142772Y63022D01*
X142689Y62995D01*
X142650Y62967D01*
X142592Y62941D01*
X142479Y62845D01*
X142415Y62800D01*
X142237Y62621D01*
X133763Y62621D01*
X132721Y63663D01*
X132721Y93137D01*
X133763Y94179D01*
X134190Y94179D01*
X134248Y94187D01*
X134306Y94185D01*
X134388Y94207D01*
X134472Y94219D01*
X134525Y94242D01*
X134581Y94257D01*
X134654Y94300D01*
X134731Y94335D01*
X134776Y94373D01*
X134826Y94402D01*
X134884Y94464D01*
X134948Y94518D01*
X134980Y94567D01*
X135020Y94610D01*
X135059Y94685D01*
X135106Y94755D01*
X135123Y94811D01*
X135150Y94863D01*
X135161Y94931D01*
X135191Y95026D01*
X135194Y95126D01*
X135205Y95194D01*
X135205Y105784D01*
X135199Y105832D01*
X135199Y105834D01*
X135198Y105837D01*
X135193Y105871D01*
X135190Y105958D01*
X135173Y106011D01*
X135165Y106066D01*
X135130Y106145D01*
X135103Y106229D01*
X135075Y106268D01*
X135049Y106325D01*
X134953Y106438D01*
X134908Y106502D01*
X133173Y108237D01*
X133173Y111750D01*
X133161Y111836D01*
X133158Y111924D01*
X133141Y111976D01*
X133133Y112031D01*
X133098Y112111D01*
X133071Y112194D01*
X133043Y112233D01*
X133017Y112291D01*
X132921Y112404D01*
X132876Y112468D01*
X131444Y113899D01*
X131444Y122961D01*
X133137Y124654D01*
X142199Y124654D01*
X143892Y122961D01*
X143892Y113899D01*
X143124Y113132D01*
X143072Y113062D01*
X143012Y112998D01*
X142986Y112948D01*
X142953Y112904D01*
X142922Y112823D01*
X142882Y112745D01*
X142874Y112697D01*
X142852Y112639D01*
X142840Y112491D01*
X142827Y112414D01*
X142827Y108237D01*
X141092Y106502D01*
X141040Y106432D01*
X140980Y106368D01*
X140954Y106319D01*
X140921Y106275D01*
X140890Y106193D01*
X140850Y106115D01*
X140842Y106068D01*
X140820Y106009D01*
X140810Y105890D01*
X140809Y105885D01*
X140808Y105868D01*
X140808Y105862D01*
X140795Y105784D01*
X140795Y95194D01*
X140803Y95136D01*
X140801Y95078D01*
X140823Y94996D01*
X140835Y94912D01*
X140858Y94859D01*
X140873Y94803D01*
X140916Y94730D01*
X140951Y94653D01*
X140989Y94608D01*
X141018Y94558D01*
X141080Y94500D01*
X141134Y94436D01*
X141183Y94404D01*
X141226Y94364D01*
X141301Y94325D01*
X141371Y94278D01*
X141427Y94261D01*
X141479Y94234D01*
X141547Y94223D01*
X141642Y94193D01*
X141742Y94190D01*
X141810Y94179D01*
X142237Y94179D01*
X143279Y93137D01*
X143279Y88210D01*
X143287Y88152D01*
X143285Y88094D01*
X143307Y88012D01*
X143319Y87928D01*
X143342Y87875D01*
X143357Y87819D01*
X143400Y87746D01*
X143435Y87669D01*
X143473Y87624D01*
X143502Y87574D01*
X143564Y87516D01*
X143618Y87452D01*
X143667Y87420D01*
X143710Y87380D01*
X143785Y87341D01*
X143855Y87294D01*
X143911Y87277D01*
X143963Y87250D01*
X144031Y87239D01*
X144126Y87209D01*
X144226Y87206D01*
X144294Y87195D01*
X144544Y87195D01*
X144630Y87207D01*
X144718Y87210D01*
X144771Y87227D01*
X144825Y87235D01*
X144905Y87270D01*
X144988Y87297D01*
X145028Y87325D01*
X145085Y87351D01*
X145198Y87447D01*
X145262Y87492D01*
X149816Y92046D01*
X149868Y92116D01*
X149928Y92180D01*
X149954Y92229D01*
X149987Y92273D01*
X150018Y92355D01*
X150058Y92433D01*
X150066Y92481D01*
X150088Y92539D01*
X150100Y92687D01*
X150113Y92764D01*
X150113Y100450D01*
X150101Y100537D01*
X150098Y100624D01*
X150081Y100677D01*
X150073Y100732D01*
X150038Y100811D01*
X150011Y100895D01*
X149983Y100934D01*
X149957Y100991D01*
X149861Y101104D01*
X149816Y101168D01*
X148081Y102903D01*
X148081Y106901D01*
X149816Y108636D01*
X149868Y108706D01*
X149928Y108770D01*
X149954Y108819D01*
X149987Y108863D01*
X150018Y108945D01*
X150058Y109023D01*
X150066Y109070D01*
X150088Y109129D01*
X150100Y109276D01*
X150113Y109354D01*
X150113Y111191D01*
X150105Y111249D01*
X150107Y111307D01*
X150085Y111389D01*
X150073Y111473D01*
X150050Y111526D01*
X150035Y111582D01*
X149992Y111655D01*
X149957Y111732D01*
X149919Y111777D01*
X149890Y111827D01*
X149828Y111885D01*
X149774Y111949D01*
X149725Y111981D01*
X149682Y112021D01*
X149607Y112060D01*
X149537Y112107D01*
X149481Y112124D01*
X149429Y112151D01*
X149361Y112162D01*
X149266Y112192D01*
X149166Y112195D01*
X149098Y112206D01*
X148377Y112206D01*
X146684Y113899D01*
X146684Y122961D01*
X148377Y124654D01*
X157439Y124654D01*
X159132Y122961D01*
X159132Y113899D01*
X157439Y112206D01*
X156718Y112206D01*
X156660Y112198D01*
X156602Y112200D01*
X156520Y112178D01*
X156436Y112166D01*
X156383Y112143D01*
X156327Y112128D01*
X156254Y112085D01*
X156177Y112050D01*
X156132Y112012D01*
X156082Y111983D01*
X156024Y111921D01*
X155960Y111867D01*
X155928Y111818D01*
X155888Y111775D01*
X155849Y111700D01*
X155802Y111630D01*
X155785Y111574D01*
X155758Y111522D01*
X155747Y111454D01*
X155717Y111359D01*
X155714Y111259D01*
X155703Y111191D01*
X155703Y109354D01*
X155715Y109267D01*
X155718Y109180D01*
X155735Y109127D01*
X155743Y109072D01*
X155778Y108993D01*
X155805Y108909D01*
X155833Y108870D01*
X155859Y108813D01*
X155955Y108700D01*
X156000Y108636D01*
X157735Y106901D01*
X157735Y102903D01*
X156000Y101168D01*
X155948Y101098D01*
X155888Y101034D01*
X155862Y100985D01*
X155829Y100941D01*
X155798Y100859D01*
X155758Y100781D01*
X155750Y100734D01*
X155728Y100675D01*
X155716Y100528D01*
X155703Y100450D01*
X155703Y89716D01*
X155707Y89687D01*
X155704Y89658D01*
X155727Y89547D01*
X155743Y89435D01*
X155755Y89408D01*
X155760Y89379D01*
X155812Y89279D01*
X155859Y89175D01*
X155878Y89153D01*
X155891Y89127D01*
X155969Y89045D01*
X156042Y88958D01*
X156067Y88942D01*
X156087Y88921D01*
X156185Y88863D01*
X156279Y88801D01*
X156307Y88792D01*
X156332Y88777D01*
X156442Y88749D01*
X156550Y88715D01*
X156580Y88714D01*
X156608Y88707D01*
X156721Y88710D01*
X156834Y88708D01*
X156863Y88715D01*
X156892Y88716D01*
X157000Y88751D01*
X157109Y88779D01*
X157135Y88794D01*
X157163Y88803D01*
X157226Y88849D01*
X157354Y88925D01*
X157397Y88970D01*
X157436Y88998D01*
X160992Y92554D01*
X161044Y92624D01*
X161104Y92688D01*
X161130Y92737D01*
X161163Y92781D01*
X161194Y92863D01*
X161234Y92941D01*
X161242Y92989D01*
X161264Y93047D01*
X161276Y93195D01*
X161289Y93272D01*
X161289Y135648D01*
X161285Y135677D01*
X161288Y135706D01*
X161265Y135817D01*
X161249Y135929D01*
X161237Y135956D01*
X161232Y135985D01*
X161180Y136085D01*
X161133Y136189D01*
X161114Y136211D01*
X161101Y136237D01*
X161023Y136319D01*
X160950Y136406D01*
X160925Y136422D01*
X160905Y136443D01*
X160807Y136501D01*
X160713Y136563D01*
X160685Y136572D01*
X160660Y136587D01*
X160550Y136615D01*
X160442Y136649D01*
X160412Y136650D01*
X160384Y136657D01*
X160271Y136654D01*
X160158Y136656D01*
X160129Y136649D01*
X160100Y136648D01*
X159992Y136613D01*
X159883Y136585D01*
X159857Y136570D01*
X159829Y136561D01*
X159766Y136515D01*
X159638Y136439D01*
X159595Y136394D01*
X159556Y136366D01*
X159429Y136239D01*
X159377Y136169D01*
X159317Y136105D01*
X159291Y136056D01*
X159258Y136012D01*
X159227Y135930D01*
X159187Y135852D01*
X159179Y135804D01*
X159157Y135746D01*
X159145Y135598D01*
X159132Y135521D01*
X159132Y129139D01*
X157439Y127446D01*
X148377Y127446D01*
X146684Y129139D01*
X146684Y138201D01*
X148377Y139894D01*
X154759Y139894D01*
X154845Y139906D01*
X154933Y139909D01*
X154986Y139926D01*
X155040Y139934D01*
X155120Y139969D01*
X155203Y139996D01*
X155243Y140024D01*
X155300Y140050D01*
X155413Y140146D01*
X155477Y140191D01*
X157690Y142404D01*
X157725Y142451D01*
X157767Y142491D01*
X157810Y142564D01*
X157861Y142631D01*
X157882Y142686D01*
X157911Y142737D01*
X157932Y142818D01*
X157962Y142897D01*
X157967Y142955D01*
X157981Y143012D01*
X157979Y143096D01*
X157986Y143180D01*
X157974Y143238D01*
X157972Y143296D01*
X157946Y143377D01*
X157930Y143459D01*
X157903Y143511D01*
X157885Y143567D01*
X157845Y143623D01*
X157799Y143711D01*
X157730Y143784D01*
X157690Y143840D01*
X156971Y144559D01*
X156971Y148557D01*
X159799Y151385D01*
X163797Y151385D01*
X166033Y149149D01*
X166057Y149131D01*
X166076Y149109D01*
X166170Y149046D01*
X166260Y148978D01*
X166288Y148968D01*
X166312Y148951D01*
X166420Y148917D01*
X166526Y148877D01*
X166555Y148874D01*
X166583Y148865D01*
X166697Y148863D01*
X166809Y148853D01*
X166838Y148859D01*
X166867Y148858D01*
X166977Y148887D01*
X167088Y148909D01*
X167114Y148923D01*
X167142Y148930D01*
X167240Y148988D01*
X167340Y149040D01*
X167362Y149060D01*
X167387Y149075D01*
X167464Y149158D01*
X167546Y149236D01*
X167561Y149261D01*
X167581Y149283D01*
X167633Y149383D01*
X167690Y149481D01*
X167697Y149510D01*
X167711Y149536D01*
X167724Y149613D01*
X167760Y149757D01*
X167758Y149819D01*
X167766Y149867D01*
X167766Y152867D01*
X169459Y154560D01*
X178521Y154560D01*
X180214Y152867D01*
X180214Y146485D01*
X180226Y146399D01*
X180229Y146311D01*
X180246Y146258D01*
X180254Y146204D01*
X180289Y146124D01*
X180316Y146041D01*
X180344Y146001D01*
X180370Y145944D01*
X180466Y145831D01*
X180511Y145767D01*
X180946Y145332D01*
X181016Y145280D01*
X181080Y145220D01*
X181129Y145194D01*
X181174Y145161D01*
X181255Y145130D01*
X181333Y145090D01*
X181381Y145082D01*
X181439Y145060D01*
X181587Y145048D01*
X181664Y145035D01*
X195051Y145035D01*
X195080Y145039D01*
X195109Y145036D01*
X195220Y145059D01*
X195332Y145075D01*
X195359Y145087D01*
X195388Y145092D01*
X195489Y145145D01*
X195592Y145191D01*
X195614Y145210D01*
X195640Y145223D01*
X195722Y145301D01*
X195809Y145374D01*
X195825Y145399D01*
X195846Y145419D01*
X195904Y145517D01*
X195966Y145611D01*
X195975Y145639D01*
X195990Y145664D01*
X196018Y145774D01*
X196052Y145882D01*
X196053Y145912D01*
X196060Y145940D01*
X196057Y146053D01*
X196059Y146166D01*
X196052Y146195D01*
X196051Y146224D01*
X196016Y146332D01*
X195988Y146441D01*
X195973Y146467D01*
X195964Y146495D01*
X195918Y146558D01*
X195842Y146686D01*
X195797Y146729D01*
X195769Y146768D01*
X193550Y148987D01*
X192359Y151861D01*
X192359Y154971D01*
X193550Y157845D01*
X195749Y160044D01*
X198623Y161235D01*
X201733Y161235D01*
X204607Y160044D01*
X206806Y157845D01*
X207997Y154971D01*
X207997Y151861D01*
X206806Y148987D01*
X204587Y146768D01*
X204570Y146744D01*
X204547Y146725D01*
X204484Y146631D01*
X204416Y146541D01*
X204406Y146513D01*
X204390Y146489D01*
X204355Y146381D01*
X204315Y146275D01*
X204313Y146246D01*
X204304Y146218D01*
X204301Y146104D01*
X204292Y145992D01*
X204297Y145963D01*
X204297Y145934D01*
X204325Y145824D01*
X204347Y145713D01*
X204361Y145687D01*
X204368Y145659D01*
X204426Y145561D01*
X204478Y145461D01*
X204499Y145439D01*
X204514Y145414D01*
X204596Y145337D01*
X204674Y145255D01*
X204700Y145240D01*
X204721Y145220D01*
X204822Y145168D01*
X204919Y145111D01*
X204948Y145104D01*
X204974Y145090D01*
X205051Y145077D01*
X205195Y145041D01*
X205257Y145043D01*
X205305Y145035D01*
X222424Y145035D01*
X222510Y145047D01*
X222598Y145050D01*
X222651Y145067D01*
X222705Y145075D01*
X222785Y145110D01*
X222868Y145137D01*
X222908Y145165D01*
X222965Y145191D01*
X223078Y145287D01*
X223142Y145332D01*
X227556Y149747D01*
X227557Y149748D01*
X227559Y149749D01*
X227647Y149867D01*
X227727Y149974D01*
X227728Y149976D01*
X227729Y149977D01*
X227779Y150110D01*
X227829Y150240D01*
X227829Y150241D01*
X227829Y150243D01*
X227841Y150387D01*
X227852Y150523D01*
X227852Y150524D01*
X227852Y150526D01*
X227848Y150542D01*
X227796Y150802D01*
X227782Y150829D01*
X227777Y150853D01*
X227359Y151861D01*
X227359Y154971D01*
X228550Y157845D01*
X230749Y160044D01*
X233623Y161235D01*
X236733Y161235D01*
X239607Y160044D01*
X241806Y157845D01*
X242997Y154971D01*
X242997Y151861D01*
X241806Y148987D01*
X239607Y146788D01*
X236733Y145597D01*
X233623Y145597D01*
X232615Y146015D01*
X232614Y146015D01*
X232612Y146016D01*
X232478Y146050D01*
X232340Y146086D01*
X232338Y146085D01*
X232337Y146086D01*
X232196Y146081D01*
X232056Y146077D01*
X232054Y146077D01*
X232053Y146077D01*
X231920Y146034D01*
X231785Y145991D01*
X231784Y145990D01*
X231782Y145989D01*
X231770Y145981D01*
X231549Y145832D01*
X231529Y145809D01*
X231509Y145794D01*
X225160Y139445D01*
X181773Y139445D01*
X181725Y139438D01*
X181676Y139441D01*
X181585Y139419D01*
X181492Y139405D01*
X181448Y139386D01*
X181400Y139374D01*
X181318Y139328D01*
X181233Y139289D01*
X181195Y139258D01*
X181153Y139234D01*
X181087Y139166D01*
X181016Y139106D01*
X180988Y139065D01*
X180954Y139030D01*
X180910Y138947D01*
X180858Y138869D01*
X180843Y138822D01*
X180820Y138779D01*
X180801Y138687D01*
X180772Y138598D01*
X180771Y138549D01*
X180761Y138501D01*
X180768Y138427D01*
X180765Y138314D01*
X180787Y138230D01*
X180793Y138167D01*
X180976Y137485D01*
X180976Y135701D01*
X175006Y135701D01*
X174948Y135693D01*
X174890Y135694D01*
X174808Y135673D01*
X174725Y135661D01*
X174671Y135637D01*
X174615Y135623D01*
X174542Y135580D01*
X174465Y135545D01*
X174421Y135507D01*
X174370Y135477D01*
X174313Y135416D01*
X174248Y135361D01*
X174216Y135313D01*
X174176Y135270D01*
X174137Y135195D01*
X174091Y135125D01*
X174073Y135069D01*
X174046Y135017D01*
X174035Y134949D01*
X174005Y134854D01*
X174002Y134754D01*
X173991Y134686D01*
X173991Y133669D01*
X172974Y133669D01*
X172916Y133661D01*
X172858Y133662D01*
X172776Y133641D01*
X172693Y133629D01*
X172639Y133605D01*
X172583Y133591D01*
X172510Y133548D01*
X172433Y133513D01*
X172388Y133475D01*
X172338Y133445D01*
X172280Y133384D01*
X172216Y133329D01*
X172184Y133281D01*
X172144Y133238D01*
X172105Y133163D01*
X172059Y133093D01*
X172041Y133037D01*
X172014Y132985D01*
X172003Y132917D01*
X171973Y132822D01*
X171970Y132722D01*
X171959Y132654D01*
X171959Y126684D01*
X170175Y126684D01*
X169247Y126933D01*
X168402Y127421D01*
X168365Y127436D01*
X168333Y127457D01*
X168234Y127489D01*
X168138Y127527D01*
X168099Y127531D01*
X168062Y127543D01*
X167958Y127546D01*
X167855Y127556D01*
X167817Y127549D01*
X167778Y127550D01*
X167677Y127524D01*
X167575Y127506D01*
X167540Y127488D01*
X167503Y127479D01*
X167414Y127426D01*
X167321Y127380D01*
X167292Y127353D01*
X167258Y127333D01*
X167187Y127258D01*
X167111Y127188D01*
X167090Y127155D01*
X167064Y127126D01*
X167016Y127034D01*
X166962Y126945D01*
X166952Y126908D01*
X166934Y126873D01*
X166921Y126796D01*
X166887Y126671D01*
X166888Y126597D01*
X166879Y126542D01*
X166879Y124524D01*
X166883Y124495D01*
X166880Y124466D01*
X166903Y124355D01*
X166919Y124243D01*
X166931Y124216D01*
X166936Y124187D01*
X166989Y124087D01*
X167035Y123983D01*
X167054Y123961D01*
X167067Y123935D01*
X167145Y123853D01*
X167218Y123766D01*
X167243Y123750D01*
X167263Y123729D01*
X167361Y123672D01*
X167455Y123609D01*
X167483Y123600D01*
X167508Y123585D01*
X167618Y123557D01*
X167726Y123523D01*
X167756Y123522D01*
X167784Y123515D01*
X167897Y123519D01*
X168010Y123516D01*
X168039Y123523D01*
X168068Y123524D01*
X168176Y123559D01*
X168285Y123588D01*
X168311Y123602D01*
X168339Y123612D01*
X168403Y123657D01*
X168530Y123733D01*
X168573Y123778D01*
X168612Y123806D01*
X169459Y124654D01*
X175841Y124654D01*
X175907Y124663D01*
X175974Y124662D01*
X176035Y124681D01*
X176122Y124694D01*
X176224Y124739D01*
X176295Y124761D01*
X176336Y124789D01*
X176382Y124810D01*
X176453Y124870D01*
X176529Y124922D01*
X176561Y124961D01*
X176599Y124994D01*
X176650Y125071D01*
X176709Y125142D01*
X176729Y125188D01*
X176756Y125230D01*
X176784Y125319D01*
X176821Y125404D01*
X176827Y125453D01*
X176842Y125501D01*
X176845Y125594D01*
X176856Y125686D01*
X176848Y125735D01*
X176849Y125785D01*
X176826Y125875D01*
X176812Y125967D01*
X176790Y126012D01*
X176778Y126060D01*
X176730Y126140D01*
X176691Y126224D01*
X176658Y126262D01*
X176632Y126305D01*
X176565Y126368D01*
X176504Y126438D01*
X176462Y126465D01*
X176425Y126499D01*
X176343Y126542D01*
X176265Y126592D01*
X176216Y126606D01*
X176172Y126629D01*
X176099Y126641D01*
X176021Y126664D01*
X176021Y131639D01*
X179764Y131639D01*
X179851Y131651D01*
X179938Y131654D01*
X179991Y131671D01*
X180046Y131679D01*
X180126Y131714D01*
X180209Y131741D01*
X180248Y131769D01*
X180305Y131795D01*
X180418Y131891D01*
X180482Y131936D01*
X182151Y133605D01*
X186149Y133605D01*
X188977Y130777D01*
X188977Y126779D01*
X186149Y123951D01*
X183884Y123951D01*
X183798Y123939D01*
X183710Y123936D01*
X183657Y123919D01*
X183603Y123911D01*
X183523Y123876D01*
X183440Y123849D01*
X183400Y123821D01*
X183343Y123795D01*
X183230Y123699D01*
X183166Y123654D01*
X180626Y121114D01*
X180609Y121090D01*
X180586Y121071D01*
X180523Y120977D01*
X180455Y120887D01*
X180445Y120859D01*
X180429Y120835D01*
X180394Y120727D01*
X180354Y120621D01*
X180352Y120592D01*
X180343Y120564D01*
X180340Y120450D01*
X180331Y120338D01*
X180336Y120309D01*
X180336Y120280D01*
X180364Y120170D01*
X180386Y120059D01*
X180400Y120033D01*
X180407Y120005D01*
X180465Y119907D01*
X180517Y119807D01*
X180538Y119785D01*
X180553Y119760D01*
X180635Y119683D01*
X180713Y119601D01*
X180739Y119586D01*
X180760Y119566D01*
X180861Y119514D01*
X180958Y119457D01*
X180987Y119450D01*
X181013Y119436D01*
X181090Y119423D01*
X181234Y119387D01*
X181296Y119389D01*
X181344Y119381D01*
X185260Y119381D01*
X186995Y117646D01*
X187065Y117594D01*
X187129Y117534D01*
X187178Y117508D01*
X187222Y117475D01*
X187304Y117444D01*
X187382Y117404D01*
X187429Y117396D01*
X187488Y117374D01*
X187635Y117362D01*
X187713Y117349D01*
X192456Y117349D01*
X192514Y117357D01*
X192572Y117355D01*
X192654Y117377D01*
X192738Y117389D01*
X192791Y117412D01*
X192847Y117427D01*
X192920Y117470D01*
X192997Y117505D01*
X193042Y117543D01*
X193092Y117572D01*
X193150Y117634D01*
X193214Y117688D01*
X193246Y117737D01*
X193286Y117780D01*
X193325Y117855D01*
X193372Y117925D01*
X193389Y117981D01*
X193416Y118033D01*
X193427Y118101D01*
X193457Y118196D01*
X193460Y118296D01*
X193471Y118364D01*
X193471Y118737D01*
X194513Y119779D01*
X209487Y119779D01*
X210529Y118737D01*
X210529Y111263D01*
X209983Y110718D01*
X209948Y110671D01*
X209906Y110631D01*
X209863Y110558D01*
X209813Y110491D01*
X209792Y110436D01*
X209762Y110386D01*
X209741Y110304D01*
X209711Y110225D01*
X209706Y110167D01*
X209692Y110110D01*
X209695Y110026D01*
X209688Y109942D01*
X209699Y109884D01*
X209701Y109826D01*
X209727Y109746D01*
X209744Y109663D01*
X209771Y109611D01*
X209789Y109555D01*
X209829Y109499D01*
X209875Y109411D01*
X209943Y109338D01*
X209983Y109282D01*
X210529Y108737D01*
X210529Y101263D01*
X209983Y100718D01*
X209948Y100671D01*
X209906Y100631D01*
X209863Y100558D01*
X209813Y100491D01*
X209792Y100436D01*
X209762Y100386D01*
X209741Y100304D01*
X209711Y100225D01*
X209706Y100167D01*
X209692Y100110D01*
X209695Y100026D01*
X209688Y99942D01*
X209699Y99884D01*
X209701Y99826D01*
X209727Y99746D01*
X209744Y99663D01*
X209771Y99611D01*
X209789Y99555D01*
X209829Y99499D01*
X209875Y99411D01*
X209943Y99338D01*
X209983Y99282D01*
X210529Y98737D01*
X210529Y91263D01*
X210522Y91257D01*
X210487Y91210D01*
X210445Y91170D01*
X210402Y91097D01*
X210351Y91030D01*
X210331Y90975D01*
X210301Y90924D01*
X210280Y90843D01*
X210250Y90764D01*
X210245Y90706D01*
X210231Y90649D01*
X210233Y90565D01*
X210226Y90481D01*
X210238Y90423D01*
X210240Y90365D01*
X210266Y90284D01*
X210282Y90202D01*
X210309Y90150D01*
X210327Y90094D01*
X210367Y90038D01*
X210413Y89950D01*
X210482Y89877D01*
X210495Y89859D01*
X210499Y89853D01*
X210501Y89851D01*
X210522Y89821D01*
X210783Y89560D01*
X211118Y88981D01*
X211291Y88334D01*
X211291Y86499D01*
X202484Y86499D01*
X202426Y86491D01*
X202368Y86493D01*
X202286Y86471D01*
X202203Y86459D01*
X202149Y86436D01*
X202093Y86421D01*
X202020Y86378D01*
X202001Y86369D01*
X201955Y86400D01*
X201899Y86417D01*
X201847Y86444D01*
X201779Y86455D01*
X201684Y86485D01*
X201584Y86488D01*
X201516Y86499D01*
X192709Y86499D01*
X192709Y88334D01*
X192882Y88981D01*
X193217Y89560D01*
X193478Y89821D01*
X193513Y89868D01*
X193555Y89908D01*
X193598Y89981D01*
X193649Y90048D01*
X193670Y90103D01*
X193699Y90153D01*
X193720Y90235D01*
X193750Y90314D01*
X193755Y90372D01*
X193769Y90429D01*
X193766Y90513D01*
X193774Y90597D01*
X193762Y90654D01*
X193760Y90713D01*
X193734Y90793D01*
X193718Y90876D01*
X193691Y90928D01*
X193673Y90983D01*
X193633Y91040D01*
X193587Y91128D01*
X193518Y91201D01*
X193478Y91257D01*
X193335Y91400D01*
X193265Y91452D01*
X193201Y91512D01*
X193152Y91538D01*
X193107Y91571D01*
X193026Y91602D01*
X192948Y91642D01*
X192900Y91650D01*
X192842Y91672D01*
X192694Y91684D01*
X192617Y91697D01*
X189433Y91697D01*
X189346Y91685D01*
X189259Y91682D01*
X189206Y91665D01*
X189151Y91657D01*
X189071Y91622D01*
X188988Y91595D01*
X188949Y91567D01*
X188892Y91541D01*
X188779Y91445D01*
X188715Y91400D01*
X171378Y74063D01*
X171360Y74039D01*
X171338Y74020D01*
X171275Y73926D01*
X171207Y73836D01*
X171196Y73808D01*
X171180Y73784D01*
X171146Y73676D01*
X171106Y73570D01*
X171103Y73541D01*
X171094Y73513D01*
X171091Y73399D01*
X171082Y73287D01*
X171088Y73258D01*
X171087Y73229D01*
X171116Y73119D01*
X171138Y73008D01*
X171151Y72982D01*
X171159Y72954D01*
X171197Y72890D01*
X171197Y67375D01*
X165691Y67375D01*
X165666Y67392D01*
X165618Y67407D01*
X165574Y67431D01*
X165483Y67450D01*
X165395Y67478D01*
X165345Y67479D01*
X165296Y67489D01*
X165203Y67483D01*
X165111Y67485D01*
X165062Y67472D01*
X165012Y67469D01*
X164925Y67437D01*
X164836Y67413D01*
X164793Y67388D01*
X164746Y67370D01*
X164671Y67315D01*
X164591Y67268D01*
X164557Y67232D01*
X164517Y67202D01*
X164473Y67142D01*
X164397Y67061D01*
X164356Y66982D01*
X164319Y66931D01*
X164319Y66930D01*
X164298Y66867D01*
X164267Y66808D01*
X164267Y66807D01*
X164257Y66745D01*
X164229Y66661D01*
X164224Y66549D01*
X164212Y66476D01*
X164212Y60813D01*
X162519Y59120D01*
X162306Y59120D01*
X162248Y59112D01*
X162190Y59114D01*
X162108Y59092D01*
X162024Y59080D01*
X161971Y59057D01*
X161915Y59042D01*
X161842Y58999D01*
X161765Y58964D01*
X161720Y58926D01*
X161670Y58897D01*
X161612Y58835D01*
X161548Y58781D01*
X161516Y58732D01*
X161476Y58689D01*
X161437Y58614D01*
X161390Y58544D01*
X161373Y58488D01*
X161346Y58436D01*
X161335Y58368D01*
X161305Y58273D01*
X161302Y58173D01*
X161291Y58105D01*
X161291Y35716D01*
X147950Y22375D01*
X147915Y22329D01*
X147873Y22288D01*
X147830Y22216D01*
X147779Y22148D01*
X147758Y22094D01*
X147729Y22043D01*
X147708Y21961D01*
X147678Y21883D01*
X147673Y21824D01*
X147659Y21768D01*
X147661Y21683D01*
X147655Y21599D01*
X147666Y21542D01*
X147668Y21483D01*
X147694Y21403D01*
X147710Y21321D01*
X147737Y21269D01*
X147755Y21213D01*
X147795Y21157D01*
X147841Y21068D01*
X147910Y20996D01*
X147950Y20940D01*
X148206Y20684D01*
X149734Y16996D01*
X149734Y13004D01*
X148206Y9316D01*
X145831Y6941D01*
X145813Y6917D01*
X145791Y6898D01*
X145728Y6804D01*
X145660Y6714D01*
X145649Y6686D01*
X145633Y6662D01*
X145599Y6554D01*
X145559Y6448D01*
X145556Y6419D01*
X145547Y6391D01*
X145544Y6277D01*
X145535Y6165D01*
X145541Y6136D01*
X145540Y6107D01*
X145569Y5997D01*
X145591Y5886D01*
X145604Y5860D01*
X145612Y5832D01*
X145670Y5734D01*
X145722Y5634D01*
X145742Y5612D01*
X145757Y5587D01*
X145840Y5510D01*
X145918Y5428D01*
X145943Y5413D01*
X145964Y5393D01*
X146065Y5341D01*
X146163Y5284D01*
X146191Y5277D01*
X146218Y5263D01*
X146295Y5250D01*
X146438Y5214D01*
X146501Y5216D01*
X146549Y5208D01*
X157174Y5208D01*
X157203Y5212D01*
G37*
G36*
X77909Y5216D02*
X77909Y5216D01*
X77967Y5214D01*
X78049Y5236D01*
X78133Y5248D01*
X78186Y5271D01*
X78242Y5286D01*
X78315Y5329D01*
X78392Y5364D01*
X78437Y5402D01*
X78487Y5431D01*
X78545Y5493D01*
X78609Y5547D01*
X78641Y5596D01*
X78681Y5639D01*
X78720Y5714D01*
X78767Y5784D01*
X78784Y5840D01*
X78811Y5892D01*
X78822Y5960D01*
X78852Y6055D01*
X78855Y6155D01*
X78866Y6223D01*
X78866Y23992D01*
X79908Y25034D01*
X85090Y25034D01*
X85148Y25042D01*
X85206Y25040D01*
X85288Y25062D01*
X85372Y25074D01*
X85425Y25097D01*
X85481Y25112D01*
X85554Y25155D01*
X85631Y25190D01*
X85676Y25228D01*
X85726Y25257D01*
X85784Y25319D01*
X85848Y25373D01*
X85880Y25422D01*
X85920Y25465D01*
X85959Y25540D01*
X86006Y25610D01*
X86023Y25666D01*
X86050Y25718D01*
X86061Y25786D01*
X86091Y25881D01*
X86094Y25981D01*
X86105Y26049D01*
X86105Y50238D01*
X86093Y50324D01*
X86090Y50412D01*
X86073Y50465D01*
X86065Y50519D01*
X86030Y50599D01*
X86003Y50682D01*
X85975Y50722D01*
X85949Y50779D01*
X85853Y50892D01*
X85808Y50956D01*
X56840Y79924D01*
X56770Y79976D01*
X56706Y80036D01*
X56657Y80062D01*
X56613Y80095D01*
X56531Y80126D01*
X56453Y80166D01*
X56405Y80174D01*
X56347Y80196D01*
X56199Y80208D01*
X56122Y80221D01*
X44513Y80221D01*
X43471Y81263D01*
X43471Y88737D01*
X44017Y89282D01*
X44052Y89329D01*
X44094Y89369D01*
X44137Y89442D01*
X44187Y89509D01*
X44208Y89564D01*
X44238Y89614D01*
X44259Y89696D01*
X44289Y89775D01*
X44294Y89833D01*
X44308Y89890D01*
X44305Y89974D01*
X44312Y90058D01*
X44301Y90116D01*
X44299Y90174D01*
X44273Y90254D01*
X44256Y90337D01*
X44229Y90389D01*
X44211Y90445D01*
X44171Y90501D01*
X44125Y90589D01*
X44057Y90662D01*
X44017Y90718D01*
X43471Y91263D01*
X43471Y98737D01*
X44017Y99282D01*
X44052Y99329D01*
X44094Y99369D01*
X44137Y99442D01*
X44187Y99509D01*
X44208Y99564D01*
X44238Y99614D01*
X44259Y99696D01*
X44289Y99775D01*
X44294Y99833D01*
X44308Y99890D01*
X44305Y99974D01*
X44312Y100058D01*
X44301Y100116D01*
X44299Y100174D01*
X44273Y100254D01*
X44256Y100337D01*
X44229Y100389D01*
X44211Y100445D01*
X44171Y100501D01*
X44125Y100589D01*
X44057Y100662D01*
X44017Y100718D01*
X43471Y101263D01*
X43471Y108737D01*
X43478Y108743D01*
X43513Y108790D01*
X43555Y108830D01*
X43598Y108903D01*
X43649Y108970D01*
X43669Y109025D01*
X43699Y109076D01*
X43720Y109157D01*
X43750Y109236D01*
X43755Y109294D01*
X43769Y109351D01*
X43767Y109435D01*
X43774Y109519D01*
X43762Y109577D01*
X43760Y109635D01*
X43734Y109716D01*
X43718Y109798D01*
X43691Y109850D01*
X43673Y109906D01*
X43633Y109962D01*
X43587Y110050D01*
X43518Y110123D01*
X43478Y110179D01*
X43217Y110440D01*
X42882Y111019D01*
X42709Y111666D01*
X42709Y113501D01*
X51516Y113501D01*
X51574Y113509D01*
X51632Y113507D01*
X51714Y113529D01*
X51797Y113541D01*
X51851Y113564D01*
X51907Y113579D01*
X51980Y113622D01*
X51999Y113631D01*
X52045Y113600D01*
X52101Y113583D01*
X52153Y113556D01*
X52221Y113545D01*
X52316Y113515D01*
X52416Y113512D01*
X52484Y113501D01*
X61291Y113501D01*
X61291Y111666D01*
X61118Y111019D01*
X60783Y110440D01*
X60522Y110179D01*
X60487Y110132D01*
X60445Y110092D01*
X60402Y110019D01*
X60351Y109952D01*
X60330Y109897D01*
X60301Y109847D01*
X60280Y109765D01*
X60250Y109686D01*
X60245Y109628D01*
X60231Y109571D01*
X60233Y109487D01*
X60226Y109403D01*
X60238Y109345D01*
X60240Y109287D01*
X60266Y109207D01*
X60282Y109124D01*
X60309Y109072D01*
X60327Y109017D01*
X60367Y108960D01*
X60413Y108872D01*
X60482Y108800D01*
X60522Y108743D01*
X60666Y108600D01*
X60735Y108547D01*
X60799Y108488D01*
X60848Y108462D01*
X60893Y108429D01*
X60974Y108398D01*
X61052Y108358D01*
X61100Y108350D01*
X61158Y108328D01*
X61306Y108316D01*
X61383Y108303D01*
X67020Y108303D01*
X67107Y108315D01*
X67194Y108318D01*
X67247Y108335D01*
X67302Y108343D01*
X67381Y108378D01*
X67465Y108405D01*
X67504Y108433D01*
X67561Y108459D01*
X67674Y108555D01*
X67738Y108600D01*
X68867Y109729D01*
X73164Y109729D01*
X73193Y109733D01*
X73222Y109730D01*
X73333Y109753D01*
X73445Y109769D01*
X73472Y109781D01*
X73501Y109786D01*
X73602Y109839D01*
X73705Y109885D01*
X73727Y109904D01*
X73753Y109917D01*
X73835Y109995D01*
X73922Y110068D01*
X73938Y110093D01*
X73959Y110113D01*
X74016Y110211D01*
X74079Y110305D01*
X74088Y110333D01*
X74103Y110358D01*
X74131Y110468D01*
X74165Y110576D01*
X74166Y110606D01*
X74173Y110634D01*
X74170Y110747D01*
X74172Y110860D01*
X74165Y110889D01*
X74164Y110918D01*
X74129Y111026D01*
X74101Y111135D01*
X74086Y111161D01*
X74077Y111189D01*
X74031Y111253D01*
X73955Y111380D01*
X73910Y111423D01*
X73906Y111430D01*
X73903Y111432D01*
X73882Y111462D01*
X72800Y112544D01*
X70865Y114478D01*
X70865Y158218D01*
X91269Y178621D01*
X91321Y178691D01*
X91381Y178755D01*
X91407Y178804D01*
X91440Y178848D01*
X91471Y178930D01*
X91511Y179008D01*
X91519Y179056D01*
X91541Y179114D01*
X91553Y179262D01*
X91566Y179339D01*
X91566Y193777D01*
X91558Y193835D01*
X91560Y193893D01*
X91538Y193975D01*
X91526Y194059D01*
X91503Y194112D01*
X91488Y194168D01*
X91445Y194241D01*
X91410Y194318D01*
X91372Y194363D01*
X91343Y194413D01*
X91281Y194471D01*
X91227Y194535D01*
X91178Y194567D01*
X91135Y194607D01*
X91060Y194646D01*
X90990Y194693D01*
X90934Y194710D01*
X90882Y194737D01*
X90814Y194748D01*
X90719Y194778D01*
X90619Y194781D01*
X90551Y194792D01*
X6223Y194792D01*
X6165Y194784D01*
X6107Y194786D01*
X6025Y194764D01*
X5941Y194752D01*
X5888Y194729D01*
X5832Y194714D01*
X5759Y194671D01*
X5682Y194636D01*
X5637Y194598D01*
X5587Y194569D01*
X5529Y194507D01*
X5465Y194453D01*
X5433Y194404D01*
X5393Y194361D01*
X5354Y194286D01*
X5307Y194216D01*
X5290Y194160D01*
X5263Y194108D01*
X5252Y194040D01*
X5222Y193945D01*
X5219Y193845D01*
X5208Y193777D01*
X5208Y137556D01*
X5216Y137498D01*
X5214Y137440D01*
X5236Y137358D01*
X5248Y137274D01*
X5271Y137221D01*
X5286Y137165D01*
X5329Y137092D01*
X5364Y137015D01*
X5402Y136970D01*
X5431Y136920D01*
X5493Y136862D01*
X5547Y136798D01*
X5596Y136766D01*
X5639Y136726D01*
X5714Y136687D01*
X5784Y136640D01*
X5840Y136623D01*
X5892Y136596D01*
X5960Y136585D01*
X6055Y136555D01*
X6155Y136552D01*
X6223Y136541D01*
X13219Y136541D01*
X13219Y129016D01*
X13226Y128966D01*
X13225Y128952D01*
X13227Y128947D01*
X13225Y128900D01*
X13247Y128818D01*
X13259Y128735D01*
X13283Y128681D01*
X13297Y128625D01*
X13340Y128552D01*
X13375Y128475D01*
X13413Y128431D01*
X13443Y128380D01*
X13504Y128323D01*
X13559Y128258D01*
X13607Y128226D01*
X13650Y128186D01*
X13725Y128147D01*
X13795Y128101D01*
X13851Y128083D01*
X13903Y128056D01*
X13971Y128045D01*
X14066Y128015D01*
X14166Y128012D01*
X14234Y128001D01*
X15251Y128001D01*
X15251Y127999D01*
X14234Y127999D01*
X14176Y127991D01*
X14118Y127992D01*
X14036Y127971D01*
X13953Y127959D01*
X13899Y127935D01*
X13843Y127921D01*
X13770Y127878D01*
X13693Y127843D01*
X13648Y127805D01*
X13598Y127775D01*
X13540Y127714D01*
X13476Y127659D01*
X13444Y127611D01*
X13404Y127568D01*
X13365Y127493D01*
X13319Y127423D01*
X13301Y127367D01*
X13274Y127315D01*
X13263Y127247D01*
X13233Y127152D01*
X13230Y127052D01*
X13219Y126984D01*
X13219Y119459D01*
X6223Y119459D01*
X6165Y119451D01*
X6107Y119453D01*
X6025Y119431D01*
X5941Y119419D01*
X5888Y119396D01*
X5832Y119381D01*
X5759Y119338D01*
X5682Y119303D01*
X5637Y119265D01*
X5587Y119236D01*
X5529Y119174D01*
X5465Y119120D01*
X5433Y119071D01*
X5393Y119028D01*
X5354Y118953D01*
X5307Y118883D01*
X5290Y118827D01*
X5263Y118775D01*
X5252Y118707D01*
X5222Y118612D01*
X5219Y118512D01*
X5208Y118444D01*
X5208Y81556D01*
X5216Y81498D01*
X5214Y81440D01*
X5236Y81358D01*
X5248Y81274D01*
X5271Y81221D01*
X5286Y81165D01*
X5329Y81092D01*
X5364Y81015D01*
X5402Y80970D01*
X5431Y80920D01*
X5493Y80862D01*
X5547Y80798D01*
X5596Y80766D01*
X5639Y80726D01*
X5714Y80687D01*
X5784Y80640D01*
X5840Y80623D01*
X5892Y80596D01*
X5960Y80585D01*
X6055Y80555D01*
X6155Y80552D01*
X6223Y80541D01*
X13219Y80541D01*
X13219Y73016D01*
X13227Y72958D01*
X13225Y72900D01*
X13247Y72818D01*
X13259Y72735D01*
X13283Y72681D01*
X13297Y72625D01*
X13340Y72552D01*
X13375Y72475D01*
X13413Y72431D01*
X13443Y72380D01*
X13504Y72323D01*
X13559Y72258D01*
X13607Y72226D01*
X13650Y72186D01*
X13725Y72147D01*
X13795Y72101D01*
X13851Y72083D01*
X13903Y72056D01*
X13971Y72045D01*
X14066Y72015D01*
X14166Y72012D01*
X14234Y72001D01*
X15251Y72001D01*
X15251Y71999D01*
X14234Y71999D01*
X14176Y71991D01*
X14118Y71992D01*
X14036Y71971D01*
X13953Y71959D01*
X13899Y71935D01*
X13843Y71921D01*
X13770Y71878D01*
X13693Y71843D01*
X13648Y71805D01*
X13598Y71775D01*
X13540Y71714D01*
X13476Y71659D01*
X13444Y71611D01*
X13404Y71568D01*
X13365Y71493D01*
X13319Y71423D01*
X13301Y71367D01*
X13274Y71315D01*
X13263Y71247D01*
X13233Y71152D01*
X13230Y71052D01*
X13219Y70984D01*
X13219Y63459D01*
X6223Y63459D01*
X6165Y63451D01*
X6107Y63453D01*
X6025Y63431D01*
X5941Y63419D01*
X5888Y63396D01*
X5832Y63381D01*
X5759Y63338D01*
X5682Y63303D01*
X5637Y63265D01*
X5587Y63236D01*
X5529Y63174D01*
X5465Y63120D01*
X5433Y63071D01*
X5393Y63028D01*
X5354Y62953D01*
X5307Y62883D01*
X5290Y62827D01*
X5263Y62775D01*
X5252Y62707D01*
X5222Y62612D01*
X5219Y62512D01*
X5208Y62444D01*
X5208Y34229D01*
X5220Y34144D01*
X5222Y34058D01*
X5240Y34004D01*
X5248Y33948D01*
X5283Y33869D01*
X5309Y33787D01*
X5341Y33740D01*
X5364Y33688D01*
X5419Y33623D01*
X5467Y33551D01*
X5511Y33515D01*
X5547Y33471D01*
X5619Y33424D01*
X5685Y33368D01*
X5737Y33345D01*
X5784Y33314D01*
X5866Y33288D01*
X5945Y33253D01*
X6001Y33245D01*
X6055Y33228D01*
X6141Y33226D01*
X6226Y33214D01*
X6282Y33222D01*
X6339Y33220D01*
X6422Y33242D01*
X6507Y33254D01*
X6559Y33278D01*
X6614Y33292D01*
X6688Y33336D01*
X6767Y33372D01*
X6810Y33408D01*
X6859Y33438D01*
X6918Y33500D01*
X6983Y33556D01*
X7009Y33598D01*
X7053Y33645D01*
X7119Y33774D01*
X7161Y33841D01*
X8376Y36775D01*
X14025Y42424D01*
X21406Y45481D01*
X29394Y45481D01*
X36775Y42424D01*
X42424Y36775D01*
X45481Y29394D01*
X45481Y21406D01*
X42424Y14025D01*
X36775Y8376D01*
X33840Y7161D01*
X33767Y7117D01*
X33688Y7082D01*
X33645Y7045D01*
X33596Y7016D01*
X33537Y6954D01*
X33471Y6898D01*
X33440Y6851D01*
X33400Y6810D01*
X33361Y6733D01*
X33313Y6662D01*
X33296Y6608D01*
X33270Y6557D01*
X33254Y6473D01*
X33228Y6391D01*
X33226Y6334D01*
X33215Y6278D01*
X33223Y6193D01*
X33220Y6107D01*
X33235Y6052D01*
X33240Y5995D01*
X33271Y5915D01*
X33292Y5832D01*
X33321Y5783D01*
X33342Y5730D01*
X33394Y5661D01*
X33437Y5587D01*
X33479Y5548D01*
X33513Y5503D01*
X33582Y5451D01*
X33645Y5393D01*
X33696Y5367D01*
X33741Y5333D01*
X33821Y5302D01*
X33898Y5263D01*
X33947Y5255D01*
X34007Y5232D01*
X34152Y5221D01*
X34229Y5208D01*
X77851Y5208D01*
X77909Y5216D01*
G37*
G36*
X107480Y5212D02*
X107480Y5212D01*
X107510Y5209D01*
X107621Y5232D01*
X107733Y5248D01*
X107760Y5260D01*
X107788Y5265D01*
X107889Y5318D01*
X107992Y5364D01*
X108015Y5383D01*
X108041Y5396D01*
X108123Y5474D01*
X108209Y5547D01*
X108226Y5572D01*
X108247Y5592D01*
X108304Y5690D01*
X108367Y5784D01*
X108376Y5812D01*
X108391Y5837D01*
X108418Y5947D01*
X108453Y6055D01*
X108453Y6085D01*
X108461Y6113D01*
X108457Y6226D01*
X108460Y6339D01*
X108453Y6368D01*
X108452Y6397D01*
X108417Y6505D01*
X108388Y6614D01*
X108373Y6640D01*
X108364Y6668D01*
X108319Y6731D01*
X108243Y6859D01*
X108197Y6902D01*
X108169Y6941D01*
X105794Y9316D01*
X104266Y13004D01*
X104266Y16996D01*
X105794Y20684D01*
X108616Y23506D01*
X110879Y24443D01*
X110880Y24444D01*
X110881Y24444D01*
X111002Y24516D01*
X111123Y24588D01*
X111124Y24589D01*
X111126Y24590D01*
X111223Y24694D01*
X111319Y24794D01*
X111319Y24796D01*
X111320Y24797D01*
X111384Y24922D01*
X111449Y25047D01*
X111449Y25049D01*
X111450Y25050D01*
X111452Y25065D01*
X111504Y25326D01*
X111501Y25357D01*
X111505Y25381D01*
X111505Y35760D01*
X111493Y35846D01*
X111490Y35934D01*
X111473Y35987D01*
X111465Y36041D01*
X111430Y36121D01*
X111403Y36204D01*
X111375Y36244D01*
X111349Y36301D01*
X111253Y36414D01*
X111208Y36478D01*
X62262Y85424D01*
X62238Y85441D01*
X62219Y85464D01*
X62125Y85527D01*
X62035Y85595D01*
X62007Y85605D01*
X61983Y85621D01*
X61875Y85656D01*
X61769Y85696D01*
X61740Y85698D01*
X61712Y85707D01*
X61598Y85710D01*
X61486Y85719D01*
X61457Y85714D01*
X61428Y85714D01*
X61318Y85686D01*
X61207Y85664D01*
X61181Y85650D01*
X61153Y85643D01*
X61055Y85585D01*
X60955Y85533D01*
X60933Y85512D01*
X60908Y85497D01*
X60831Y85415D01*
X60749Y85337D01*
X60734Y85311D01*
X60714Y85290D01*
X60662Y85189D01*
X60605Y85092D01*
X60598Y85063D01*
X60584Y85037D01*
X60571Y84960D01*
X60535Y84816D01*
X60537Y84754D01*
X60529Y84706D01*
X60529Y84560D01*
X60541Y84474D01*
X60544Y84386D01*
X60561Y84333D01*
X60569Y84279D01*
X60604Y84199D01*
X60631Y84116D01*
X60659Y84076D01*
X60685Y84019D01*
X60781Y83906D01*
X60826Y83842D01*
X91695Y52974D01*
X91695Y26049D01*
X91703Y25991D01*
X91701Y25933D01*
X91723Y25851D01*
X91735Y25767D01*
X91758Y25714D01*
X91773Y25658D01*
X91816Y25585D01*
X91851Y25508D01*
X91889Y25463D01*
X91918Y25413D01*
X91980Y25355D01*
X92034Y25291D01*
X92083Y25259D01*
X92126Y25219D01*
X92201Y25180D01*
X92271Y25133D01*
X92327Y25116D01*
X92379Y25089D01*
X92447Y25078D01*
X92542Y25048D01*
X92642Y25045D01*
X92710Y25034D01*
X97892Y25034D01*
X98934Y23992D01*
X98934Y6223D01*
X98942Y6165D01*
X98940Y6107D01*
X98962Y6025D01*
X98974Y5941D01*
X98997Y5888D01*
X99012Y5832D01*
X99055Y5759D01*
X99090Y5682D01*
X99128Y5637D01*
X99157Y5587D01*
X99219Y5529D01*
X99273Y5465D01*
X99322Y5433D01*
X99365Y5393D01*
X99440Y5354D01*
X99510Y5307D01*
X99566Y5290D01*
X99618Y5263D01*
X99686Y5252D01*
X99781Y5222D01*
X99881Y5219D01*
X99949Y5208D01*
X107451Y5208D01*
X107480Y5212D01*
G37*
%LPC*%
G36*
X133137Y127446D02*
X133137Y127446D01*
X131444Y129139D01*
X131444Y135521D01*
X131432Y135607D01*
X131429Y135695D01*
X131412Y135748D01*
X131404Y135802D01*
X131369Y135882D01*
X131342Y135965D01*
X131314Y136005D01*
X131288Y136062D01*
X131192Y136175D01*
X131147Y136239D01*
X130047Y137338D01*
X130047Y141090D01*
X130035Y141177D01*
X130032Y141264D01*
X130015Y141317D01*
X130007Y141372D01*
X129972Y141451D01*
X129945Y141535D01*
X129917Y141574D01*
X129891Y141631D01*
X129795Y141744D01*
X129750Y141808D01*
X128015Y143543D01*
X128015Y147541D01*
X130843Y150369D01*
X134841Y150369D01*
X137669Y147541D01*
X137669Y143543D01*
X135934Y141808D01*
X135882Y141738D01*
X135822Y141674D01*
X135796Y141625D01*
X135763Y141581D01*
X135732Y141499D01*
X135692Y141421D01*
X135684Y141374D01*
X135662Y141315D01*
X135650Y141168D01*
X135637Y141090D01*
X135637Y140909D01*
X135645Y140851D01*
X135643Y140793D01*
X135665Y140711D01*
X135677Y140627D01*
X135700Y140574D01*
X135715Y140518D01*
X135758Y140445D01*
X135793Y140368D01*
X135831Y140323D01*
X135860Y140273D01*
X135922Y140215D01*
X135976Y140151D01*
X136025Y140119D01*
X136068Y140079D01*
X136143Y140040D01*
X136213Y139993D01*
X136269Y139976D01*
X136321Y139949D01*
X136389Y139938D01*
X136484Y139908D01*
X136584Y139905D01*
X136652Y139894D01*
X142199Y139894D01*
X143892Y138201D01*
X143892Y129139D01*
X142199Y127446D01*
X133137Y127446D01*
G37*
%LPD*%
G36*
X132880Y5212D02*
X132880Y5212D01*
X132910Y5209D01*
X133021Y5232D01*
X133133Y5248D01*
X133160Y5260D01*
X133188Y5265D01*
X133289Y5318D01*
X133392Y5364D01*
X133415Y5383D01*
X133441Y5396D01*
X133523Y5474D01*
X133609Y5547D01*
X133626Y5572D01*
X133647Y5592D01*
X133704Y5690D01*
X133767Y5784D01*
X133776Y5812D01*
X133791Y5837D01*
X133818Y5947D01*
X133853Y6055D01*
X133853Y6085D01*
X133861Y6113D01*
X133857Y6226D01*
X133860Y6339D01*
X133853Y6368D01*
X133852Y6397D01*
X133817Y6505D01*
X133788Y6614D01*
X133773Y6640D01*
X133764Y6668D01*
X133719Y6731D01*
X133643Y6859D01*
X133597Y6902D01*
X133569Y6941D01*
X131194Y9316D01*
X129666Y13004D01*
X129666Y16996D01*
X131194Y20684D01*
X131450Y20940D01*
X131485Y20986D01*
X131527Y21027D01*
X131570Y21099D01*
X131621Y21167D01*
X131642Y21222D01*
X131671Y21272D01*
X131692Y21353D01*
X131722Y21432D01*
X131727Y21491D01*
X131741Y21547D01*
X131738Y21632D01*
X131746Y21716D01*
X131734Y21773D01*
X131732Y21832D01*
X131706Y21912D01*
X131690Y21995D01*
X131663Y22046D01*
X131645Y22102D01*
X131605Y22158D01*
X131559Y22247D01*
X131490Y22319D01*
X131450Y22375D01*
X118828Y34997D01*
X118804Y35015D01*
X118785Y35037D01*
X118691Y35100D01*
X118601Y35168D01*
X118573Y35179D01*
X118549Y35195D01*
X118441Y35229D01*
X118335Y35269D01*
X118306Y35272D01*
X118278Y35281D01*
X118164Y35284D01*
X118052Y35293D01*
X118023Y35287D01*
X117994Y35288D01*
X117884Y35259D01*
X117773Y35237D01*
X117747Y35224D01*
X117719Y35216D01*
X117621Y35158D01*
X117521Y35106D01*
X117499Y35086D01*
X117474Y35071D01*
X117397Y34988D01*
X117315Y34910D01*
X117300Y34885D01*
X117280Y34864D01*
X117228Y34763D01*
X117171Y34665D01*
X117164Y34637D01*
X117150Y34611D01*
X117137Y34533D01*
X117101Y34390D01*
X117103Y34327D01*
X117095Y34279D01*
X117095Y25381D01*
X117095Y25380D01*
X117095Y25378D01*
X117115Y25237D01*
X117135Y25100D01*
X117135Y25098D01*
X117135Y25097D01*
X117194Y24967D01*
X117251Y24840D01*
X117252Y24839D01*
X117253Y24838D01*
X117344Y24730D01*
X117434Y24623D01*
X117436Y24622D01*
X117437Y24621D01*
X117450Y24613D01*
X117671Y24466D01*
X117700Y24456D01*
X117721Y24443D01*
X119984Y23506D01*
X122806Y20684D01*
X124334Y16996D01*
X124334Y13004D01*
X122806Y9316D01*
X120431Y6941D01*
X120413Y6917D01*
X120391Y6898D01*
X120328Y6804D01*
X120260Y6714D01*
X120249Y6686D01*
X120233Y6662D01*
X120199Y6554D01*
X120159Y6448D01*
X120156Y6419D01*
X120147Y6391D01*
X120144Y6277D01*
X120135Y6165D01*
X120141Y6136D01*
X120140Y6107D01*
X120169Y5997D01*
X120191Y5886D01*
X120204Y5860D01*
X120212Y5832D01*
X120270Y5734D01*
X120322Y5634D01*
X120342Y5612D01*
X120357Y5587D01*
X120440Y5510D01*
X120518Y5428D01*
X120543Y5413D01*
X120564Y5393D01*
X120665Y5341D01*
X120763Y5284D01*
X120791Y5277D01*
X120818Y5263D01*
X120895Y5250D01*
X121038Y5214D01*
X121101Y5216D01*
X121149Y5208D01*
X132851Y5208D01*
X132880Y5212D01*
G37*
G36*
X159207Y71580D02*
X159207Y71580D01*
X159294Y71583D01*
X159347Y71600D01*
X159402Y71608D01*
X159482Y71643D01*
X159565Y71670D01*
X159604Y71698D01*
X159661Y71724D01*
X159775Y71820D01*
X159838Y71865D01*
X186276Y98303D01*
X192617Y98303D01*
X192703Y98315D01*
X192791Y98318D01*
X192843Y98335D01*
X192898Y98343D01*
X192978Y98378D01*
X193061Y98405D01*
X193101Y98433D01*
X193158Y98459D01*
X193271Y98555D01*
X193335Y98600D01*
X194017Y99282D01*
X194052Y99329D01*
X194094Y99369D01*
X194137Y99442D01*
X194187Y99509D01*
X194208Y99564D01*
X194238Y99614D01*
X194259Y99696D01*
X194289Y99775D01*
X194294Y99833D01*
X194308Y99890D01*
X194305Y99974D01*
X194312Y100058D01*
X194301Y100116D01*
X194299Y100174D01*
X194273Y100254D01*
X194256Y100337D01*
X194229Y100389D01*
X194211Y100445D01*
X194171Y100501D01*
X194125Y100589D01*
X194057Y100662D01*
X194017Y100718D01*
X193464Y101271D01*
X193465Y101306D01*
X193443Y101388D01*
X193431Y101472D01*
X193408Y101525D01*
X193393Y101581D01*
X193350Y101654D01*
X193315Y101731D01*
X193277Y101776D01*
X193248Y101826D01*
X193186Y101884D01*
X193132Y101948D01*
X193083Y101980D01*
X193040Y102020D01*
X192965Y102059D01*
X192895Y102106D01*
X192839Y102123D01*
X192787Y102150D01*
X192719Y102161D01*
X192624Y102191D01*
X192524Y102194D01*
X192456Y102205D01*
X184382Y102205D01*
X184295Y102193D01*
X184208Y102190D01*
X184155Y102173D01*
X184100Y102165D01*
X184021Y102130D01*
X183937Y102103D01*
X183898Y102075D01*
X183841Y102049D01*
X183728Y101953D01*
X183664Y101908D01*
X181831Y100075D01*
X177800Y100075D01*
X177742Y100067D01*
X177684Y100069D01*
X177602Y100047D01*
X177518Y100035D01*
X177465Y100012D01*
X177409Y99997D01*
X177336Y99954D01*
X177259Y99919D01*
X177214Y99881D01*
X177164Y99852D01*
X177106Y99790D01*
X177042Y99736D01*
X177010Y99687D01*
X176970Y99644D01*
X176931Y99569D01*
X176884Y99499D01*
X176867Y99443D01*
X176840Y99391D01*
X176829Y99323D01*
X176799Y99228D01*
X176796Y99128D01*
X176785Y99060D01*
X176785Y95054D01*
X155031Y73301D01*
X155014Y73277D01*
X154991Y73258D01*
X154929Y73164D01*
X154861Y73074D01*
X154850Y73046D01*
X154834Y73022D01*
X154800Y72914D01*
X154759Y72808D01*
X154757Y72779D01*
X154748Y72751D01*
X154745Y72637D01*
X154736Y72525D01*
X154741Y72496D01*
X154741Y72467D01*
X154769Y72357D01*
X154792Y72246D01*
X154805Y72220D01*
X154813Y72192D01*
X154870Y72094D01*
X154923Y71994D01*
X154943Y71972D01*
X154958Y71947D01*
X155040Y71870D01*
X155118Y71788D01*
X155144Y71773D01*
X155165Y71753D01*
X155266Y71701D01*
X155364Y71644D01*
X155392Y71637D01*
X155418Y71623D01*
X155496Y71610D01*
X155639Y71574D01*
X155702Y71576D01*
X155749Y71568D01*
X159120Y71568D01*
X159207Y71580D01*
G37*
%LPC*%
G36*
X17281Y130031D02*
X17281Y130031D01*
X17281Y136541D01*
X25584Y136541D01*
X26231Y136368D01*
X26810Y136033D01*
X27283Y135560D01*
X27618Y134981D01*
X27791Y134334D01*
X27791Y130031D01*
X17281Y130031D01*
G37*
%LPD*%
%LPC*%
G36*
X17281Y74031D02*
X17281Y74031D01*
X17281Y80541D01*
X25584Y80541D01*
X26231Y80368D01*
X26810Y80033D01*
X27283Y79560D01*
X27618Y78981D01*
X27791Y78334D01*
X27791Y74031D01*
X17281Y74031D01*
G37*
%LPD*%
%LPC*%
G36*
X226209Y130031D02*
X226209Y130031D01*
X226209Y134334D01*
X226382Y134981D01*
X226717Y135560D01*
X227190Y136033D01*
X227769Y136368D01*
X228416Y136541D01*
X236719Y136541D01*
X236719Y130031D01*
X226209Y130031D01*
G37*
%LPD*%
%LPC*%
G36*
X226209Y74031D02*
X226209Y74031D01*
X226209Y78334D01*
X226382Y78981D01*
X226717Y79560D01*
X227190Y80033D01*
X227769Y80368D01*
X228416Y80541D01*
X236719Y80541D01*
X236719Y74031D01*
X226209Y74031D01*
G37*
%LPD*%
%LPC*%
G36*
X17281Y119459D02*
X17281Y119459D01*
X17281Y125969D01*
X27791Y125969D01*
X27791Y121666D01*
X27618Y121019D01*
X27283Y120440D01*
X26810Y119967D01*
X26231Y119632D01*
X25584Y119459D01*
X17281Y119459D01*
G37*
%LPD*%
%LPC*%
G36*
X17281Y63459D02*
X17281Y63459D01*
X17281Y69969D01*
X27791Y69969D01*
X27791Y65666D01*
X27618Y65019D01*
X27283Y64440D01*
X26810Y63967D01*
X26231Y63632D01*
X25584Y63459D01*
X17281Y63459D01*
G37*
%LPD*%
%LPC*%
G36*
X228416Y119459D02*
X228416Y119459D01*
X227769Y119632D01*
X227190Y119967D01*
X226717Y120440D01*
X226382Y121019D01*
X226209Y121666D01*
X226209Y125969D01*
X236719Y125969D01*
X236719Y119459D01*
X228416Y119459D01*
G37*
%LPD*%
%LPC*%
G36*
X228416Y63459D02*
X228416Y63459D01*
X227769Y63632D01*
X227190Y63967D01*
X226717Y64440D01*
X226382Y65019D01*
X226209Y65666D01*
X226209Y69969D01*
X236719Y69969D01*
X236719Y63459D01*
X228416Y63459D01*
G37*
%LPD*%
%LPC*%
G36*
X167131Y17031D02*
X167131Y17031D01*
X167131Y25609D01*
X167628Y25530D01*
X169244Y25005D01*
X170758Y24233D01*
X172133Y23234D01*
X173334Y22033D01*
X174333Y20658D01*
X175105Y19144D01*
X175630Y17528D01*
X175709Y17031D01*
X167131Y17031D01*
G37*
%LPD*%
%LPC*%
G36*
X154491Y17031D02*
X154491Y17031D01*
X154570Y17528D01*
X155095Y19144D01*
X155867Y20658D01*
X156866Y22033D01*
X158067Y23234D01*
X159442Y24233D01*
X160956Y25005D01*
X162572Y25530D01*
X163069Y25609D01*
X163069Y17031D01*
X154491Y17031D01*
G37*
%LPD*%
%LPC*%
G36*
X53499Y116499D02*
X53499Y116499D01*
X53499Y120541D01*
X59084Y120541D01*
X59731Y120368D01*
X60310Y120033D01*
X60783Y119560D01*
X61118Y118981D01*
X61291Y118334D01*
X61291Y116499D01*
X53499Y116499D01*
G37*
%LPD*%
%LPC*%
G36*
X42709Y116499D02*
X42709Y116499D01*
X42709Y118334D01*
X42882Y118981D01*
X43217Y119560D01*
X43690Y120033D01*
X44269Y120368D01*
X44916Y120541D01*
X50501Y120541D01*
X50501Y116499D01*
X42709Y116499D01*
G37*
%LPD*%
%LPC*%
G36*
X203499Y79459D02*
X203499Y79459D01*
X203499Y83501D01*
X211291Y83501D01*
X211291Y81666D01*
X211118Y81019D01*
X210783Y80440D01*
X210310Y79967D01*
X209731Y79632D01*
X209084Y79459D01*
X203499Y79459D01*
G37*
%LPD*%
%LPC*%
G36*
X194916Y79459D02*
X194916Y79459D01*
X194269Y79632D01*
X193690Y79967D01*
X193217Y80440D01*
X192882Y81019D01*
X192709Y81666D01*
X192709Y83501D01*
X200501Y83501D01*
X200501Y79459D01*
X194916Y79459D01*
G37*
%LPD*%
%LPC*%
G36*
X175259Y67375D02*
X175259Y67375D01*
X175259Y72330D01*
X177043Y72330D01*
X177971Y72081D01*
X178804Y71600D01*
X179484Y70920D01*
X179965Y70087D01*
X180214Y69159D01*
X180214Y67375D01*
X175259Y67375D01*
G37*
%LPD*%
%LPC*%
G36*
X99821Y123763D02*
X99821Y123763D01*
X99821Y128718D01*
X101605Y128718D01*
X102533Y128469D01*
X103366Y127988D01*
X104046Y127308D01*
X104527Y126475D01*
X104776Y125547D01*
X104776Y123763D01*
X99821Y123763D01*
G37*
%LPD*%
%LPC*%
G36*
X99821Y114746D02*
X99821Y114746D01*
X99821Y119701D01*
X104776Y119701D01*
X104776Y117917D01*
X104527Y116989D01*
X104046Y116156D01*
X103366Y115476D01*
X102533Y114995D01*
X101605Y114746D01*
X99821Y114746D01*
G37*
%LPD*%
%LPC*%
G36*
X175259Y58358D02*
X175259Y58358D01*
X175259Y63313D01*
X180214Y63313D01*
X180214Y61529D01*
X179965Y60601D01*
X179484Y59768D01*
X178804Y59088D01*
X177971Y58607D01*
X177043Y58358D01*
X175259Y58358D01*
G37*
%LPD*%
%LPC*%
G36*
X169413Y58358D02*
X169413Y58358D01*
X168485Y58607D01*
X167652Y59088D01*
X166972Y59768D01*
X166491Y60601D01*
X166242Y61529D01*
X166242Y63313D01*
X171197Y63313D01*
X171197Y58358D01*
X169413Y58358D01*
G37*
%LPD*%
%LPC*%
G36*
X173227Y65343D02*
X173227Y65343D01*
X173227Y65345D01*
X173229Y65345D01*
X173229Y65343D01*
X173227Y65343D01*
G37*
%LPD*%
D10*
X169894Y68678D02*
X176562Y68678D01*
X176562Y62010D01*
X169894Y62010D01*
X169894Y68678D01*
X169894Y64122D02*
X176562Y64122D01*
X176562Y66234D02*
X169894Y66234D01*
X169894Y68346D02*
X176562Y68346D01*
X161322Y68678D02*
X154654Y68678D01*
X161322Y68678D02*
X161322Y62010D01*
X154654Y62010D01*
X154654Y68678D01*
X154654Y64122D02*
X161322Y64122D01*
X161322Y66234D02*
X154654Y66234D01*
X154654Y68346D02*
X161322Y68346D01*
D11*
X88900Y15000D03*
D12*
X114300Y15000D03*
X139700Y15000D03*
X165100Y15000D03*
D13*
X52000Y115000D03*
X52000Y105000D03*
X52000Y95000D03*
X52000Y85000D03*
D14*
X15250Y72000D03*
X15250Y128000D03*
D13*
X202000Y85000D03*
X202000Y95000D03*
X202000Y105000D03*
X202000Y115000D03*
D14*
X238750Y128000D03*
X238750Y72000D03*
D11*
X101600Y185000D03*
D12*
X127000Y185000D03*
X152400Y185000D03*
D10*
X141002Y121764D02*
X141002Y115096D01*
X134334Y115096D01*
X134334Y121764D01*
X141002Y121764D01*
X141002Y117208D02*
X134334Y117208D01*
X134334Y119320D02*
X141002Y119320D01*
X141002Y121432D02*
X134334Y121432D01*
X141002Y130336D02*
X141002Y137004D01*
X141002Y130336D02*
X134334Y130336D01*
X134334Y137004D01*
X141002Y137004D01*
X141002Y132448D02*
X134334Y132448D01*
X134334Y134560D02*
X141002Y134560D01*
X141002Y136672D02*
X134334Y136672D01*
X156242Y121764D02*
X156242Y115096D01*
X149574Y115096D01*
X149574Y121764D01*
X156242Y121764D01*
X156242Y117208D02*
X149574Y117208D01*
X149574Y119320D02*
X156242Y119320D01*
X156242Y121432D02*
X149574Y121432D01*
X156242Y130336D02*
X156242Y137004D01*
X156242Y130336D02*
X149574Y130336D01*
X149574Y137004D01*
X156242Y137004D01*
X156242Y132448D02*
X149574Y132448D01*
X149574Y134560D02*
X156242Y134560D01*
X156242Y136672D02*
X149574Y136672D01*
X86138Y109826D02*
X86138Y103158D01*
X79470Y103158D01*
X79470Y109826D01*
X86138Y109826D01*
X86138Y105270D02*
X79470Y105270D01*
X79470Y107382D02*
X86138Y107382D01*
X86138Y109494D02*
X79470Y109494D01*
X86138Y118398D02*
X86138Y125066D01*
X86138Y118398D02*
X79470Y118398D01*
X79470Y125066D01*
X86138Y125066D01*
X86138Y120510D02*
X79470Y120510D01*
X79470Y122622D02*
X86138Y122622D01*
X86138Y124734D02*
X79470Y124734D01*
X177324Y145002D02*
X177324Y151670D01*
X177324Y145002D02*
X170656Y145002D01*
X170656Y151670D01*
X177324Y151670D01*
X177324Y147114D02*
X170656Y147114D01*
X170656Y149226D02*
X177324Y149226D01*
X177324Y151338D02*
X170656Y151338D01*
X177324Y160242D02*
X177324Y166910D01*
X177324Y160242D02*
X170656Y160242D01*
X170656Y166910D01*
X177324Y166910D01*
X177324Y162354D02*
X170656Y162354D01*
X170656Y164466D02*
X177324Y164466D01*
X177324Y166578D02*
X170656Y166578D01*
D15*
X200178Y153416D03*
X235178Y153416D03*
D10*
X170656Y137004D02*
X170656Y130336D01*
X170656Y137004D02*
X177324Y137004D01*
X177324Y130336D01*
X170656Y130336D01*
X170656Y132448D02*
X177324Y132448D01*
X177324Y134560D02*
X170656Y134560D01*
X170656Y136672D02*
X177324Y136672D01*
X170656Y121764D02*
X170656Y115096D01*
X170656Y121764D02*
X177324Y121764D01*
X177324Y115096D01*
X170656Y115096D01*
X170656Y117208D02*
X177324Y117208D01*
X177324Y119320D02*
X170656Y119320D01*
X170656Y121432D02*
X177324Y121432D01*
X94456Y118398D02*
X94456Y125066D01*
X101124Y125066D01*
X101124Y118398D01*
X94456Y118398D01*
X94456Y120510D02*
X101124Y120510D01*
X101124Y122622D02*
X94456Y122622D01*
X94456Y124734D02*
X101124Y124734D01*
X94456Y109826D02*
X94456Y103158D01*
X94456Y109826D02*
X101124Y109826D01*
X101124Y103158D01*
X94456Y103158D01*
X94456Y105270D02*
X101124Y105270D01*
X101124Y107382D02*
X94456Y107382D01*
X94456Y109494D02*
X101124Y109494D01*
D16*
X116000Y90400D03*
X116000Y84400D03*
X116000Y78400D03*
X116000Y72400D03*
X116000Y66400D03*
X138000Y66400D03*
X138000Y72400D03*
X138000Y78400D03*
X138000Y84400D03*
X138000Y90400D03*
D17*
X127000Y78400D03*
D18*
X129540Y92202D03*
X125222Y87376D03*
X129032Y70104D03*
X125476Y62738D03*
X102362Y8636D03*
X127000Y8636D03*
X152146Y8890D03*
X88138Y83312D03*
X14986Y87122D03*
X14986Y102362D03*
X14986Y115062D03*
X192278Y15240D03*
X183388Y15494D03*
X242570Y86106D03*
X180086Y96774D03*
D19*
X138000Y90400D02*
X138000Y110236D01*
X138000Y118098D01*
X137668Y118430D01*
D18*
X138000Y110236D03*
D19*
X55716Y85000D02*
X52000Y85000D01*
X88900Y51816D02*
X88900Y15000D01*
X88900Y51816D02*
X55716Y85000D01*
X201554Y114554D02*
X202000Y115000D01*
X201554Y114554D02*
X183261Y114554D01*
D18*
X183261Y114554D03*
D19*
X146122Y84400D02*
X138000Y84400D01*
X152908Y91186D02*
X152908Y104902D01*
X152908Y118430D01*
X152908Y91186D02*
X146122Y84400D01*
D18*
X152908Y104902D03*
D19*
X56638Y95000D02*
X52000Y95000D01*
X114300Y37338D02*
X114300Y15000D01*
X114300Y37338D02*
X56638Y95000D01*
X179930Y105000D02*
X202000Y105000D01*
X179930Y105000D02*
X179832Y104902D01*
D18*
X179832Y104902D03*
D19*
X137668Y133670D02*
X132842Y138496D01*
X132842Y145542D01*
D18*
X132842Y145542D03*
D19*
X152908Y133670D02*
X161798Y142560D01*
X161798Y146558D01*
D18*
X161798Y146558D03*
D20*
X156932Y66400D02*
X138000Y66400D01*
X156932Y66400D02*
X157988Y65344D01*
X187644Y95000D02*
X202000Y95000D01*
X187644Y95000D02*
X157988Y65344D01*
X93185Y132113D02*
X82804Y121732D01*
X93185Y132113D02*
X124648Y163576D01*
X145288Y163576D01*
X173990Y163576D01*
D18*
X145288Y163576D03*
X90987Y129993D03*
D20*
X93107Y132113D01*
X93185Y132113D01*
X139700Y18796D02*
X139700Y15000D01*
X70768Y105000D02*
X52000Y105000D01*
X70768Y105000D02*
X70866Y104902D01*
D18*
X70866Y104902D03*
D20*
X70768Y105000D02*
X70768Y87728D01*
X138049Y20447D02*
X139700Y18796D01*
X138049Y20447D02*
X70768Y87728D01*
X157988Y65344D02*
X157988Y37084D01*
X141605Y20701D01*
X139700Y18796D01*
X139700Y15000D01*
X139700Y18796D02*
X141605Y20701D01*
X139700Y18796D02*
X139700Y15000D01*
X139700Y18796D02*
X138049Y20447D01*
D19*
X116000Y78400D02*
X97622Y78400D01*
X97536Y78486D01*
D18*
X97536Y78486D03*
D19*
X138000Y78400D02*
X150790Y78400D01*
X164084Y91694D02*
X164084Y138430D01*
X173990Y148336D01*
X164084Y91694D02*
X150790Y78400D01*
X180086Y142240D02*
X173990Y148336D01*
X224002Y142240D02*
X235178Y153416D01*
X224002Y142240D02*
X180086Y142240D01*
X150178Y72400D02*
X138000Y72400D01*
X173990Y96212D02*
X173990Y118430D01*
X173990Y96212D02*
X150178Y72400D01*
X173990Y118430D02*
X184150Y128590D01*
X184150Y128778D01*
D18*
X184150Y128778D03*
D19*
X116000Y90400D02*
X113882Y90400D01*
X104173Y100109D01*
X97790Y106492D01*
D18*
X104173Y100109D03*
D19*
X104896Y84400D02*
X116000Y84400D01*
X104896Y84400D02*
X82804Y106492D01*
X73660Y157060D02*
X101600Y185000D01*
X73660Y115636D02*
X82804Y106492D01*
X73660Y115636D02*
X73660Y157060D01*
D18*
X124206Y52578D03*
D19*
X116000Y60784D01*
X116000Y66400D01*
X116000Y72400D01*
M02*
