M48
;GenerationSoftware,Autodesk,EAGLE,9.1.1*%
;CreationDate,2018-08-15T03:55:03Z*%
FMAT,2
ICI,OFF
METRIC,TZ,000.000
T4C0.305
T3C0.700
T2C0.889
T1C3.000
%
G90
M71
T1
X2540Y2540
X22860Y2540
T2
X8890Y1500
X11430Y1500
X13970Y1500
X16510Y1500
X10160Y18500
X12700Y18500
X15240Y18500
T3
X23518Y15342
X20018Y15342
T4
X19228Y1524
X18339Y1549
X24257Y8611
X18009Y9677
X13800Y11024
X18326Y11455
X15291Y10490
X17983Y10490
X12954Y9220
X16180Y14656
X14529Y16358
X9099Y12999
X7087Y10490
X9754Y7849
X18415Y12878
X10417Y10011
X12421Y5258
X12522Y8738
X12903Y7010
X12548Y6274
X10236Y864
X12700Y864
X15215Y889
X8814Y8331
X1499Y8712
X1499Y10236
X1499Y11506
X13284Y14554
M30