G04 EAGLE Gerber RS-274X export*
G75*
%MOMM*%
%FSLAX34Y34*%
%LPD*%
%AMOC8*
5,1,8,0,0,1.08239X$1,22.5*%
G01*
%ADD10C,0.101600*%
%ADD11C,0.076200*%
%ADD12C,0.152400*%
%ADD13R,0.120000X0.020000*%
%ADD14R,0.340000X0.020000*%
%ADD15R,0.320000X0.020000*%
%ADD16R,0.140000X0.020000*%
%ADD17R,0.280000X0.020000*%
%ADD18R,0.360000X0.020000*%
%ADD19R,0.420000X0.020000*%
%ADD20R,0.380000X0.020000*%
%ADD21R,0.480000X0.020000*%
%ADD22R,0.540000X0.020000*%
%ADD23R,0.560000X0.020000*%
%ADD24R,0.400000X0.020000*%
%ADD25R,0.640000X0.020000*%
%ADD26R,0.620000X0.020000*%
%ADD27R,0.700000X0.020000*%
%ADD28R,0.660000X0.020000*%
%ADD29R,0.740000X0.020000*%
%ADD30R,1.080000X0.020000*%
%ADD31R,0.800000X0.020000*%
%ADD32R,1.100000X0.020000*%
%ADD33R,0.440000X0.020000*%
%ADD34R,0.840000X0.020000*%
%ADD35R,1.120000X0.020000*%
%ADD36R,0.460000X0.020000*%
%ADD37R,0.860000X0.020000*%
%ADD38R,0.900000X0.020000*%
%ADD39R,1.140000X0.020000*%
%ADD40R,0.920000X0.020000*%
%ADD41R,1.160000X0.020000*%
%ADD42R,0.960000X0.020000*%
%ADD43R,0.500000X0.020000*%
%ADD44R,0.520000X0.020000*%
%ADD45R,0.940000X0.020000*%
%ADD46R,0.260000X0.020000*%
%ADD47R,0.180000X0.020000*%
%ADD48R,0.580000X0.020000*%
%ADD49R,0.060000X0.020000*%
%ADD50R,0.600000X0.020000*%
%ADD51R,0.300000X0.020000*%
%ADD52R,0.040000X0.020000*%
%ADD53R,0.100000X0.020000*%
%ADD54R,0.160000X0.020000*%
%ADD55R,0.220000X0.020000*%
%ADD56R,0.980000X0.020000*%
%ADD57R,0.880000X0.020000*%
%ADD58R,0.760000X0.020000*%
%ADD59R,1.060000X0.020000*%
%ADD60R,0.720000X0.020000*%
%ADD61R,0.820000X0.020000*%
%ADD62R,1.180000X0.020000*%
%ADD63R,1.340000X0.020000*%
%ADD64R,1.460000X0.020000*%
%ADD65R,1.600000X0.020000*%
%ADD66R,1.700000X0.020000*%
%ADD67R,1.820000X0.020000*%
%ADD68R,1.900000X0.020000*%
%ADD69R,1.980000X0.020000*%
%ADD70R,2.100000X0.020000*%
%ADD71R,2.160000X0.020000*%
%ADD72R,2.260000X0.020000*%
%ADD73R,2.340000X0.020000*%
%ADD74R,2.400000X0.020000*%
%ADD75R,2.480000X0.020000*%
%ADD76R,2.540000X0.020000*%
%ADD77R,2.600000X0.020000*%
%ADD78R,2.680000X0.020000*%
%ADD79R,2.720000X0.020000*%
%ADD80R,2.800000X0.020000*%
%ADD81R,2.840000X0.020000*%
%ADD82R,2.900000X0.020000*%
%ADD83R,2.960000X0.020000*%
%ADD84R,3.000000X0.020000*%
%ADD85R,3.060000X0.020000*%
%ADD86R,3.120000X0.020000*%
%ADD87R,3.160000X0.020000*%
%ADD88R,3.200000X0.020000*%
%ADD89R,3.260000X0.020000*%
%ADD90R,3.300000X0.020000*%
%ADD91R,3.340000X0.020000*%
%ADD92R,3.380000X0.020000*%
%ADD93R,3.420000X0.020000*%
%ADD94R,3.460000X0.020000*%
%ADD95R,3.520000X0.020000*%
%ADD96R,3.540000X0.020000*%
%ADD97R,3.580000X0.020000*%
%ADD98R,3.620000X0.020000*%
%ADD99R,3.660000X0.020000*%
%ADD100R,3.700000X0.020000*%
%ADD101R,3.740000X0.020000*%
%ADD102R,3.780000X0.020000*%
%ADD103R,3.800000X0.020000*%
%ADD104R,3.840000X0.020000*%
%ADD105R,3.860000X0.020000*%
%ADD106R,3.900000X0.020000*%
%ADD107R,3.940000X0.020000*%
%ADD108R,3.960000X0.020000*%
%ADD109R,3.980000X0.020000*%
%ADD110R,4.020000X0.020000*%
%ADD111R,4.060000X0.020000*%
%ADD112R,4.080000X0.020000*%
%ADD113R,4.100000X0.020000*%
%ADD114R,4.120000X0.020000*%
%ADD115R,4.160000X0.020000*%
%ADD116R,4.180000X0.020000*%
%ADD117R,4.200000X0.020000*%
%ADD118R,4.240000X0.020000*%
%ADD119R,4.260000X0.020000*%
%ADD120R,4.280000X0.020000*%
%ADD121R,4.300000X0.020000*%
%ADD122R,4.320000X0.020000*%
%ADD123R,4.340000X0.020000*%
%ADD124R,4.380000X0.020000*%
%ADD125R,4.400000X0.020000*%
%ADD126R,4.440000X0.020000*%
%ADD127R,4.460000X0.020000*%
%ADD128R,4.500000X0.020000*%
%ADD129R,4.520000X0.020000*%
%ADD130R,4.540000X0.020000*%
%ADD131R,4.560000X0.020000*%
%ADD132R,4.580000X0.020000*%
%ADD133R,4.600000X0.020000*%
%ADD134R,4.620000X0.020000*%
%ADD135R,4.640000X0.020000*%
%ADD136R,4.660000X0.020000*%
%ADD137R,4.680000X0.020000*%
%ADD138R,4.700000X0.020000*%
%ADD139R,4.720000X0.020000*%
%ADD140R,4.740000X0.020000*%
%ADD141R,0.680000X0.020000*%
%ADD142R,1.480000X0.020000*%
%ADD143R,1.580000X0.020000*%
%ADD144R,1.560000X0.020000*%
%ADD145R,1.540000X0.020000*%
%ADD146R,1.520000X0.020000*%
%ADD147R,1.500000X0.020000*%
%ADD148R,1.440000X0.020000*%
%ADD149R,1.400000X0.020000*%
%ADD150R,1.420000X0.020000*%
%ADD151R,1.380000X0.020000*%
%ADD152R,1.360000X0.020000*%
%ADD153R,1.320000X0.020000*%
%ADD154R,1.300000X0.020000*%
%ADD155R,1.260000X0.020000*%
%ADD156R,1.220000X0.020000*%
%ADD157R,1.200000X0.020000*%
%ADD158R,1.040000X0.020000*%
%ADD159R,1.020000X0.020000*%
%ADD160R,1.000000X0.020000*%
%ADD161R,1.280000X0.020000*%
%ADD162R,0.780000X0.020000*%
%ADD163R,1.240000X0.020000*%
%ADD164R,0.020000X0.020000*%
%ADD165R,1.840000X0.020000*%
%ADD166R,1.800000X0.020000*%
%ADD167R,1.780000X0.020000*%
%ADD168R,1.760000X0.020000*%
%ADD169R,1.740000X0.020000*%
%ADD170R,1.680000X0.020000*%
%ADD171R,1.660000X0.020000*%
%ADD172R,1.620000X0.020000*%

G36*
X86808Y155418D02*
X86808Y155418D01*
X86808Y155419D01*
X86809Y155420D01*
X86804Y156781D01*
X86801Y158141D01*
X86796Y159503D01*
X86791Y160864D01*
X86786Y162226D01*
X86782Y163586D01*
X86777Y164948D01*
X86772Y166309D01*
X86769Y167671D01*
X86764Y169031D01*
X86759Y170393D01*
X86755Y171754D01*
X86750Y171759D01*
X86749Y171764D01*
X85526Y172474D01*
X84302Y173183D01*
X83080Y173893D01*
X81858Y174603D01*
X80635Y175312D01*
X79413Y176022D01*
X78189Y176731D01*
X76966Y177441D01*
X75744Y178151D01*
X74493Y178876D01*
X73244Y179602D01*
X71993Y180327D01*
X70743Y181051D01*
X69494Y181776D01*
X68243Y182502D01*
X66994Y183226D01*
X65743Y183950D01*
X64510Y184663D01*
X65802Y185402D01*
X67253Y186033D01*
X68709Y186654D01*
X70167Y187270D01*
X71625Y187884D01*
X73084Y188497D01*
X74544Y189110D01*
X75951Y189701D01*
X77357Y190291D01*
X78764Y190882D01*
X80169Y191472D01*
X81577Y192063D01*
X82983Y192653D01*
X84388Y193244D01*
X85795Y193834D01*
X86747Y194238D01*
X86750Y194243D01*
X86754Y194247D01*
X86753Y194249D01*
X86754Y194252D01*
X86747Y194255D01*
X86743Y194261D01*
X82267Y194261D01*
X80777Y194262D01*
X73319Y194262D01*
X71826Y194264D01*
X62876Y194264D01*
X62116Y194265D01*
X62087Y194265D01*
X61385Y194265D01*
X53927Y194265D01*
X52435Y194267D01*
X47960Y194267D01*
X47948Y194257D01*
X47949Y194256D01*
X47948Y194255D01*
X47948Y192893D01*
X47950Y191531D01*
X47950Y190167D01*
X47951Y188805D01*
X47951Y187443D01*
X47953Y186081D01*
X47953Y184717D01*
X47954Y183355D01*
X47954Y181993D01*
X47956Y180631D01*
X47958Y179269D01*
X47958Y177905D01*
X47963Y177900D01*
X47964Y177895D01*
X49251Y177150D01*
X50540Y176406D01*
X51827Y175660D01*
X53115Y174915D01*
X54404Y174169D01*
X55691Y173425D01*
X56979Y172680D01*
X58227Y171958D01*
X59474Y171237D01*
X60721Y170515D01*
X61968Y169792D01*
X63216Y169072D01*
X64464Y168349D01*
X65710Y167627D01*
X66958Y166905D01*
X68204Y166182D01*
X69278Y165546D01*
X70250Y164835D01*
X68891Y164256D01*
X67510Y163673D01*
X66131Y163092D01*
X63368Y161930D01*
X61987Y161351D01*
X60606Y160770D01*
X59225Y160190D01*
X57842Y159611D01*
X56458Y159030D01*
X55075Y158449D01*
X53693Y157866D01*
X52310Y157284D01*
X50927Y156701D01*
X49546Y156117D01*
X48166Y155528D01*
X48164Y155522D01*
X48159Y155519D01*
X48161Y155517D01*
X48160Y155514D01*
X48166Y155510D01*
X48171Y155505D01*
X49647Y155468D01*
X51127Y155454D01*
X52607Y155445D01*
X54088Y155437D01*
X55567Y155432D01*
X57047Y155426D01*
X58526Y155422D01*
X60006Y155419D01*
X61485Y155416D01*
X62965Y155413D01*
X64445Y155411D01*
X65926Y155411D01*
X67405Y155410D01*
X77846Y155410D01*
X79338Y155408D01*
X86797Y155408D01*
X86808Y155418D01*
G37*
G36*
X55329Y134281D02*
X55329Y134281D01*
X55330Y134280D01*
X56348Y134364D01*
X56691Y134393D01*
X56692Y134394D01*
X56693Y134393D01*
X58014Y134757D01*
X58014Y134758D01*
X58015Y134757D01*
X59266Y135318D01*
X59267Y135319D01*
X59268Y135319D01*
X60409Y136076D01*
X60410Y136077D01*
X60411Y136077D01*
X61411Y137014D01*
X61411Y137015D01*
X61412Y137015D01*
X62235Y138111D01*
X62235Y138112D01*
X62236Y138112D01*
X62857Y139333D01*
X62856Y139335D01*
X62857Y139335D01*
X63211Y140519D01*
X63211Y140521D01*
X63212Y140521D01*
X63224Y140606D01*
X63226Y140618D01*
X63228Y140630D01*
X63229Y140642D01*
X63231Y140654D01*
X63252Y140797D01*
X63254Y140809D01*
X63256Y140821D01*
X63257Y140833D01*
X63258Y140833D01*
X63259Y140845D01*
X63279Y140976D01*
X63280Y140988D01*
X63282Y141000D01*
X63284Y141012D01*
X63286Y141024D01*
X63305Y141155D01*
X63307Y141167D01*
X63308Y141179D01*
X63310Y141191D01*
X63312Y141203D01*
X63331Y141334D01*
X63333Y141346D01*
X63335Y141358D01*
X63336Y141370D01*
X63338Y141382D01*
X63359Y141525D01*
X63361Y141537D01*
X63363Y141549D01*
X63364Y141561D01*
X63366Y141573D01*
X63385Y141704D01*
X63387Y141716D01*
X63389Y141728D01*
X63391Y141740D01*
X63391Y141744D01*
X63391Y141745D01*
X63418Y142982D01*
X63418Y142983D01*
X63271Y144211D01*
X63269Y144212D01*
X63270Y144213D01*
X62807Y145664D01*
X62805Y145664D01*
X62806Y145666D01*
X62071Y147001D01*
X62069Y147001D01*
X62069Y147003D01*
X61104Y148182D01*
X61103Y148182D01*
X61103Y148184D01*
X59941Y149170D01*
X59939Y149170D01*
X59939Y149171D01*
X58616Y149928D01*
X58615Y149928D01*
X58615Y149929D01*
X57457Y150367D01*
X57456Y150366D01*
X57455Y150368D01*
X56349Y150553D01*
X56236Y150572D01*
X56235Y150572D01*
X56234Y150573D01*
X56169Y150575D01*
X56168Y150575D01*
X55797Y150587D01*
X55796Y150587D01*
X55425Y150599D01*
X55424Y150599D01*
X55053Y150610D01*
X55053Y150611D01*
X55052Y150611D01*
X54998Y150612D01*
X54997Y150612D01*
X54901Y150611D01*
X54899Y150611D01*
X54899Y150610D01*
X54242Y150599D01*
X54241Y150599D01*
X53772Y150590D01*
X53771Y150589D01*
X53770Y150590D01*
X52566Y150372D01*
X52565Y150371D01*
X52564Y150372D01*
X51274Y149892D01*
X51273Y149891D01*
X51272Y149892D01*
X50072Y149214D01*
X50071Y149212D01*
X50070Y149213D01*
X49002Y148343D01*
X49001Y148341D01*
X49000Y148341D01*
X48099Y147300D01*
X48099Y147298D01*
X48097Y147298D01*
X47386Y146119D01*
X47386Y146117D01*
X47385Y146117D01*
X46874Y144837D01*
X46875Y144836D01*
X46873Y144835D01*
X46650Y143660D01*
X46650Y143659D01*
X46649Y143658D01*
X46630Y142457D01*
X46631Y142456D01*
X46630Y142456D01*
X46661Y141223D01*
X46662Y141222D01*
X46661Y141220D01*
X46921Y140020D01*
X46922Y140019D01*
X46922Y140018D01*
X47423Y138794D01*
X47425Y138794D01*
X47424Y138793D01*
X48121Y137670D01*
X48123Y137670D01*
X48122Y137669D01*
X48997Y136678D01*
X48998Y136678D01*
X48998Y136677D01*
X50076Y135769D01*
X50078Y135769D01*
X50078Y135768D01*
X51294Y135056D01*
X51295Y135057D01*
X51296Y135055D01*
X52615Y134562D01*
X52617Y134562D01*
X52617Y134561D01*
X53964Y134336D01*
X53965Y134336D01*
X55329Y134280D01*
X55329Y134281D01*
G37*
G36*
X86913Y134571D02*
X86913Y134571D01*
X86912Y134572D01*
X86913Y134573D01*
X86913Y137186D01*
X86910Y137190D01*
X86910Y137194D01*
X86042Y138202D01*
X85175Y139211D01*
X84307Y140220D01*
X83439Y141229D01*
X82572Y142237D01*
X81700Y143252D01*
X80829Y144269D01*
X79959Y145285D01*
X79091Y146304D01*
X78249Y147314D01*
X79617Y147351D01*
X81010Y147363D01*
X82404Y147366D01*
X86584Y147366D01*
X86596Y147376D01*
X86595Y147377D01*
X86596Y147378D01*
X86596Y150446D01*
X86585Y150458D01*
X86584Y150458D01*
X73674Y150458D01*
X73662Y150448D01*
X73663Y150447D01*
X73662Y150446D01*
X73662Y147748D01*
X73666Y147744D01*
X73665Y147740D01*
X74529Y146735D01*
X75394Y145728D01*
X76259Y144724D01*
X77123Y143719D01*
X77988Y142714D01*
X78853Y141707D01*
X79717Y140702D01*
X80582Y139698D01*
X81447Y138691D01*
X82294Y137706D01*
X81514Y137701D01*
X81509Y137701D01*
X80878Y137696D01*
X79472Y137689D01*
X79467Y137689D01*
X79438Y137688D01*
X77997Y137679D01*
X77661Y137677D01*
X77657Y137677D01*
X76556Y137669D01*
X75856Y137665D01*
X75851Y137665D01*
X75114Y137660D01*
X73839Y137653D01*
X73833Y137653D01*
X73674Y137652D01*
X73662Y137641D01*
X73663Y137641D01*
X73662Y137640D01*
X73662Y134573D01*
X73673Y134561D01*
X73674Y134562D01*
X73674Y134561D01*
X86901Y134561D01*
X86913Y134571D01*
G37*
G36*
X13032Y134281D02*
X13032Y134281D01*
X13033Y134280D01*
X14416Y134394D01*
X14417Y134396D01*
X14418Y134395D01*
X15869Y134830D01*
X15870Y134831D01*
X15871Y134831D01*
X17222Y135515D01*
X17222Y135516D01*
X17224Y135516D01*
X18421Y136445D01*
X18421Y136446D01*
X18422Y136446D01*
X19415Y137589D01*
X19415Y137591D01*
X19416Y137591D01*
X20170Y138906D01*
X20170Y138907D01*
X20171Y138908D01*
X20673Y140336D01*
X20672Y140338D01*
X20673Y140339D01*
X20865Y141667D01*
X20865Y141668D01*
X20865Y141669D01*
X20886Y143012D01*
X20885Y143013D01*
X20886Y143013D01*
X20730Y144347D01*
X20729Y144348D01*
X20730Y144349D01*
X20293Y145691D01*
X20292Y145691D01*
X20292Y145693D01*
X19634Y146942D01*
X19632Y146942D01*
X19633Y146944D01*
X18771Y148061D01*
X18769Y148062D01*
X18769Y148063D01*
X17726Y149014D01*
X17725Y149014D01*
X17724Y149015D01*
X16524Y149756D01*
X16523Y149756D01*
X16523Y149757D01*
X15253Y150305D01*
X15251Y150304D01*
X15250Y150306D01*
X13896Y150574D01*
X13895Y150573D01*
X13894Y150574D01*
X13876Y150575D01*
X13460Y150587D01*
X13459Y150587D01*
X13044Y150599D01*
X13043Y150599D01*
X12627Y150610D01*
X12627Y150611D01*
X12626Y150611D01*
X12510Y150614D01*
X12509Y150614D01*
X12354Y150611D01*
X12353Y150611D01*
X12353Y150610D01*
X11800Y150599D01*
X11799Y150599D01*
X11258Y150587D01*
X11257Y150587D01*
X11256Y150587D01*
X10028Y150371D01*
X10027Y150370D01*
X10026Y150370D01*
X8937Y149970D01*
X8936Y149969D01*
X8935Y149970D01*
X7907Y149435D01*
X7906Y149433D01*
X7905Y149434D01*
X6967Y148753D01*
X6967Y148752D01*
X6966Y148752D01*
X6366Y148217D01*
X6364Y148201D01*
X6365Y148201D01*
X6365Y148200D01*
X6905Y147583D01*
X7444Y146965D01*
X7995Y146333D01*
X8543Y145697D01*
X8558Y145695D01*
X8559Y145695D01*
X9250Y146172D01*
X10500Y146925D01*
X11889Y147361D01*
X13343Y147383D01*
X14723Y146932D01*
X15876Y146049D01*
X16745Y144790D01*
X17197Y143328D01*
X17212Y141798D01*
X16805Y140321D01*
X15993Y139024D01*
X14813Y138055D01*
X13369Y137555D01*
X12709Y137551D01*
X12704Y137551D01*
X11870Y137546D01*
X10438Y137989D01*
X9170Y138799D01*
X8523Y139321D01*
X8507Y139320D01*
X7945Y138757D01*
X6254Y137061D01*
X6253Y137045D01*
X6255Y137045D01*
X6254Y137044D01*
X6655Y136666D01*
X7735Y135759D01*
X7736Y135759D01*
X7736Y135758D01*
X8944Y135033D01*
X8946Y135033D01*
X8946Y135032D01*
X10269Y134546D01*
X10270Y134546D01*
X10271Y134545D01*
X11643Y134334D01*
X11643Y134335D01*
X11644Y134334D01*
X13031Y134280D01*
X13032Y134281D01*
G37*
G36*
X29752Y134246D02*
X29752Y134246D01*
X29752Y134245D01*
X31016Y134363D01*
X31017Y134364D01*
X31018Y134363D01*
X32414Y134739D01*
X32414Y134741D01*
X32416Y134740D01*
X33716Y135369D01*
X33716Y135370D01*
X33718Y135370D01*
X34889Y136216D01*
X34889Y136217D01*
X34891Y136217D01*
X35896Y137255D01*
X35896Y137257D01*
X35897Y137257D01*
X36686Y138467D01*
X36686Y138468D01*
X36687Y138469D01*
X37239Y139713D01*
X37239Y139715D01*
X37240Y139715D01*
X37553Y141041D01*
X37552Y141042D01*
X37553Y141043D01*
X37633Y142403D01*
X37632Y142404D01*
X37633Y142405D01*
X37583Y143655D01*
X37582Y143656D01*
X37583Y143657D01*
X37339Y144883D01*
X37337Y144884D01*
X37338Y144885D01*
X36874Y146047D01*
X36873Y146048D01*
X36874Y146049D01*
X36193Y147228D01*
X36191Y147229D01*
X36192Y147230D01*
X35325Y148279D01*
X35323Y148279D01*
X35323Y148281D01*
X34291Y149168D01*
X34290Y149168D01*
X34290Y149169D01*
X33118Y149861D01*
X33117Y149861D01*
X33117Y149862D01*
X32028Y150300D01*
X32026Y150300D01*
X32026Y150301D01*
X30879Y150544D01*
X30878Y150543D01*
X30878Y150544D01*
X29706Y150633D01*
X29706Y150632D01*
X29705Y150633D01*
X29064Y150623D01*
X29062Y150623D01*
X28265Y150611D01*
X28263Y150611D01*
X28219Y150611D01*
X28218Y150610D01*
X28217Y150611D01*
X26754Y150361D01*
X26753Y150360D01*
X26751Y150361D01*
X25362Y149832D01*
X25362Y149831D01*
X25360Y149831D01*
X24222Y149141D01*
X24222Y149139D01*
X24221Y149139D01*
X23220Y148271D01*
X23219Y148262D01*
X23218Y148261D01*
X23219Y148260D01*
X23218Y148255D01*
X23219Y148255D01*
X23218Y148255D01*
X23700Y147561D01*
X24246Y146908D01*
X24780Y146297D01*
X25315Y145682D01*
X25321Y145682D01*
X25321Y145681D01*
X25324Y145681D01*
X25330Y145680D01*
X25331Y145681D01*
X25986Y146168D01*
X27232Y146921D01*
X28615Y147366D01*
X30065Y147388D01*
X31446Y146943D01*
X32548Y146140D01*
X33355Y145038D01*
X33834Y143757D01*
X33983Y142398D01*
X33954Y142185D01*
X33949Y142149D01*
X33914Y141887D01*
X33909Y141851D01*
X33874Y141588D01*
X33869Y141552D01*
X33834Y141290D01*
X33829Y141254D01*
X33801Y141042D01*
X33283Y139778D01*
X32435Y138706D01*
X31253Y137900D01*
X29874Y137519D01*
X29671Y137528D01*
X29670Y137528D01*
X29407Y137540D01*
X29144Y137552D01*
X28881Y137564D01*
X28618Y137576D01*
X28442Y137584D01*
X27083Y138041D01*
X25872Y138815D01*
X25242Y139321D01*
X25227Y139320D01*
X25226Y139320D01*
X24155Y138245D01*
X23598Y137669D01*
X23598Y137668D01*
X23597Y137668D01*
X23083Y137054D01*
X23083Y137038D01*
X23926Y136203D01*
X23927Y136203D01*
X23928Y136202D01*
X24883Y135483D01*
X24885Y135483D01*
X24885Y135481D01*
X26012Y134897D01*
X26013Y134898D01*
X26014Y134896D01*
X27225Y134512D01*
X27226Y134513D01*
X27227Y134512D01*
X28479Y134298D01*
X28480Y134298D01*
X28481Y134297D01*
X29751Y134245D01*
X29752Y134246D01*
G37*
%LPC*%
G36*
X54270Y137552D02*
X54270Y137552D01*
X52936Y137957D01*
X51788Y138752D01*
X50925Y139850D01*
X50399Y141142D01*
X50231Y142529D01*
X50429Y143912D01*
X50977Y145196D01*
X51876Y146240D01*
X53047Y146973D01*
X54366Y147377D01*
X55743Y147386D01*
X56343Y147189D01*
X57200Y146903D01*
X58422Y145980D01*
X59281Y144709D01*
X59716Y143237D01*
X59713Y141706D01*
X59262Y140241D01*
X58398Y138975D01*
X57187Y138038D01*
X56343Y137759D01*
X55734Y137560D01*
X55050Y137457D01*
X54270Y137552D01*
G37*
%LPD*%
G36*
X70194Y134571D02*
X70194Y134571D01*
X70193Y134572D01*
X70194Y134573D01*
X70194Y150451D01*
X70183Y150463D01*
X70182Y150462D01*
X70182Y150463D01*
X70104Y150462D01*
X70103Y150462D01*
X69385Y150450D01*
X69383Y150450D01*
X69321Y150449D01*
X68667Y150438D01*
X68665Y150438D01*
X68462Y150434D01*
X68000Y150426D01*
X67998Y150426D01*
X67602Y150419D01*
X67326Y150414D01*
X67324Y150414D01*
X66743Y150404D01*
X66731Y150394D01*
X66732Y150393D01*
X66731Y150392D01*
X66725Y148811D01*
X66720Y147229D01*
X66714Y145647D01*
X66709Y144065D01*
X66704Y142483D01*
X66698Y140901D01*
X66693Y139320D01*
X66687Y137737D01*
X66682Y136156D01*
X66677Y134573D01*
X66688Y134561D01*
X66689Y134562D01*
X66689Y134561D01*
X70182Y134561D01*
X70194Y134571D01*
G37*
G36*
X43951Y134571D02*
X43951Y134571D01*
X43950Y134572D01*
X43951Y134573D01*
X43951Y138170D01*
X43940Y138182D01*
X43940Y138181D01*
X43939Y138182D01*
X40342Y138182D01*
X40330Y138172D01*
X40330Y138171D01*
X40330Y138170D01*
X40330Y134573D01*
X40340Y134561D01*
X40341Y134562D01*
X40342Y134561D01*
X43939Y134561D01*
X43951Y134571D01*
G37*
D10*
X243840Y73922D02*
X237739Y73922D01*
X237739Y72397D01*
X243840Y66295D01*
X243840Y64770D01*
X237739Y64770D01*
X234485Y70871D02*
X232960Y70871D01*
X232960Y64770D01*
X234485Y64770D02*
X231434Y64770D01*
X232960Y73922D02*
X232960Y75447D01*
X226723Y64770D02*
X223672Y64770D01*
X222147Y66295D01*
X222147Y69346D01*
X223672Y70871D01*
X226723Y70871D01*
X228248Y69346D01*
X228248Y66295D01*
X226723Y64770D01*
X209538Y66295D02*
X209538Y72397D01*
X208012Y73922D01*
X204962Y73922D01*
X203436Y72397D01*
X203436Y66295D01*
X204962Y64770D01*
X208012Y64770D01*
X209538Y66295D01*
X206487Y67821D02*
X203436Y64770D01*
X200182Y66295D02*
X200182Y70871D01*
X200182Y66295D02*
X198657Y64770D01*
X197132Y66295D01*
X195607Y64770D01*
X194081Y66295D01*
X194081Y70871D01*
X190827Y70871D02*
X189302Y70871D01*
X189302Y64770D01*
X190827Y64770D02*
X187777Y64770D01*
X189302Y73922D02*
X189302Y75447D01*
X184591Y70871D02*
X183065Y70871D01*
X183065Y64770D01*
X181540Y64770D02*
X184591Y64770D01*
X183065Y73922D02*
X183065Y75447D01*
X176828Y70871D02*
X172253Y70871D01*
X176828Y70871D02*
X178354Y69346D01*
X178354Y66295D01*
X176828Y64770D01*
X172253Y64770D01*
X159643Y64770D02*
X159643Y70871D01*
X156593Y73922D01*
X153542Y70871D01*
X153542Y64770D01*
X153542Y69346D02*
X159643Y69346D01*
X150288Y70871D02*
X148763Y70871D01*
X148763Y64770D01*
X150288Y64770D02*
X147238Y64770D01*
X148763Y73922D02*
X148763Y75447D01*
X144051Y70871D02*
X144051Y64770D01*
X144051Y67821D02*
X141001Y70871D01*
X139475Y70871D01*
X126900Y72397D02*
X126900Y66295D01*
X126900Y72397D02*
X125375Y73922D01*
X122324Y73922D01*
X120799Y72397D01*
X120799Y66295D01*
X122324Y64770D01*
X125375Y64770D01*
X126900Y66295D01*
X123850Y67821D02*
X120799Y64770D01*
X117545Y66295D02*
X117545Y70871D01*
X117545Y66295D02*
X116020Y64770D01*
X111444Y64770D01*
X111444Y70871D01*
X106665Y70871D02*
X103614Y70871D01*
X102089Y69346D01*
X102089Y64770D01*
X106665Y64770D01*
X108190Y66295D01*
X106665Y67821D01*
X102089Y67821D01*
X98835Y73922D02*
X97309Y73922D01*
X97309Y64770D01*
X95784Y64770D02*
X98835Y64770D01*
X92598Y70871D02*
X91073Y70871D01*
X91073Y64770D01*
X92598Y64770D02*
X89547Y64770D01*
X91073Y73922D02*
X91073Y75447D01*
X84836Y72397D02*
X84836Y66295D01*
X83311Y64770D01*
X83311Y70871D02*
X86361Y70871D01*
X80124Y70871D02*
X80124Y66295D01*
X78599Y64770D01*
X74023Y64770D01*
X74023Y63245D02*
X74023Y70871D01*
X74023Y63245D02*
X75548Y61719D01*
X77074Y61719D01*
X56838Y73922D02*
X55313Y72397D01*
X56838Y73922D02*
X59889Y73922D01*
X61414Y72397D01*
X61414Y70871D01*
X59889Y69346D01*
X56838Y69346D01*
X55313Y67821D01*
X55313Y66295D01*
X56838Y64770D01*
X59889Y64770D01*
X61414Y66295D01*
X50533Y64770D02*
X47483Y64770D01*
X50533Y64770D02*
X52059Y66295D01*
X52059Y69346D01*
X50533Y70871D01*
X47483Y70871D01*
X45958Y69346D01*
X45958Y67821D01*
X52059Y67821D01*
X42704Y64770D02*
X42704Y70871D01*
X38128Y70871D01*
X36602Y69346D01*
X36602Y64770D01*
X33348Y64770D02*
X28772Y64770D01*
X27247Y66295D01*
X28772Y67821D01*
X31823Y67821D01*
X33348Y69346D01*
X31823Y70871D01*
X27247Y70871D01*
X22468Y64770D02*
X19417Y64770D01*
X17892Y66295D01*
X17892Y69346D01*
X19417Y70871D01*
X22468Y70871D01*
X23993Y69346D01*
X23993Y66295D01*
X22468Y64770D01*
X14638Y64770D02*
X14638Y70871D01*
X14638Y67821D02*
X11587Y70871D01*
X10062Y70871D01*
X237739Y57157D02*
X239264Y58682D01*
X242315Y58682D01*
X243840Y57157D01*
X243840Y51055D01*
X242315Y49530D01*
X239264Y49530D01*
X237739Y51055D01*
X229909Y58682D02*
X228384Y57157D01*
X229909Y58682D02*
X232960Y58682D01*
X234485Y57157D01*
X234485Y51055D01*
X232960Y49530D01*
X229909Y49530D01*
X228384Y51055D01*
X220554Y58682D02*
X219028Y57157D01*
X220554Y58682D02*
X223604Y58682D01*
X225130Y57157D01*
X225130Y55631D01*
X223604Y54106D01*
X220554Y54106D01*
X219028Y52581D01*
X219028Y51055D01*
X220554Y49530D01*
X223604Y49530D01*
X225130Y51055D01*
X215774Y57157D02*
X214249Y58682D01*
X211199Y58682D01*
X209673Y57157D01*
X209673Y55631D01*
X211199Y54106D01*
X209673Y52581D01*
X209673Y51055D01*
X211199Y49530D01*
X214249Y49530D01*
X215774Y51055D01*
X215774Y52581D01*
X214249Y54106D01*
X215774Y55631D01*
X215774Y57157D01*
X214249Y54106D02*
X211199Y54106D01*
X206419Y55631D02*
X203369Y58682D01*
X203369Y49530D01*
X206419Y49530D02*
X200318Y49530D01*
X197064Y55631D02*
X194013Y58682D01*
X194013Y49530D01*
X190963Y49530D02*
X197064Y49530D01*
D11*
X154346Y142367D02*
X155575Y143596D01*
X154346Y142367D02*
X153118Y142367D01*
X151889Y143596D01*
X151889Y149739D01*
X153118Y149739D02*
X150660Y149739D01*
X148091Y149739D02*
X148091Y142367D01*
X148091Y149739D02*
X144405Y149739D01*
X143176Y148511D01*
X143176Y146053D01*
X144405Y144824D01*
X148091Y144824D01*
X140607Y147282D02*
X138149Y149739D01*
X138149Y142367D01*
X135692Y142367D02*
X140607Y142367D01*
X103759Y94196D02*
X103759Y89281D01*
X103759Y94196D02*
X101302Y96653D01*
X98844Y94196D01*
X98844Y89281D01*
X98844Y92967D02*
X103759Y92967D01*
X96275Y96653D02*
X96275Y89281D01*
X92589Y89281D01*
X91360Y90510D01*
X91360Y95425D01*
X92589Y96653D01*
X96275Y96653D01*
X88791Y96653D02*
X88791Y89281D01*
X85105Y89281D01*
X83876Y90510D01*
X83876Y95425D01*
X85105Y96653D01*
X88791Y96653D01*
X81307Y96653D02*
X81307Y89281D01*
X81307Y96653D02*
X77620Y96653D01*
X76392Y95425D01*
X76392Y92967D01*
X77620Y91738D01*
X81307Y91738D01*
X78849Y91738D02*
X76392Y89281D01*
D12*
X132588Y118684D02*
X157988Y118684D01*
X132588Y139004D02*
X132488Y139002D01*
X132389Y138996D01*
X132289Y138986D01*
X132191Y138973D01*
X132092Y138955D01*
X131995Y138934D01*
X131899Y138909D01*
X131803Y138880D01*
X131709Y138847D01*
X131616Y138811D01*
X131525Y138771D01*
X131435Y138727D01*
X131347Y138680D01*
X131261Y138630D01*
X131177Y138576D01*
X131095Y138519D01*
X131016Y138459D01*
X130938Y138395D01*
X130864Y138329D01*
X130792Y138260D01*
X130723Y138188D01*
X130657Y138114D01*
X130593Y138036D01*
X130533Y137957D01*
X130476Y137875D01*
X130422Y137791D01*
X130372Y137705D01*
X130325Y137617D01*
X130281Y137527D01*
X130241Y137436D01*
X130205Y137343D01*
X130172Y137249D01*
X130143Y137153D01*
X130118Y137057D01*
X130097Y136960D01*
X130079Y136861D01*
X130066Y136763D01*
X130056Y136663D01*
X130050Y136564D01*
X130048Y136464D01*
X157988Y139004D02*
X158088Y139002D01*
X158187Y138996D01*
X158287Y138986D01*
X158385Y138973D01*
X158484Y138955D01*
X158581Y138934D01*
X158677Y138909D01*
X158773Y138880D01*
X158867Y138847D01*
X158960Y138811D01*
X159051Y138771D01*
X159141Y138727D01*
X159229Y138680D01*
X159315Y138630D01*
X159399Y138576D01*
X159481Y138519D01*
X159560Y138459D01*
X159638Y138395D01*
X159712Y138329D01*
X159784Y138260D01*
X159853Y138188D01*
X159919Y138114D01*
X159983Y138036D01*
X160043Y137957D01*
X160100Y137875D01*
X160154Y137791D01*
X160204Y137705D01*
X160251Y137617D01*
X160295Y137527D01*
X160335Y137436D01*
X160371Y137343D01*
X160404Y137249D01*
X160433Y137153D01*
X160458Y137057D01*
X160479Y136960D01*
X160497Y136861D01*
X160510Y136763D01*
X160520Y136663D01*
X160526Y136564D01*
X160528Y136464D01*
X160528Y121224D02*
X160526Y121124D01*
X160520Y121025D01*
X160510Y120925D01*
X160497Y120827D01*
X160479Y120728D01*
X160458Y120631D01*
X160433Y120535D01*
X160404Y120439D01*
X160371Y120345D01*
X160335Y120252D01*
X160295Y120161D01*
X160251Y120071D01*
X160204Y119983D01*
X160154Y119897D01*
X160100Y119813D01*
X160043Y119731D01*
X159983Y119652D01*
X159919Y119574D01*
X159853Y119500D01*
X159784Y119428D01*
X159712Y119359D01*
X159638Y119293D01*
X159560Y119229D01*
X159481Y119169D01*
X159399Y119112D01*
X159315Y119058D01*
X159229Y119008D01*
X159141Y118961D01*
X159051Y118917D01*
X158960Y118877D01*
X158867Y118841D01*
X158773Y118808D01*
X158677Y118779D01*
X158581Y118754D01*
X158484Y118733D01*
X158385Y118715D01*
X158287Y118702D01*
X158187Y118692D01*
X158088Y118686D01*
X157988Y118684D01*
X132588Y118684D02*
X132488Y118686D01*
X132389Y118692D01*
X132289Y118702D01*
X132191Y118715D01*
X132092Y118733D01*
X131995Y118754D01*
X131899Y118779D01*
X131803Y118808D01*
X131709Y118841D01*
X131616Y118877D01*
X131525Y118917D01*
X131435Y118961D01*
X131347Y119008D01*
X131261Y119058D01*
X131177Y119112D01*
X131095Y119169D01*
X131016Y119229D01*
X130938Y119293D01*
X130864Y119359D01*
X130792Y119428D01*
X130723Y119500D01*
X130657Y119574D01*
X130593Y119652D01*
X130533Y119731D01*
X130476Y119813D01*
X130422Y119897D01*
X130372Y119983D01*
X130325Y120071D01*
X130281Y120161D01*
X130241Y120252D01*
X130205Y120345D01*
X130172Y120439D01*
X130143Y120535D01*
X130118Y120631D01*
X130097Y120728D01*
X130079Y120827D01*
X130066Y120925D01*
X130056Y121025D01*
X130050Y121124D01*
X130048Y121224D01*
X130048Y136464D01*
X160528Y136464D02*
X160528Y121224D01*
X157988Y139004D02*
X132588Y139004D01*
X80772Y122240D02*
X80772Y104968D01*
X98552Y124780D02*
X98652Y124778D01*
X98751Y124772D01*
X98851Y124762D01*
X98949Y124749D01*
X99048Y124731D01*
X99145Y124710D01*
X99241Y124685D01*
X99337Y124656D01*
X99431Y124623D01*
X99524Y124587D01*
X99615Y124547D01*
X99705Y124503D01*
X99793Y124456D01*
X99879Y124406D01*
X99963Y124352D01*
X100045Y124295D01*
X100124Y124235D01*
X100202Y124171D01*
X100276Y124105D01*
X100348Y124036D01*
X100417Y123964D01*
X100483Y123890D01*
X100547Y123812D01*
X100607Y123733D01*
X100664Y123651D01*
X100718Y123567D01*
X100768Y123481D01*
X100815Y123393D01*
X100859Y123303D01*
X100899Y123212D01*
X100935Y123119D01*
X100968Y123025D01*
X100997Y122929D01*
X101022Y122833D01*
X101043Y122736D01*
X101061Y122637D01*
X101074Y122539D01*
X101084Y122439D01*
X101090Y122340D01*
X101092Y122240D01*
X101092Y104968D02*
X101090Y104868D01*
X101084Y104769D01*
X101074Y104669D01*
X101061Y104571D01*
X101043Y104472D01*
X101022Y104375D01*
X100997Y104279D01*
X100968Y104183D01*
X100935Y104089D01*
X100899Y103996D01*
X100859Y103905D01*
X100815Y103815D01*
X100768Y103727D01*
X100718Y103641D01*
X100664Y103557D01*
X100607Y103475D01*
X100547Y103396D01*
X100483Y103318D01*
X100417Y103244D01*
X100348Y103172D01*
X100276Y103103D01*
X100202Y103037D01*
X100124Y102973D01*
X100045Y102913D01*
X99963Y102856D01*
X99879Y102802D01*
X99793Y102752D01*
X99705Y102705D01*
X99615Y102661D01*
X99524Y102621D01*
X99431Y102585D01*
X99337Y102552D01*
X99241Y102523D01*
X99145Y102498D01*
X99048Y102477D01*
X98949Y102459D01*
X98851Y102446D01*
X98751Y102436D01*
X98652Y102430D01*
X98552Y102428D01*
X83312Y102428D02*
X83212Y102430D01*
X83113Y102436D01*
X83013Y102446D01*
X82915Y102459D01*
X82816Y102477D01*
X82719Y102498D01*
X82623Y102523D01*
X82527Y102552D01*
X82433Y102585D01*
X82340Y102621D01*
X82249Y102661D01*
X82159Y102705D01*
X82071Y102752D01*
X81985Y102802D01*
X81901Y102856D01*
X81819Y102913D01*
X81740Y102973D01*
X81662Y103037D01*
X81588Y103103D01*
X81516Y103172D01*
X81447Y103244D01*
X81381Y103318D01*
X81317Y103396D01*
X81257Y103475D01*
X81200Y103557D01*
X81146Y103641D01*
X81096Y103727D01*
X81049Y103815D01*
X81005Y103905D01*
X80965Y103996D01*
X80929Y104089D01*
X80896Y104183D01*
X80867Y104279D01*
X80842Y104375D01*
X80821Y104472D01*
X80803Y104571D01*
X80790Y104669D01*
X80780Y104769D01*
X80774Y104868D01*
X80772Y104968D01*
X80772Y122240D02*
X80774Y122340D01*
X80780Y122439D01*
X80790Y122539D01*
X80803Y122637D01*
X80821Y122736D01*
X80842Y122833D01*
X80867Y122929D01*
X80896Y123025D01*
X80929Y123119D01*
X80965Y123212D01*
X81005Y123303D01*
X81049Y123393D01*
X81096Y123481D01*
X81146Y123567D01*
X81200Y123651D01*
X81257Y123733D01*
X81317Y123812D01*
X81381Y123890D01*
X81447Y123964D01*
X81516Y124036D01*
X81588Y124105D01*
X81662Y124171D01*
X81740Y124235D01*
X81819Y124295D01*
X81901Y124352D01*
X81985Y124406D01*
X82071Y124456D01*
X82159Y124503D01*
X82249Y124547D01*
X82340Y124587D01*
X82433Y124623D01*
X82527Y124656D01*
X82623Y124685D01*
X82719Y124710D01*
X82816Y124731D01*
X82915Y124749D01*
X83013Y124762D01*
X83113Y124772D01*
X83212Y124778D01*
X83312Y124780D01*
X98552Y124780D01*
X98552Y102428D02*
X83312Y102428D01*
X101092Y104968D02*
X101092Y122240D01*
D13*
X241226Y144198D03*
D14*
X235926Y144198D03*
X231726Y144198D03*
D15*
X223826Y144198D03*
X216226Y144198D03*
D14*
X212126Y144198D03*
X207926Y144198D03*
D16*
X200126Y144198D03*
D17*
X241226Y143998D03*
D18*
X235826Y143998D03*
X231626Y143998D03*
X223826Y143998D03*
D14*
X216126Y143998D03*
D18*
X212226Y143998D03*
X207826Y143998D03*
D15*
X200026Y143998D03*
D19*
X241326Y143798D03*
D18*
X235826Y143798D03*
X231626Y143798D03*
D20*
X223926Y143798D03*
D18*
X216226Y143798D03*
X212226Y143798D03*
X207826Y143798D03*
D21*
X200026Y143798D03*
X241226Y143598D03*
D18*
X235826Y143598D03*
X231626Y143598D03*
D20*
X223926Y143598D03*
D14*
X216326Y143598D03*
D18*
X212226Y143598D03*
X207826Y143598D03*
D22*
X200126Y143598D03*
D23*
X241226Y143398D03*
D18*
X235826Y143398D03*
X231426Y143398D03*
D24*
X223826Y143398D03*
D14*
X216326Y143398D03*
D18*
X212226Y143398D03*
X207826Y143398D03*
D25*
X200026Y143398D03*
D26*
X241326Y143198D03*
D18*
X235826Y143198D03*
X231426Y143198D03*
D24*
X223826Y143198D03*
D18*
X216426Y143198D03*
X212226Y143198D03*
X207826Y143198D03*
D27*
X200126Y143198D03*
D28*
X241326Y142998D03*
D20*
X235926Y142998D03*
D14*
X231326Y142998D03*
D19*
X223926Y142998D03*
D14*
X216526Y142998D03*
D18*
X212226Y142998D03*
X207826Y142998D03*
D29*
X200126Y142998D03*
D30*
X239426Y142798D03*
D18*
X231226Y142798D03*
D19*
X223926Y142798D03*
D14*
X216526Y142798D03*
D18*
X212226Y142798D03*
X207826Y142798D03*
D31*
X200026Y142798D03*
D32*
X239526Y142598D03*
D18*
X231226Y142598D03*
D33*
X223826Y142598D03*
D14*
X216526Y142598D03*
D18*
X212226Y142598D03*
X207826Y142598D03*
D34*
X200026Y142598D03*
D35*
X239626Y142398D03*
D14*
X231126Y142398D03*
D36*
X223926Y142398D03*
D14*
X216726Y142398D03*
D18*
X212226Y142398D03*
X207826Y142398D03*
D37*
X200126Y142398D03*
D35*
X239626Y142198D03*
D14*
X231126Y142198D03*
D36*
X223926Y142198D03*
D14*
X216726Y142198D03*
D18*
X212226Y142198D03*
X207826Y142198D03*
D38*
X200126Y142198D03*
D39*
X239726Y141998D03*
D18*
X231026Y141998D03*
D21*
X223826Y141998D03*
D15*
X216826Y141998D03*
D18*
X212226Y141998D03*
X207826Y141998D03*
D40*
X200026Y141998D03*
D41*
X239826Y141798D03*
D14*
X230926Y141798D03*
D21*
X223826Y141798D03*
D14*
X216926Y141798D03*
D18*
X212226Y141798D03*
X207826Y141798D03*
D42*
X200026Y141798D03*
D41*
X239826Y141598D03*
D14*
X230926Y141598D03*
D43*
X223926Y141598D03*
D14*
X216926Y141598D03*
D18*
X212226Y141598D03*
X207826Y141598D03*
D42*
X200226Y141598D03*
D41*
X239826Y141398D03*
D18*
X230826Y141398D03*
D44*
X223826Y141398D03*
D14*
X216926Y141398D03*
D18*
X212226Y141398D03*
X207826Y141398D03*
D45*
X200326Y141398D03*
D21*
X243426Y141198D03*
D22*
X236726Y141198D03*
D14*
X230726Y141198D03*
D44*
X223826Y141198D03*
D15*
X217026Y141198D03*
D18*
X212226Y141198D03*
X207826Y141198D03*
D21*
X202826Y141198D03*
D15*
X197626Y141198D03*
D36*
X243726Y140998D03*
D43*
X236526Y140998D03*
D14*
X230726Y140998D03*
D44*
X223826Y140998D03*
D14*
X217126Y140998D03*
D18*
X212226Y140998D03*
X207826Y140998D03*
D33*
X203026Y140998D03*
D46*
X197526Y140998D03*
D19*
X243926Y140798D03*
D36*
X236326Y140798D03*
D18*
X230626Y140798D03*
D22*
X223926Y140798D03*
D15*
X217226Y140798D03*
D18*
X212226Y140798D03*
X207826Y140798D03*
D19*
X203326Y140798D03*
D47*
X197526Y140798D03*
D24*
X244026Y140598D03*
D33*
X236226Y140598D03*
D14*
X230526Y140598D03*
D22*
X223926Y140598D03*
D15*
X217226Y140598D03*
D18*
X212226Y140598D03*
X207826Y140598D03*
D24*
X203426Y140598D03*
D13*
X197626Y140598D03*
D24*
X244026Y140398D03*
D19*
X236126Y140398D03*
D14*
X230526Y140398D03*
D48*
X223926Y140398D03*
D14*
X217326Y140398D03*
D18*
X212226Y140398D03*
X207826Y140398D03*
D20*
X203526Y140398D03*
D49*
X197726Y140398D03*
D20*
X244126Y140198D03*
D24*
X236026Y140198D03*
D15*
X230426Y140198D03*
D48*
X223926Y140198D03*
D15*
X217426Y140198D03*
D18*
X212226Y140198D03*
X207826Y140198D03*
X203626Y140198D03*
D20*
X244326Y139998D03*
D24*
X236026Y139998D03*
D14*
X230326Y139998D03*
D50*
X223826Y139998D03*
D15*
X217426Y139998D03*
D18*
X212226Y139998D03*
X207826Y139998D03*
D20*
X203726Y139998D03*
X244326Y139798D03*
D24*
X236026Y139798D03*
D14*
X230326Y139798D03*
D50*
X223826Y139798D03*
D15*
X217626Y139798D03*
D18*
X212226Y139798D03*
X207826Y139798D03*
D20*
X203726Y139798D03*
X244326Y139598D03*
X235926Y139598D03*
D15*
X230226Y139598D03*
D17*
X225426Y139598D03*
D51*
X222326Y139598D03*
D15*
X217626Y139598D03*
D18*
X212226Y139598D03*
X207826Y139598D03*
X203826Y139598D03*
X244426Y139398D03*
D20*
X235926Y139398D03*
D14*
X230126Y139398D03*
D17*
X225626Y139398D03*
D51*
X222326Y139398D03*
D15*
X217626Y139398D03*
D18*
X212226Y139398D03*
X207826Y139398D03*
X203826Y139398D03*
X244426Y139198D03*
D20*
X235926Y139198D03*
D14*
X230126Y139198D03*
D17*
X225626Y139198D03*
D51*
X222126Y139198D03*
X217726Y139198D03*
D18*
X212226Y139198D03*
X207826Y139198D03*
X203826Y139198D03*
X244426Y138998D03*
X235826Y138998D03*
D15*
X230026Y138998D03*
D51*
X225726Y138998D03*
X222126Y138998D03*
D15*
X217826Y138998D03*
D18*
X212226Y138998D03*
X207826Y138998D03*
X203826Y138998D03*
X244426Y138798D03*
X235826Y138798D03*
D14*
X229926Y138798D03*
D51*
X225726Y138798D03*
X222126Y138798D03*
D15*
X217826Y138798D03*
D18*
X212226Y138798D03*
X207826Y138798D03*
X203826Y138798D03*
X244426Y138598D03*
X235826Y138598D03*
D15*
X229826Y138598D03*
D17*
X225826Y138598D03*
X222026Y138598D03*
D51*
X217926Y138598D03*
D18*
X212226Y138598D03*
X207826Y138598D03*
X203826Y138598D03*
X244426Y138398D03*
X235826Y138398D03*
D15*
X229826Y138398D03*
D17*
X225826Y138398D03*
D51*
X221926Y138398D03*
D15*
X218026Y138398D03*
D18*
X212226Y138398D03*
X207826Y138398D03*
X203826Y138398D03*
X244426Y138198D03*
X235826Y138198D03*
D15*
X229826Y138198D03*
D17*
X226026Y138198D03*
D51*
X221926Y138198D03*
X218126Y138198D03*
D18*
X212226Y138198D03*
X207826Y138198D03*
X203826Y138198D03*
X244426Y137998D03*
D20*
X235926Y137998D03*
D14*
X229726Y137998D03*
D17*
X226026Y137998D03*
D51*
X221726Y137998D03*
X218126Y137998D03*
D18*
X212226Y137998D03*
X207826Y137998D03*
X203826Y137998D03*
X244426Y137798D03*
D20*
X235926Y137798D03*
D15*
X229626Y137798D03*
D17*
X226026Y137798D03*
D51*
X221726Y137798D03*
X218126Y137798D03*
D18*
X212226Y137798D03*
X207826Y137798D03*
X203826Y137798D03*
D20*
X244326Y137598D03*
X235926Y137598D03*
D15*
X229626Y137598D03*
D17*
X226026Y137598D03*
D51*
X221726Y137598D03*
D15*
X218226Y137598D03*
D18*
X212226Y137598D03*
X207826Y137598D03*
D20*
X203726Y137598D03*
X244326Y137398D03*
D24*
X236026Y137398D03*
D15*
X229426Y137398D03*
D17*
X226226Y137398D03*
D51*
X221726Y137398D03*
X218326Y137398D03*
D18*
X212226Y137398D03*
X207826Y137398D03*
D20*
X203726Y137398D03*
X244326Y137198D03*
D24*
X236026Y137198D03*
D26*
X227926Y137198D03*
X219926Y137198D03*
D18*
X212226Y137198D03*
X207826Y137198D03*
D20*
X203526Y137198D03*
D52*
X197626Y137198D03*
D20*
X244126Y136998D03*
D24*
X236026Y136998D03*
D26*
X227926Y136998D03*
D50*
X220026Y136998D03*
D18*
X212226Y136998D03*
X207826Y136998D03*
D20*
X203526Y136998D03*
D53*
X197526Y136998D03*
D24*
X244026Y136798D03*
D19*
X236126Y136798D03*
D48*
X227926Y136798D03*
X219926Y136798D03*
D18*
X212226Y136798D03*
X207826Y136798D03*
D24*
X203426Y136798D03*
D54*
X197426Y136798D03*
D24*
X244026Y136598D03*
D33*
X236226Y136598D03*
D48*
X227926Y136598D03*
X219926Y136598D03*
D18*
X212226Y136598D03*
X207826Y136598D03*
D19*
X203326Y136598D03*
D55*
X197326Y136598D03*
D19*
X243926Y136398D03*
D36*
X236326Y136398D03*
D48*
X227926Y136398D03*
D23*
X220026Y136398D03*
D18*
X212226Y136398D03*
X207826Y136398D03*
D33*
X203026Y136398D03*
D17*
X197426Y136398D03*
D33*
X243626Y136198D03*
D21*
X236426Y136198D03*
D22*
X227926Y136198D03*
D23*
X220026Y136198D03*
D18*
X212226Y136198D03*
X207826Y136198D03*
D42*
X200426Y136198D03*
D36*
X243526Y135998D03*
D44*
X236626Y135998D03*
D22*
X227926Y135998D03*
X219926Y135998D03*
D18*
X212226Y135998D03*
X207826Y135998D03*
D42*
X200226Y135998D03*
D44*
X243026Y135798D03*
D50*
X237026Y135798D03*
D44*
X227826Y135798D03*
X220026Y135798D03*
D18*
X212226Y135798D03*
X207826Y135798D03*
D56*
X200126Y135798D03*
D41*
X239826Y135598D03*
D43*
X227926Y135598D03*
D44*
X220026Y135598D03*
D18*
X212226Y135598D03*
X207826Y135598D03*
D45*
X200126Y135598D03*
D41*
X239826Y135398D03*
D43*
X227926Y135398D03*
D21*
X220026Y135398D03*
D18*
X212226Y135398D03*
X207826Y135398D03*
D40*
X200026Y135398D03*
D39*
X239726Y135198D03*
D21*
X227826Y135198D03*
X220026Y135198D03*
D18*
X212226Y135198D03*
X207826Y135198D03*
D57*
X200026Y135198D03*
D35*
X239626Y134998D03*
D21*
X227826Y134998D03*
X220026Y134998D03*
D18*
X212226Y134998D03*
X207826Y134998D03*
D34*
X200026Y134998D03*
D32*
X239526Y134798D03*
D36*
X227926Y134798D03*
D33*
X220026Y134798D03*
D18*
X212226Y134798D03*
X207826Y134798D03*
D31*
X200026Y134798D03*
D30*
X239426Y134598D03*
D33*
X227826Y134598D03*
X220026Y134598D03*
D18*
X212226Y134598D03*
X207826Y134598D03*
D58*
X200026Y134598D03*
D59*
X239326Y134398D03*
D19*
X227926Y134398D03*
D33*
X220026Y134398D03*
D18*
X212226Y134398D03*
X207826Y134398D03*
D60*
X200026Y134398D03*
D25*
X241226Y134198D03*
D20*
X235926Y134198D03*
D24*
X227826Y134198D03*
D19*
X220126Y134198D03*
D18*
X212226Y134198D03*
X207826Y134198D03*
D25*
X200026Y134198D03*
D50*
X241226Y133998D03*
D18*
X235826Y133998D03*
D24*
X227826Y133998D03*
X220026Y133998D03*
D18*
X212226Y133998D03*
X207826Y133998D03*
D50*
X200026Y133998D03*
D23*
X241226Y133798D03*
D18*
X235826Y133798D03*
D24*
X227826Y133798D03*
D20*
X220126Y133798D03*
D18*
X212226Y133798D03*
X207826Y133798D03*
D43*
X200126Y133798D03*
D21*
X241226Y133598D03*
D18*
X235826Y133598D03*
X227826Y133598D03*
D20*
X220126Y133598D03*
D18*
X212226Y133598D03*
X207826Y133598D03*
X200026Y133598D03*
D24*
X241226Y133398D03*
D18*
X235826Y133398D03*
X227826Y133398D03*
X220026Y133398D03*
D14*
X212126Y133398D03*
D18*
X207826Y133398D03*
D55*
X200126Y133398D03*
D17*
X241226Y133198D03*
D18*
X235826Y133198D03*
D53*
X241126Y132998D03*
D18*
X235826Y132998D03*
X235826Y132798D03*
X235826Y132598D03*
X235826Y132398D03*
X235826Y132198D03*
X235826Y131998D03*
X235826Y131798D03*
X235826Y131598D03*
X235826Y131398D03*
X235826Y131198D03*
X235826Y130998D03*
X235826Y130798D03*
D19*
X220126Y130798D03*
D18*
X235826Y130598D03*
D61*
X220126Y130598D03*
D18*
X235826Y130398D03*
D56*
X220126Y130398D03*
D18*
X235826Y130198D03*
D62*
X220126Y130198D03*
D18*
X235826Y129998D03*
D63*
X220126Y129998D03*
D18*
X235826Y129798D03*
D64*
X220126Y129798D03*
D18*
X235826Y129598D03*
D65*
X220026Y129598D03*
D14*
X235926Y129398D03*
D66*
X220126Y129398D03*
D67*
X220126Y129198D03*
D68*
X220126Y128998D03*
D69*
X220126Y128798D03*
D70*
X220126Y128598D03*
D71*
X220026Y128398D03*
D72*
X220126Y128198D03*
D73*
X220126Y127998D03*
D74*
X220026Y127798D03*
D75*
X220026Y127598D03*
D76*
X220126Y127398D03*
D77*
X220026Y127198D03*
D78*
X220026Y126998D03*
D79*
X220026Y126798D03*
D80*
X220026Y126598D03*
D81*
X220026Y126398D03*
D82*
X220126Y126198D03*
D83*
X220026Y125998D03*
D84*
X220026Y125798D03*
D85*
X220126Y125598D03*
D86*
X220026Y125398D03*
D87*
X220026Y125198D03*
D88*
X220026Y124998D03*
D89*
X220126Y124798D03*
D90*
X220126Y124598D03*
D91*
X220126Y124398D03*
D92*
X220126Y124198D03*
D93*
X220126Y123998D03*
D94*
X220126Y123798D03*
D95*
X220026Y123598D03*
D96*
X220126Y123398D03*
D97*
X220126Y123198D03*
D98*
X220126Y122998D03*
D99*
X220126Y122798D03*
D100*
X220126Y122598D03*
D101*
X220126Y122398D03*
D102*
X220126Y122198D03*
D103*
X220026Y121998D03*
D104*
X220026Y121798D03*
D105*
X220126Y121598D03*
D106*
X220126Y121398D03*
D107*
X220126Y121198D03*
D108*
X220026Y120998D03*
D109*
X220126Y120798D03*
D110*
X220126Y120598D03*
D111*
X220126Y120398D03*
D112*
X220026Y120198D03*
D113*
X220126Y119998D03*
D114*
X220026Y119798D03*
D115*
X220026Y119598D03*
D116*
X220126Y119398D03*
D117*
X220026Y119198D03*
D118*
X220026Y118998D03*
D119*
X220126Y118798D03*
D120*
X220026Y118598D03*
D121*
X220126Y118398D03*
D122*
X220026Y118198D03*
D123*
X220126Y117998D03*
D124*
X220126Y117798D03*
X220126Y117598D03*
D125*
X220026Y117398D03*
D126*
X220026Y117198D03*
D127*
X220126Y116998D03*
X220126Y116798D03*
D128*
X220126Y116598D03*
D129*
X220026Y116398D03*
X220026Y116198D03*
D130*
X220126Y115998D03*
D131*
X220026Y115798D03*
D132*
X220126Y115598D03*
D133*
X220026Y115398D03*
X220026Y115198D03*
D134*
X220126Y114998D03*
D135*
X220026Y114798D03*
D136*
X220126Y114598D03*
X220126Y114398D03*
D137*
X220026Y114198D03*
D138*
X220126Y113998D03*
D139*
X220026Y113798D03*
X220026Y113598D03*
D140*
X220126Y113398D03*
X220126Y113198D03*
D50*
X240826Y112998D03*
D25*
X199426Y112998D03*
D50*
X241026Y112798D03*
D26*
X199326Y112798D03*
D48*
X241126Y112598D03*
D26*
X199326Y112598D03*
D48*
X241126Y112398D03*
D26*
X199326Y112398D03*
D48*
X241126Y112198D03*
D25*
X199226Y112198D03*
D50*
X241226Y111998D03*
D25*
X199226Y111998D03*
D50*
X241226Y111798D03*
D25*
X199226Y111798D03*
D50*
X241226Y111598D03*
D28*
X199126Y111598D03*
D50*
X241226Y111398D03*
D28*
X199126Y111398D03*
D26*
X241326Y111198D03*
D28*
X199126Y111198D03*
D26*
X241326Y110998D03*
D28*
X199126Y110998D03*
D26*
X241326Y110798D03*
D28*
X199126Y110798D03*
D26*
X241326Y110598D03*
D28*
X199126Y110598D03*
D26*
X241326Y110398D03*
D141*
X199026Y110398D03*
D25*
X241426Y110198D03*
D141*
X199026Y110198D03*
D25*
X241426Y109998D03*
D141*
X199026Y109998D03*
D25*
X241426Y109798D03*
D141*
X199026Y109798D03*
D25*
X241426Y109598D03*
D141*
X199026Y109598D03*
D25*
X241426Y109398D03*
D27*
X198926Y109398D03*
D25*
X241426Y109198D03*
D27*
X198926Y109198D03*
D25*
X241426Y108998D03*
D27*
X198926Y108998D03*
D25*
X241426Y108798D03*
D27*
X198926Y108798D03*
D25*
X241426Y108598D03*
D27*
X198926Y108598D03*
D25*
X241426Y108398D03*
D27*
X198926Y108398D03*
D28*
X241526Y108198D03*
D36*
X231126Y108198D03*
D21*
X224026Y108198D03*
X216826Y108198D03*
D36*
X209726Y108198D03*
D27*
X198926Y108198D03*
D28*
X241526Y107998D03*
D21*
X231226Y107998D03*
X224026Y107998D03*
D43*
X216726Y107998D03*
D21*
X209626Y107998D03*
D27*
X198926Y107998D03*
D28*
X241526Y107798D03*
D21*
X231226Y107798D03*
X224026Y107798D03*
D43*
X216726Y107798D03*
D21*
X209626Y107798D03*
D27*
X198926Y107798D03*
D28*
X241526Y107598D03*
D21*
X231226Y107598D03*
X224026Y107598D03*
D43*
X216726Y107598D03*
D21*
X209626Y107598D03*
D27*
X198926Y107598D03*
D28*
X241526Y107398D03*
D21*
X231226Y107398D03*
X224026Y107398D03*
D43*
X216726Y107398D03*
D21*
X209626Y107398D03*
D27*
X198926Y107398D03*
D28*
X241526Y107198D03*
D21*
X231226Y107198D03*
X224026Y107198D03*
D43*
X216726Y107198D03*
D21*
X209626Y107198D03*
D27*
X198926Y107198D03*
D28*
X241526Y106998D03*
D21*
X231226Y106998D03*
X224026Y106998D03*
D43*
X216726Y106998D03*
D21*
X209626Y106998D03*
D27*
X198926Y106998D03*
D28*
X241526Y106798D03*
D21*
X231226Y106798D03*
X224026Y106798D03*
D43*
X216726Y106798D03*
D21*
X209626Y106798D03*
D60*
X198826Y106798D03*
D28*
X241526Y106598D03*
D21*
X231226Y106598D03*
X224026Y106598D03*
D43*
X216726Y106598D03*
D21*
X209626Y106598D03*
D60*
X198826Y106598D03*
D28*
X241526Y106398D03*
D21*
X231226Y106398D03*
X224026Y106398D03*
D43*
X216726Y106398D03*
D21*
X209626Y106398D03*
D60*
X198826Y106398D03*
D28*
X241526Y106198D03*
D21*
X231226Y106198D03*
X224026Y106198D03*
D43*
X216726Y106198D03*
D21*
X209626Y106198D03*
D60*
X198826Y106198D03*
D28*
X241526Y105998D03*
D21*
X231226Y105998D03*
X224026Y105998D03*
D43*
X216726Y105998D03*
D21*
X209626Y105998D03*
D60*
X198826Y105998D03*
D28*
X241526Y105798D03*
D21*
X231226Y105798D03*
X224026Y105798D03*
D43*
X216726Y105798D03*
D21*
X209626Y105798D03*
D60*
X198826Y105798D03*
D28*
X241526Y105598D03*
D21*
X231226Y105598D03*
X224026Y105598D03*
D43*
X216726Y105598D03*
D21*
X209626Y105598D03*
D60*
X198826Y105598D03*
D28*
X241526Y105398D03*
D21*
X231226Y105398D03*
X224026Y105398D03*
D43*
X216726Y105398D03*
D21*
X209626Y105398D03*
D60*
X198826Y105398D03*
D28*
X241526Y105198D03*
D21*
X231226Y105198D03*
X224026Y105198D03*
D43*
X216726Y105198D03*
D21*
X209626Y105198D03*
D27*
X198926Y105198D03*
D28*
X241526Y104998D03*
D21*
X231226Y104998D03*
X224026Y104998D03*
D43*
X216726Y104998D03*
D21*
X209626Y104998D03*
D27*
X198926Y104998D03*
D28*
X241526Y104798D03*
D21*
X231226Y104798D03*
X224026Y104798D03*
D43*
X216726Y104798D03*
D21*
X209626Y104798D03*
D27*
X198926Y104798D03*
D28*
X241526Y104598D03*
D21*
X231226Y104598D03*
X224026Y104598D03*
D43*
X216726Y104598D03*
D21*
X209626Y104598D03*
D27*
X198926Y104598D03*
D28*
X241526Y104398D03*
D21*
X231226Y104398D03*
X224026Y104398D03*
D43*
X216726Y104398D03*
D21*
X209626Y104398D03*
D27*
X198926Y104398D03*
D28*
X241526Y104198D03*
D21*
X231226Y104198D03*
X224026Y104198D03*
D43*
X216726Y104198D03*
D21*
X209626Y104198D03*
D27*
X198926Y104198D03*
D28*
X241526Y103998D03*
D21*
X231226Y103998D03*
X224026Y103998D03*
D43*
X216726Y103998D03*
D21*
X209626Y103998D03*
D27*
X198926Y103998D03*
D25*
X241426Y103798D03*
D21*
X231226Y103798D03*
X224026Y103798D03*
D43*
X216726Y103798D03*
D21*
X209626Y103798D03*
D27*
X198926Y103798D03*
D25*
X241426Y103598D03*
D36*
X231126Y103598D03*
D21*
X224026Y103598D03*
X216826Y103598D03*
D36*
X209726Y103598D03*
D27*
X198926Y103598D03*
D25*
X241426Y103398D03*
D27*
X198926Y103398D03*
D25*
X241426Y103198D03*
D27*
X198926Y103198D03*
D25*
X241426Y102998D03*
D27*
X198926Y102998D03*
D25*
X241426Y102798D03*
D27*
X198926Y102798D03*
D25*
X241426Y102598D03*
D27*
X198926Y102598D03*
D25*
X241426Y102398D03*
D141*
X199026Y102398D03*
D25*
X241426Y102198D03*
D141*
X199026Y102198D03*
D25*
X241426Y101998D03*
D141*
X199026Y101998D03*
D26*
X241326Y101798D03*
D141*
X199026Y101798D03*
D26*
X241326Y101598D03*
D28*
X199126Y101598D03*
D26*
X241326Y101398D03*
D28*
X199126Y101398D03*
D26*
X241326Y101198D03*
D28*
X199126Y101198D03*
D26*
X241326Y100998D03*
D28*
X199126Y100998D03*
D50*
X241226Y100798D03*
D28*
X199126Y100798D03*
D50*
X241226Y100598D03*
D28*
X199126Y100598D03*
D50*
X241226Y100398D03*
D25*
X199226Y100398D03*
D50*
X241226Y100198D03*
D25*
X199226Y100198D03*
D48*
X241126Y99998D03*
D25*
X199226Y99998D03*
D48*
X241126Y99798D03*
D25*
X199226Y99798D03*
D48*
X241126Y99598D03*
D26*
X199326Y99598D03*
D48*
X241126Y99398D03*
D26*
X199326Y99398D03*
D23*
X241026Y99198D03*
D26*
X199326Y99198D03*
D23*
X241026Y98998D03*
D50*
X199426Y98998D03*
D48*
X240926Y98798D03*
D26*
X199526Y98798D03*
D142*
X236226Y98598D03*
D28*
X220526Y98598D03*
D143*
X204326Y98598D03*
D142*
X236226Y98398D03*
D28*
X220526Y98398D03*
D143*
X204326Y98398D03*
D142*
X236226Y98198D03*
D28*
X220526Y98198D03*
D144*
X204426Y98198D03*
D142*
X236226Y97998D03*
D141*
X220426Y97998D03*
D145*
X204326Y97998D03*
D64*
X236126Y97798D03*
D141*
X220426Y97798D03*
D146*
X204426Y97798D03*
D142*
X236026Y97598D03*
D141*
X220426Y97598D03*
D146*
X204426Y97598D03*
D64*
X235926Y97398D03*
D141*
X220426Y97398D03*
D146*
X204426Y97398D03*
D64*
X235926Y97198D03*
D27*
X220326Y97198D03*
D147*
X204326Y97198D03*
D64*
X235926Y96998D03*
D141*
X220226Y96998D03*
D142*
X204426Y96998D03*
D148*
X235826Y96798D03*
D141*
X220226Y96798D03*
D64*
X204326Y96798D03*
D148*
X235826Y96598D03*
D141*
X220226Y96598D03*
D148*
X204426Y96598D03*
X235626Y96398D03*
D27*
X220126Y96398D03*
D148*
X204426Y96398D03*
X235626Y96198D03*
D27*
X220126Y96198D03*
D149*
X204426Y96198D03*
D150*
X235526Y95998D03*
D141*
X220026Y95998D03*
D149*
X204426Y95998D03*
D150*
X235526Y95798D03*
D27*
X219926Y95798D03*
D151*
X204326Y95798D03*
D150*
X235526Y95598D03*
D27*
X219926Y95598D03*
D152*
X204426Y95598D03*
D149*
X235426Y95398D03*
D27*
X219926Y95398D03*
D153*
X204426Y95398D03*
D150*
X235326Y95198D03*
D27*
X219726Y95198D03*
D153*
X204426Y95198D03*
D149*
X235226Y94998D03*
D27*
X219726Y94998D03*
D154*
X204326Y94998D03*
D149*
X235226Y94798D03*
D27*
X219726Y94798D03*
D155*
X204326Y94798D03*
D151*
X235126Y94598D03*
D60*
X219626Y94598D03*
D155*
X204326Y94598D03*
D149*
X235026Y94398D03*
D27*
X219526Y94398D03*
D156*
X204326Y94398D03*
D151*
X234926Y94198D03*
D60*
X219426Y94198D03*
D157*
X204426Y94198D03*
D152*
X234826Y93998D03*
D60*
X219426Y93998D03*
D62*
X204326Y93998D03*
D152*
X234826Y93798D03*
D60*
X219226Y93798D03*
D39*
X204326Y93798D03*
D152*
X234626Y93598D03*
D60*
X219226Y93598D03*
D39*
X204326Y93598D03*
D152*
X234626Y93398D03*
D29*
X219126Y93398D03*
D32*
X204326Y93398D03*
D63*
X234526Y93198D03*
D60*
X219026Y93198D03*
D30*
X204226Y93198D03*
D153*
X234426Y92998D03*
D29*
X218926Y92998D03*
D158*
X204226Y92998D03*
D63*
X234326Y92798D03*
D29*
X218926Y92798D03*
D159*
X204326Y92798D03*
D153*
X234226Y92598D03*
D29*
X218726Y92598D03*
D160*
X204226Y92598D03*
D63*
X234126Y92398D03*
D29*
X218726Y92398D03*
D42*
X204226Y92398D03*
D153*
X234026Y92198D03*
D29*
X218526Y92198D03*
D40*
X204226Y92198D03*
D154*
X233926Y91998D03*
D58*
X218426Y91998D03*
D38*
X204126Y91998D03*
D154*
X233926Y91798D03*
D58*
X218426Y91798D03*
D37*
X204126Y91798D03*
D154*
X233726Y91598D03*
D58*
X218226Y91598D03*
D61*
X204126Y91598D03*
D161*
X233626Y91398D03*
D58*
X218226Y91398D03*
D31*
X204026Y91398D03*
D161*
X233426Y91198D03*
D58*
X218026Y91198D03*
X204026Y91198D03*
D161*
X233426Y90998D03*
D162*
X217926Y90998D03*
D27*
X203926Y90998D03*
D155*
X233326Y90798D03*
D162*
X217726Y90798D03*
D28*
X203926Y90798D03*
D155*
X233126Y90598D03*
D162*
X217726Y90598D03*
D25*
X203826Y90598D03*
D155*
X233126Y90398D03*
D162*
X217526Y90398D03*
D50*
X203826Y90398D03*
D156*
X232926Y90198D03*
D31*
X217426Y90198D03*
D22*
X203726Y90198D03*
D163*
X232826Y89998D03*
D31*
X217226Y89998D03*
D21*
X203626Y89998D03*
D156*
X232726Y89798D03*
D31*
X217226Y89798D03*
D33*
X203626Y89798D03*
D156*
X232526Y89598D03*
D31*
X217026Y89598D03*
D20*
X203526Y89598D03*
D157*
X232426Y89398D03*
D61*
X216926Y89398D03*
D15*
X203426Y89398D03*
D157*
X232226Y89198D03*
D61*
X216726Y89198D03*
D17*
X203226Y89198D03*
D62*
X232126Y88998D03*
D34*
X216626Y88998D03*
D55*
X203126Y88998D03*
D62*
X231926Y88798D03*
D34*
X216426Y88798D03*
D16*
X202926Y88798D03*
D41*
X231826Y88598D03*
D34*
X216226Y88598D03*
D164*
X202926Y88598D03*
D41*
X231626Y88398D03*
D37*
X216126Y88398D03*
D39*
X231526Y88198D03*
D37*
X215926Y88198D03*
D39*
X231326Y87998D03*
D57*
X215826Y87998D03*
D35*
X231226Y87798D03*
D57*
X215626Y87798D03*
D35*
X231026Y87598D03*
D57*
X215426Y87598D03*
D32*
X230926Y87398D03*
D57*
X215226Y87398D03*
D32*
X230726Y87198D03*
D40*
X215026Y87198D03*
D30*
X230626Y86998D03*
D40*
X214826Y86998D03*
D30*
X230426Y86798D03*
D40*
X214626Y86798D03*
D158*
X230226Y86598D03*
D42*
X214426Y86598D03*
D158*
X230026Y86398D03*
D42*
X214226Y86398D03*
D158*
X229826Y86198D03*
D42*
X214026Y86198D03*
D160*
X229626Y85998D03*
D56*
X213726Y85998D03*
D160*
X229426Y85798D03*
D159*
X213526Y85798D03*
D42*
X229226Y85598D03*
D159*
X213326Y85598D03*
D42*
X229026Y85398D03*
D158*
X213026Y85398D03*
D45*
X228726Y85198D03*
D59*
X212726Y85198D03*
D45*
X228526Y84998D03*
D30*
X212426Y84998D03*
D38*
X228326Y84798D03*
D32*
X212126Y84798D03*
D57*
X228026Y84598D03*
D35*
X211826Y84598D03*
D37*
X227926Y84398D03*
D41*
X211426Y84398D03*
D34*
X227626Y84198D03*
D62*
X211126Y84198D03*
D61*
X227326Y83998D03*
D163*
X210626Y83998D03*
D31*
X227026Y83798D03*
D161*
X210226Y83798D03*
D58*
X226826Y83598D03*
D63*
X209726Y83598D03*
D29*
X226526Y83398D03*
D150*
X209126Y83398D03*
D60*
X226226Y83198D03*
D145*
X208326Y83198D03*
D49*
X199326Y83198D03*
D141*
X225826Y82998D03*
D165*
X206626Y82998D03*
D28*
X225526Y82798D03*
D67*
X206526Y82798D03*
D48*
X225126Y82598D03*
D166*
X206426Y82598D03*
D22*
X224726Y82398D03*
D167*
X206326Y82398D03*
D43*
X224326Y82198D03*
D168*
X206226Y82198D03*
D33*
X223826Y81998D03*
D169*
X206126Y81998D03*
D24*
X223426Y81798D03*
D66*
X205926Y81798D03*
D51*
X222726Y81598D03*
D170*
X205826Y81598D03*
D13*
X222026Y81398D03*
D171*
X205726Y81398D03*
D172*
X205526Y81198D03*
D65*
X205426Y80998D03*
D144*
X205226Y80798D03*
D145*
X205126Y80598D03*
D146*
X205026Y80398D03*
D142*
X204826Y80198D03*
D148*
X204626Y79998D03*
D150*
X204526Y79798D03*
D151*
X204326Y79598D03*
D63*
X204126Y79398D03*
D154*
X203926Y79198D03*
D155*
X203726Y78998D03*
D156*
X203526Y78798D03*
D62*
X203326Y78598D03*
D35*
X203026Y78398D03*
D30*
X202826Y78198D03*
D159*
X202526Y77998D03*
D56*
X202326Y77798D03*
D38*
X201926Y77598D03*
D34*
X201626Y77398D03*
D162*
X201326Y77198D03*
D141*
X200826Y76998D03*
D50*
X200426Y76798D03*
D33*
X199626Y76598D03*
D12*
X223520Y168910D02*
X220980Y174752D01*
X224790Y169672D02*
X223520Y168910D01*
X224790Y169672D02*
X227838Y167640D01*
X230124Y169926D01*
X228092Y173228D01*
X229362Y176530D01*
X233172Y177292D01*
X233172Y180594D01*
X229362Y181102D01*
X227838Y184404D01*
X230124Y187706D01*
X227838Y189992D01*
X224536Y187706D01*
X221488Y188976D01*
X220726Y193040D01*
X217424Y193040D01*
X216662Y188976D01*
X213614Y187706D01*
X210058Y189992D01*
X207772Y187706D01*
X210058Y184404D01*
X208788Y181356D01*
X204978Y180594D01*
X204978Y177292D01*
X208534Y176530D01*
X210058Y173228D01*
X207772Y169926D01*
X210058Y167640D01*
X213106Y169672D01*
X214630Y168910D01*
X216916Y174752D01*
X216797Y174814D01*
X216679Y174879D01*
X216564Y174948D01*
X216450Y175020D01*
X216339Y175096D01*
X216230Y175175D01*
X216123Y175257D01*
X216019Y175342D01*
X215918Y175430D01*
X215819Y175521D01*
X215723Y175615D01*
X215630Y175712D01*
X215539Y175811D01*
X215452Y175913D01*
X215367Y176018D01*
X215286Y176125D01*
X215208Y176235D01*
X215134Y176347D01*
X215062Y176461D01*
X214994Y176577D01*
X214930Y176695D01*
X214869Y176814D01*
X214811Y176936D01*
X214757Y177059D01*
X214707Y177184D01*
X214661Y177310D01*
X214618Y177438D01*
X214579Y177566D01*
X214544Y177696D01*
X214513Y177827D01*
X214486Y177959D01*
X214462Y178091D01*
X214443Y178224D01*
X214427Y178358D01*
X214416Y178491D01*
X214408Y178626D01*
X214404Y178760D01*
X214405Y178895D01*
X214409Y179029D01*
X214417Y179163D01*
X214430Y179297D01*
X214446Y179431D01*
X214466Y179563D01*
X214490Y179696D01*
X214518Y179827D01*
X214550Y179958D01*
X214586Y180088D01*
X214625Y180216D01*
X214668Y180343D01*
X214715Y180469D01*
X214766Y180594D01*
X214821Y180717D01*
X214879Y180838D01*
X214940Y180957D01*
X215005Y181075D01*
X215074Y181191D01*
X215146Y181304D01*
X215221Y181416D01*
X215300Y181525D01*
X215381Y181632D01*
X215466Y181736D01*
X215554Y181838D01*
X215645Y181937D01*
X215739Y182033D01*
X215836Y182127D01*
X215935Y182217D01*
X216037Y182305D01*
X216141Y182390D01*
X216248Y182471D01*
X216358Y182549D01*
X216469Y182624D01*
X216583Y182696D01*
X216699Y182764D01*
X216817Y182829D01*
X216936Y182890D01*
X217058Y182948D01*
X217181Y183002D01*
X217305Y183053D01*
X217431Y183099D01*
X217559Y183142D01*
X217687Y183182D01*
X217817Y183217D01*
X217948Y183249D01*
X218079Y183276D01*
X218212Y183300D01*
X218345Y183320D01*
X218478Y183336D01*
X218612Y183348D01*
X218746Y183356D01*
X218881Y183360D01*
X219015Y183360D01*
X219150Y183356D01*
X219284Y183348D01*
X219418Y183336D01*
X219551Y183320D01*
X219684Y183300D01*
X219817Y183276D01*
X219948Y183249D01*
X220079Y183217D01*
X220209Y183182D01*
X220337Y183142D01*
X220465Y183099D01*
X220591Y183053D01*
X220715Y183002D01*
X220838Y182948D01*
X220960Y182890D01*
X221079Y182829D01*
X221197Y182764D01*
X221313Y182696D01*
X221427Y182624D01*
X221538Y182549D01*
X221648Y182471D01*
X221755Y182390D01*
X221859Y182305D01*
X221961Y182217D01*
X222060Y182127D01*
X222157Y182033D01*
X222251Y181937D01*
X222342Y181838D01*
X222430Y181736D01*
X222515Y181632D01*
X222596Y181525D01*
X222675Y181416D01*
X222750Y181304D01*
X222822Y181191D01*
X222891Y181075D01*
X222956Y180957D01*
X223017Y180838D01*
X223075Y180717D01*
X223130Y180594D01*
X223181Y180469D01*
X223228Y180343D01*
X223271Y180216D01*
X223310Y180088D01*
X223346Y179958D01*
X223378Y179827D01*
X223406Y179696D01*
X223430Y179563D01*
X223450Y179431D01*
X223466Y179297D01*
X223479Y179163D01*
X223487Y179029D01*
X223491Y178895D01*
X223492Y178760D01*
X223488Y178626D01*
X223480Y178491D01*
X223469Y178358D01*
X223453Y178224D01*
X223434Y178091D01*
X223410Y177959D01*
X223383Y177827D01*
X223352Y177696D01*
X223317Y177566D01*
X223278Y177438D01*
X223235Y177310D01*
X223189Y177184D01*
X223139Y177059D01*
X223085Y176936D01*
X223027Y176814D01*
X222966Y176695D01*
X222902Y176577D01*
X222834Y176461D01*
X222762Y176347D01*
X222688Y176235D01*
X222610Y176125D01*
X222529Y176018D01*
X222444Y175913D01*
X222357Y175811D01*
X222266Y175712D01*
X222173Y175615D01*
X222077Y175521D01*
X221978Y175430D01*
X221877Y175342D01*
X221773Y175257D01*
X221666Y175175D01*
X221557Y175096D01*
X221446Y175020D01*
X221332Y174948D01*
X221217Y174879D01*
X221099Y174814D01*
X220980Y174752D01*
M02*
